<svg id="Layer_1" data-name="Layer 1" xmlns="http://www.w3.org/2000/svg" viewBox="0 0 120 120"><defs><style>.cls-1{fill:#70797c;}</style></defs><path class="cls-1" d="M59.55,23.69c-.64,6.7-1.89,13.27-2.82,19.92-1.2,8.52-2.17,17.3-1.81,25.91.18,4.14.67,8.25.87,12.39.09,1.92,3.1,1.93,3,0-.18-3.67-.56-7.32-.79-11a92,92,0,0,1,.17-12.2c.54-7.52,1.51-14.94,2.75-22.38.7-4.2,1.22-8.42,1.63-12.66.18-1.92-2.82-1.9-3,0Z"/><path class="cls-1" d="M39.91,74.41c1.63,3.85,4.66,6.79,6.76,10.36a21.32,21.32,0,0,1,2.12,6.11,10.35,10.35,0,0,0,2.63,5.23c3.49,3.34,7.88.8,10.75-2,3-3,5.07-6.83,7.06-10.56a146.3,146.3,0,0,1,8.63-14.25c1.1-1.59-1.5-3.09-2.59-1.51q-3.81,5.52-7.08,11.39a100.21,100.21,0,0,1-5.83,10.1c-1.61,2.22-6,7.6-9,4.61-1.31-1.33-1.61-3.29-2-5a19.11,19.11,0,0,0-2-5.4c-2.09-3.64-5.2-6.61-6.85-10.52a1.5,1.5,0,1,0-2.59,1.51Z"/></svg>