<svg id="Layer_1" data-name="Layer 1" xmlns="http://www.w3.org/2000/svg" viewBox="0 0 120 120"><defs><style>.cls-1{fill:#70797c;}</style></defs><path class="cls-1" d="M53.18,24.42A36.58,36.58,0,0,0,52,39.25c.44,4.27,1.56,8.48,1.72,12.77a75.53,75.53,0,0,1-.5,12.13,102.7,102.7,0,0,1-2.32,10.4,37.34,37.34,0,0,0-.71,13.16c.23,1.89,3.24,1.91,3,0a34.67,34.67,0,0,1,.43-11.63c.74-3.36,1.79-6.64,2.34-10a83.13,83.13,0,0,0,.78-12.52c0-3.88-.82-7.65-1.38-11.47-.84-5.6-1-11.38.69-16.84.59-1.84-2.31-2.63-2.89-.79Z"/><path class="cls-1" d="M72.69,69.58c-1.33,3-2.68,6.11-4.92,8.58-2,2.2-3.19,4.92-5.06,7.17s-2.62,5.18-4.1,7.72a32.29,32.29,0,0,1-6.17,7.56l1.82-.24c-4.24-2.6-7.21-6.61-9.63-10.87-1.2-2.12-2.27-4.3-3.31-6.49A50.87,50.87,0,0,1,38,74.8a1.51,1.51,0,0,0-2.9.8,54.41,54.41,0,0,0,3.49,8.57c1.15,2.43,2.33,4.85,3.68,7.18,2.63,4.59,5.95,8.81,10.5,11.61a1.54,1.54,0,0,0,1.82-.23,35.36,35.36,0,0,0,6.22-7.47A34.19,34.19,0,0,0,63,90.93a14.28,14.28,0,0,1,2-3.73c1.93-2.35,3.29-5.06,5.27-7.39a34.65,34.65,0,0,0,5-8.71c.77-1.75-1.81-3.28-2.59-1.52Z"/></svg>