<svg id="Layer_1" data-name="Layer 1" xmlns="http://www.w3.org/2000/svg" viewBox="0 0 120 120"><defs><style>.cls-1{fill:#70797c;}</style></defs><path class="cls-1" d="M46.2,19.34c4.44,1.84,9.14,3.8,12.5,7.37a20.75,20.75,0,0,1,4,7.16c1.06,2.81,2,5.66,2.79,8.55a75,75,0,0,1,1.86,8.79,26.28,26.28,0,0,1,.14,9,26.88,26.88,0,0,1-3.23,7.82c-1.26,2.24-2.59,4.44-4,6.56-3.21,4.71-7.14,9-12.25,11.63-1.72.88-.2,3.47,1.51,2.59A35.84,35.84,0,0,0,61.7,77.77a78.23,78.23,0,0,0,4.46-6.91A39.59,39.59,0,0,0,70,62.75c1.89-6.18.43-13.18-1.09-19.3a89.79,89.79,0,0,0-2.78-9A30,30,0,0,0,62.05,26C58.31,21.18,52.5,18.72,47,16.45c-1.78-.73-2.56,2.17-.79,2.89Z"/><path class="cls-1" d="M46.11,74.07c-3.21,2-5.39,5.11-7.24,8.36-2.19,3.88-4.24,7.84-6.35,11.76a1.52,1.52,0,0,0,1.29,2.26A28,28,0,0,0,41.29,96c2.67-.44,5.33-.9,8-1.36L65.11,92c1.9-.32,1.09-3.21-.8-2.89L49,91.66l-7.55,1.28a27.47,27.47,0,0,1-7.62.51l1.3,2.26c2-3.7,3.94-7.41,6-11.08,1.68-3,3.56-6.08,6.55-8,1.63-1,.12-3.63-1.52-2.59Z"/></svg>