<svg id="Layer_1" data-name="Layer 1" xmlns="http://www.w3.org/2000/svg" viewBox="0 0 120 120"><defs><style>.cls-1{fill:#70797c;}</style></defs><path class="cls-1" d="M76.63,13.16c-5.63,1.51-10.44,5-14.46,9.11A44.8,44.8,0,0,0,56.5,29.2,27.41,27.41,0,0,0,53.1,38a48.57,48.57,0,0,0-1.59,9.72,42.62,42.62,0,0,0,1.4,10.1c1.34,6.27,2.83,12.79,5.8,18.52a18.6,18.6,0,0,0,6.42,7.26c3.3,2.13,6.87,3.9,10.29,5.8,1.69.94,3.21-1.65,1.52-2.59-2.87-1.59-5.75-3.17-8.61-4.79a16.18,16.18,0,0,1-6-5.42c-3.16-5-4.59-11.11-5.89-16.78a82.56,82.56,0,0,1-1.78-9.07,28.3,28.3,0,0,1,.74-9.21,36.4,36.4,0,0,1,2.55-8.76A31.13,31.13,0,0,1,62.76,26c4-4.47,8.78-8.4,14.66-10a1.5,1.5,0,0,0-.79-2.89Z"/><path class="cls-1" d="M68,95.07a45,45,0,0,0,10.92-.88c1.81-.34,3.6-.75,5.38-1.16,1.59-.38,3.33-.62,3.93-2.38,1.09-3.14-1.29-6.22-3.11-8.52a69.22,69.22,0,0,0-6.85-7.77c-1.4-1.33-3.53.79-2.12,2.12A60,60,0,0,1,82,83a32.88,32.88,0,0,1,2.42,3.21c.51.82,1.4,2.35,1,3.37-.08.19.31-.08-.21.11-.31.11-.66.16-1,.24l-2.32.53c-1.49.34-3,.66-4.49.93a40.12,40.12,0,0,1-9.41.64C66,92,66.05,95,68,95.07Z"/></svg>