<?xml version="1.0" encoding="UTF-8"?>
<svg id="logo-animated" xmlns="http://www.w3.org/2000/svg" version="1.1" viewBox="0 0 500 500">
  <!-- Generator: Adobe Illustrator 29.7.1, SVG Export Plug-In . SVG Version: 2.1.1 Build 8)  -->
  <defs>
    <style>
      .st0 {
        fill: #0d0d0e;
      }
    </style>
  </defs>
  <path class="st0" d="M287.8,314.4c-1.9-1.1-3.7-2.3-5.4-3.7-.3-.3-.7-.5-1-.8-.1,0-.1-.1-.2-.1-12.1-9.7-21.4-27.3-21.4-27.3h0c-7.4-12.7-13.8-27.3-19.8-41-13.5-30.7-25.2-57.4-43.5-60.4-1.4-.3-5.2-.3-5.2-.3h-48.9s-4.2,0-5.2.3c-6.2,1.6-10.8,8.8-10.8,17.4v118.1c0,1.4,1.2,2.6,2.6,2.6s2.6-1.2,2.6-2.6v-118.1c0-6.8,3.8-12.6,8.3-12.6h.3c7.5.1,14,5.6,20.2,14.3l3.5,6.1,3,5.1,3.2,5.4c.2.4.4.8.6,1.2l1.8,3.7,2.4,5.1.6,1.3c1.4,3,2.7,6,4.1,9.1h0v15.5h0v36.1h0v27.9c0,1.4,1.2,2.6,2.6,2.6s2.6-1.2,2.6-2.6v-67.7c1.8,4.1,3.7,8.2,5.6,12.3,1.9,4,3.8,8,5.7,11.9l-.2-.2s2.8,6.2,7.7,14.3c5.2,8.7,12.9,19.4,22,27,.1.1.2.2.3.2h-.1c2.1,1.6,4.3,3.1,6.5,4.4.4.2.8.3,1.2.3h53c1.2,0,2.2-.8,2.5-1.9.3-1.1-.2-2.3-1.2-2.9Z"/>
  <path class="st0" d="M392.3,314.4c-1.9-1.1-3.7-2.3-5.4-3.7-.3-.3-.7-.5-1-.8-.1,0-.1-.1-.2-.1-12.1-9.7-21.4-27.3-21.4-27.3h0c-7.4-12.7-13.8-27.3-19.8-41-13.5-30.7-25.2-57.4-43.5-60.4-1.4-.3-5.2-.3-5.2-.3h-48.9s-4.2,0-5.2.3c-6.2,1.6-10.8,8.8-10.8,17.4v9.6c1.7,3.3,3.4,6.8,5.2,10.4v-19.9c0-6.8,3.8-12.6,8.3-12.6h.3c7.5.1,14,5.6,20.2,14.3l3.5,6.1,3,5.1,3.2,5.4c.2.4.4.8.6,1.2l1.8,3.7,2.4,5.1.6,1.3c1.4,3,2.7,6,4.1,9.1h0v15.5h0v36.1h0v15.8c.3.3.6.5.9.8l1.1.8c1.1.9,2.2,1.6,3.2,2.2v-59.4c1.8,4.1,3.7,8.2,5.6,12.3,1.9,4,3.8,8,5.7,11.9l-.2-.2s2.8,6.2,7.7,14.3c5.2,8.7,12.9,19.4,22,27,.1.1.2.2.3.2h-.1c2.1,1.6,4.3,3.1,6.5,4.4.4.2.8.3,1.2.3h53c1.2,0,2.2-.8,2.5-1.9.3-1.2-.2-2.4-1.2-3Z"/>
  <rect class="st0" x="129" y="314.1" width="53.1" height="5.2"/>
  <path class="st0" d="M234.2,314.1c-20.7-12.2-34.8-44.3-47.2-72.6-10.6-24.2-20.2-46-32.8-55.6h38.8c17,0,29.3,28,42.3,57.6,9.5,21.7,20,45.5,34,61.7q0,.1.1.2c.1.1.2.1.3.2,2.7,3.1,5.6,6,8.6,8.4h-44.1Z"/>
  <path class="st0" d="M338.5,314.1c-20.7-12.2-34.8-44.3-47.2-72.6-10.6-24.2-20.2-46-32.8-55.6h38.8c17,0,29.3,28,42.3,57.6,9.5,21.7,20,45.5,34,61.7q0,.1.1.2c.1.1.2.1.3.2,2.7,3.1,5.6,6,8.6,8.4h-44.1Z"/>
</svg>