<?xml version="1.0" encoding="utf-8"?>
<!-- Generator: Adobe Illustrator 21.0.2, SVG Export Plug-In . SVG Version: 6.00 Build 0)  -->
<svg version="1.1" id="logo-animated" xmlns="http://www.w3.org/2000/svg" xmlns:xlink="http://www.w3.org/1999/xlink" x="0px"
	 y="0px" viewBox="0 0 500 500" style="enable-background:new 0 0 500 500;" xml:space="preserve">
<g>
	<path d="M409.3,89.8h-2H288.7h-4.9h-2l1.4,1.4l4.9,4.9l5.3,5.3l5.3,5.3h0l4.9,4.9l84.7,84.7l4.9,4.9v0l5.3,5.3l3.8,3.8l6.4,6.4
		l1.4,1.4v-2V90.7v-0.8H409.3z M405.2,99.4v1.5v13.2v92.3l-6.1-6.1v-0.6v-0.6v-98.2h-8.2h-90h-0.6h-0.6l0,0l-6.1-6.1h111.6V99.4z"/>
	<path d="M405.8,322.8l-6.1-6.1L183.3,100.3l-6.1-6.1l-4.1-4.1l-0.2-0.2h-0.3h-5.8h-8.7H90.7h-0.8v0.8v4.1v2.7v9.3v4.9v60.8v0.3
		l0.2,0.2l236.8,236.8l0.2,0.2h0.3h60.8h4.9h5.9h6.1h4.1h0.8v-0.8v-67.4v-8.7v-5.8v-0.3l-0.2-0.2L405.8,322.8z M405.2,337.8v67.4
		h-6.1v-0.4v-0.4v-10.7v-62l-15.5-15.5L168.3,100.9H95.6h-0.4h-0.4v-6.1h67.4h8.7l6.1,6.1l175,175l47.1,47.1l6.1,6.1V337.8z"/>
	<path d="M91.3,283.1l-1.4-1.4v128.5h128.5l-1.4-1.4L91.3,283.1z M197.7,405.2l-0.4-0.4l-0.4-0.4l-6.1-6.1l-95.2-95.2l-0.4-0.4l0,0
		l-0.4-0.4v-1.7v-7l111.6,111.6H197.7z"/>
	<rect x="89.8" y="410.1" width="0" height="0"/>
</g>
</svg>
