<?xml version="1.0" encoding="utf-8"?>
<!-- Generator: Adobe Illustrator 24.2.1, SVG Export Plug-In . SVG Version: 6.00 Build 0)  -->
<svg version="1.1" id="logo-animated" xmlns="http://www.w3.org/2000/svg" xmlns:xlink="http://www.w3.org/1999/xlink" x="0px"
	 y="0px" viewBox="0 0 500 500" style="enable-background:new 0 0 500 500;" xml:space="preserve">
<style type="text/css">
	.st0{fill:#000405;}
	.st1{fill:#F4F4F9;}
</style>
<path class="st0" d="M250,478.2L250,478.2C124,478.2,21.8,376,21.8,250l0,0C21.8,124,124,21.8,250,21.8l0,0
	C376,21.8,478.2,124,478.2,250l0,0C478.2,376,376,478.2,250,478.2z"/>
<g>
	<g>
		<g>
			<path class="st1" d="M287.8,314.4c-1.9-1.1-3.7-2.3-5.4-3.7c-0.3-0.3-0.7-0.5-1-0.8c-0.1,0-0.1-0.1-0.2-0.1
				c-12.1-9.7-21.4-27.3-21.4-27.3v0.1c-7.4-12.8-13.8-27.4-19.8-41.1c-13.5-30.7-25.2-57.4-43.5-60.4c-1.4-0.3-5.2-0.3-5.2-0.3
				h-48.9c0,0-4.2,0-5.2,0.3c-6.2,1.6-10.8,8.8-10.8,17.4v118.1c0,1.4,1.2,2.6,2.6,2.6s2.6-1.2,2.6-2.6v-3.2v-24.7v-5.2v-10.3v-5.1
				v-10.3v-5.2V251v-3.9v-4.8v-5.2v-7.5v-2.8v-5.1v-10.3v-5.1v-3.2v-4.6c0-6.8,3.8-12.6,8.3-12.6h0.3c7.5,0.1,14,5.6,20.2,14.3
				l3.5,6.1l3,5.1l3.2,5.4c0.2,0.4,0.4,0.8,0.6,1.2l1.8,3.7l2.4,5.1l0.6,1.3c1.4,3,2.7,6,4.1,9.1l0,0v5.2v10.3l0,0v5.2v10.3v5.1
				v10.3v5.2l0,0v27.9c0,1.4,1.2,2.6,2.6,2.6c1.4,0,2.6-1.2,2.6-2.6V249c1.8,4.1,3.7,8.2,5.6,12.3c1.9,4,3.8,8,5.7,11.9l-0.2-0.2
				c0,0,2.8,6.2,7.7,14.3c5.2,8.7,12.9,19.4,22,27c0.1,0.1,0.2,0.2,0.3,0.2l-0.1-0.1c2.1,1.7,4.3,3.2,6.5,4.5
				c0.4,0.2,0.8,0.3,1.2,0.3h53c1.2,0,2.2-0.8,2.5-1.9C289.3,316.2,288.8,315,287.8,314.4z"/>
		</g>
		<g>
			<path class="st1" d="M392.3,314.4c-1.9-1.1-3.7-2.3-5.4-3.7c-0.3-0.3-0.7-0.5-1-0.8c-0.1,0-0.1-0.1-0.2-0.1
				c-12.1-9.7-21.4-27.3-21.4-27.3v0.1c-7.4-12.8-13.8-27.4-19.8-41.1c-13.5-30.7-25.2-57.4-43.5-60.4c-1.4-0.3-5.2-0.3-5.2-0.3
				h-48.9c0,0-4.2,0-5.2,0.3c-6.2,1.6-10.8,8.8-10.8,17.4v9.6c1.7,3.3,3.4,6.8,5.2,10.4v-19.9c0-6.8,3.8-12.6,8.3-12.6h0.3
				c7.5,0.1,14,5.6,20.2,14.3l3.5,6.1l3,5.1l3.2,5.4c0.2,0.4,0.4,0.8,0.6,1.2l1.8,3.7l2.4,5.1l0.6,1.3c1.4,3,2.7,6,4.1,9.1l0,0v15.5
				l0,0v36.1l0,0v15.8c0.3,0.3,0.6,0.5,0.9,0.8l1.1,0.8c1.1,0.9,2.2,1.6,3.2,2.2v-59.4c1.8,4.1,3.7,8.2,5.6,12.3
				c1.9,4,3.8,8,5.7,11.9l-0.2-0.2c0,0,2.8,6.2,7.7,14.3c5.2,8.7,12.9,19.4,22,27c0.1,0.1,0.2,0.2,0.3,0.2l-0.1-0.1
				c2.1,1.7,4.3,3.2,6.5,4.5c0.4,0.2,0.8,0.3,1.2,0.3h53c1.2,0,2.2-0.8,2.5-1.9C393.8,316.2,393.3,315,392.3,314.4z"/>
		</g>
		<g>
			<rect x="129" y="314.1" class="st1" width="53.1" height="5.2"/>
		</g>
		<g>
			<path class="st1" d="M234.2,314.1c-20.7-12.2-34.8-44.3-47.2-72.6c-10.6-24.2-20.2-46-32.8-55.6h38.6c0.1,0,0.1,0,0.2,0
				c17,0,29.3,28,42.3,57.6c9.5,21.7,20,45.5,34,61.7c0,0.1,0,0.1,0.1,0.2s0.2,0.1,0.3,0.2c2.7,3.1,5.6,6,8.6,8.4L234.2,314.1
				L234.2,314.1z"/>
		</g>
		<g>
			<path class="st1" d="M338.5,314.1c-20.7-12.2-34.8-44.3-47.2-72.6c-10.6-24.2-20.2-46-32.8-55.6h38.6c0.1,0,0.1,0,0.2,0
				c17,0,29.3,28,42.3,57.6c9.5,21.7,20,45.5,34,61.7c0,0.1,0,0.1,0.1,0.2s0.2,0.1,0.3,0.2c2.7,3.1,5.6,6,8.6,8.4L338.5,314.1
				L338.5,314.1z"/>
		</g>
	</g>
</g>
</svg>
