<?xml version="1.0" encoding="UTF-8"?>
<svg id="logo-animated" xmlns="http://www.w3.org/2000/svg" version="1.1" viewBox="0 0 200 105">
  <!-- Generator: Adobe Illustrator 29.7.1, SVG Export Plug-In . SVG Version: 2.1.1 Build 8)  -->
  <defs>
    <style>
      .st0 {
        fill: #f4f4f9;
      }
    </style>
  </defs>
  <path class="st0" d="M120.8,100.6c-1.4-.8-2.8-1.7-4-2.8-.2-.2-.5-.4-.7-.6,0,0,0,0-.1,0-9.1-7.3-16-20.4-16-20.4h0c-5.5-9.5-10.3-20.4-14.8-30.7C74.9,23.1,66.2,3.1,52.5.8c-1-.2-3.9-.2-3.9-.2H12s-3.1,0-3.9.2C3.4,2,0,7.4,0,13.9v88.4c0,1,.9,1.9,1.9,1.9s1.9-.9,1.9-1.9V13.9c0-5.1,2.8-9.4,6.2-9.4h.2c5.6,0,10.5,4.2,15.1,10.7l2.6,4.6,2.2,3.8,2.4,4c.1.3.3.6.4.9l1.3,2.8,1.8,3.8.4,1c1,2.2,2,4.5,3.1,6.8h0v11.6h0v27h0v20.9c0,1,.9,1.9,1.9,1.9s1.9-.9,1.9-1.9v-50.7c1.3,3.1,2.8,6.1,4.2,9.2,1.4,3,2.8,6,4.3,8.9h-.1c0-.1,2.1,4.5,5.8,10.6,3.9,6.5,9.7,14.5,16.5,20.2,0,0,.1.1.2.1h0c1.6,1.2,3.2,2.3,4.9,3.3.3.1.6.2.9.2h39.7c.9,0,1.6-.6,1.9-1.4s-.1-1.7-.9-2.2h0Z"/>
  <path class="st0" d="M199,100.6c-1.4-.8-2.8-1.7-4-2.8-.2-.2-.5-.4-.7-.6,0,0,0,0-.1,0-9.1-7.3-16-20.4-16-20.4h0c-5.5-9.5-10.3-20.4-14.8-30.7C153.1,23.1,144.4,3.1,130.7.8c-1-.2-3.9-.2-3.9-.2h-36.6s-3.1,0-3.9.2c-4.6,1.2-8.1,6.6-8.1,13v7.2c1.3,2.5,2.5,5.1,3.9,7.8v-14.9c0-5.1,2.8-9.4,6.2-9.4h.2c5.6,0,10.5,4.2,15.1,10.7l2.6,4.6,2.2,3.8,2.4,4c.1.3.3.6.4.9l1.3,2.8,1.8,3.8.4,1c1,2.2,2,4.5,3.1,6.8h0v11.6h0v27h0v11.8c.2.2.4.4.7.6l.8.6c.8.7,1.6,1.2,2.4,1.6v-44.5c1.3,3.1,2.8,6.1,4.2,9.2,1.4,3,2.8,6,4.3,8.9h-.1c0-.1,2.1,4.5,5.8,10.6,3.9,6.5,9.7,14.5,16.5,20.2,0,0,.1.1.2.1h0c1.6,1.2,3.2,2.3,4.9,3.3.3.1.6.2.9.2h39.7c.9,0,1.6-.6,1.9-1.4.2-.9-.1-1.8-.9-2.2h0Z"/>
  <rect class="st0" x="1.9" y="100.4" width="39.7" height="3.9"/>
  <path class="st0" d="M80.7,100.4c-15.5-9.1-26-33.2-35.3-54.3C37.4,27.9,30.2,11.6,20.8,4.4h29c12.7,0,21.9,21,31.7,43.1,7.1,16.2,15,34.1,25.5,46.2,0,0,0,0,0,.1,0,0,.1,0,.2.1,2,2.3,4.2,4.5,6.4,6.3h-33Z"/>
  <path class="st0" d="M158.8,100.4c-15.5-9.1-26-33.2-35.3-54.3-7.9-18.1-15.1-34.4-24.6-41.6h29c12.7,0,21.9,21,31.7,43.1,7.1,16.2,15,34.1,25.5,46.2,0,0,0,0,0,.1,0,0,.1,0,.2.1,2,2.3,4.2,4.5,6.4,6.3h-33Z"/>
</svg>