<?xml version="1.0" encoding="utf-8"?>
<!-- Generator: Adobe Illustrator 19.2.1, SVG Export Plug-In . SVG Version: 6.00 Build 0)  -->
<svg version="1.1" id="logo-animated" xmlns="http://www.w3.org/2000/svg" xmlns:xlink="http://www.w3.org/1999/xlink" x="0px"
	 y="0px" viewBox="0 0 500 500" style="enable-background:new 0 0 500 500;" xml:space="preserve">
<style type="text/css">
	.st0{fill:#211F20;}
</style>
<g>
	<g>
		<g>
			<g>
				<path class="st0" d="M-131.2-153.3h10.6l9.9,18.2l0,0v-18.2h9.9v34.1h-10.1l-10.4-18.6l0,0v18.6h-9.9V-153.3L-131.2-153.3z"/>
				<path class="st0" d="M-26.1-153.3h10.4v34.1h-10.4V-153.3z"/>
				<path class="st0" d="M77.4-140.6c-0.2-1.2-1.2-5-5.4-5c-5,0-6.5,4.9-6.5,9.4c0,4.6,1.6,9.4,6.5,9.4c3.5,0,5-2.6,5.7-5.7h10.1
					c0,6.9-5.7,14.1-15.6,14.1c-11,0-17.4-7.6-17.4-17.9c0-10.6,6.8-17.9,17.4-17.9c9.4,0,14.6,5,15.5,13.6
					C87.6-140.6,77.4-140.6,77.4-140.6z"/>
				<path class="st0" d="M150.7-153.3h10.4v11.8h9.8v-11.8h10.4v34.1H171v-13.3h-9.8v13.6h-10.4L150.7-153.3L150.7-153.3z"/>
				<path class="st0" d="M-115.7-58.6c10.4,0,17.4,7.5,17.4,17.9s-6.9,17.9-17.4,17.9s-17.4-7.4-17.4-17.9S-126.3-58.6-115.7-58.6z
					 M-115.7-31.6c2.7,0,6.8-1.6,6.8-9.4c0-7.6-4.2-9.4-6.8-9.4c-2.6,0-6.8,1.6-6.8,9.4S-118.5-31.6-115.7-31.6z"/>
				<path class="st0" d="M-33.8-57.8h10.4v25.3h15.1v8.7H-34v-34.1L-33.8-57.8L-33.8-57.8z"/>
				<path class="st0" d="M66.1-57.8h10.2l12.3,34.1H77.7l-1.5-4.9H65.6l-1.5,4.9H53.5L66.1-57.8z M74.4-35.9l-3.1-10.4l0,0L68-35.9
					H74.4z"/>
				<path class="st0" d="M161.2-35.4c0,0.8,0.2,1.6,0.4,2.3c0.8,2.1,3.1,2.6,5,2.6c1.6,0,4.4-0.7,4.4-3.1c0-1.6-1.5-2.3-7.2-4
					c-5.4-1.5-11.4-3-11.4-9.8c0-7.9,6.8-11.3,13.7-11.3c7.2,0,14,3,14.1,11h-9.9c0.2-1.2-0.4-2.1-1.2-2.7c-0.8-0.7-2.1-0.8-3.1-0.8
					c-1.5,0-3.8,0.4-3.8,2.3c0.2,2.6,5,3,9.8,4.4c4.9,1.2,9.5,3.5,9.5,9.8c0,9-8.1,11.7-15.9,11.7c-4,0-14.8-1.5-15.1-12.3
					C150.7-35.4,161.2-35.4,161.2-35.4z"/>
				<path class="st0" d="M-135.8,37.4h15l4.9,20.1l0,0l4.9-20.1h15v34.2h-10V49.7l0,0l-5.9,21.9h-7.9l-6.1-21.9l0,0v21.9h-9.9V37.4z
					"/>
				<path class="st0" d="M-35.3,37.4h28.1v8.7H-25v4.2h16.1v8.1h-16v4.2h18.2v9h-28.8C-35.3,71.7-35.3,37.4-35.3,37.4z"/>
				<path class="st0" d="M55.9,37.4h10.6l9.9,18.2l0,0V37.4h9.9v34.2h-10L65.8,53.1l0,0v18.6h-9.9V37.4z"/>
				<path class="st0" d="M175.6,68.1c-2.3,3-6.1,4.4-9.5,4.4c-9.9,0-16.3-7.9-16.3-17.5c0-12.9,9.1-18.2,17-18.2
					c8.7,0,14.1,4.9,15.6,12.7h-10.3c-0.4-2.6-2.6-4.2-5-4.2c-7.2,0-6.9,7.5-6.9,9.9c0,3.1,1.2,8.7,7.6,8.7c2.6,0,5-1.2,5.4-3.8
					h-4.5v-7.5h14v18.8H176L175.6,68.1z"/>
				<path class="st0" d="M-131.2,133h10.4v11.8h9.8V133h10.4v34H-111v-13.6h-9.8V167h-10.4V133z"/>
				<path class="st0" d="M-26.1,133h10.4v34h-10.4V133z"/>
				<path class="st0" d="M55.9,133h10.6l9.9,18.2l0,0V133h9.9v34h-10l-10.5-18.6l0,0V167h-9.9V133L55.9,133z"/>
				<path class="st0" d="M160.8,133h10.4v34h-10.4V133L160.8,133z"/>
			</g>
		</g>
	</g>
</g>
</svg>
