<svg id="Layer_1" data-name="Layer 1" xmlns="http://www.w3.org/2000/svg" viewBox="0 0 1020.9 125.33"><defs><style>.cls-1{fill:#fff;}</style></defs><title>Artboard 3</title><path class="cls-1" d="M301.56,74.12a.84.84,0,0,0-.14-.23c-.09-.08-.09-.17,0-.39s.09-.18,0-.33a2.07,2.07,0,0,1-.07-.29h0c-.69-1.07-2.1-3.28-3.49-5.48-1.71-2.71-3.17-4.93-3.26-4.93a10.83,10.83,0,0,0-1.36,1.87c-1,1.49-1.2,2-1.2,2.48,0,.82-.15,1.34-.38,1.34a.91.91,0,0,0-.47.33.91.91,0,0,1-.53.33c-.21,0-.94,1-1.48,1.95-.09.17-.71,1.13-1.36,2.14l-1.19,1.82L288.12,77c2.69,4.14,6.15,9.63,6.24,9.88h0c.05.14.14.25.21.25A18.06,18.06,0,0,0,296,85c1.16-1.85,1.34-2.23,1.34-2.84a2.35,2.35,0,0,1,.62-1.57A9.3,9.3,0,0,1,299.41,79a18.29,18.29,0,0,0,2.24-2.8.26.26,0,0,0-.07-.19.41.41,0,0,1-.09-.2.91.91,0,0,1,.12-.45.35.35,0,0,0,.07-.13.52.52,0,0,1,.06-.15,1.15,1.15,0,0,0,.08-.39l0-.27-.1-.07A.7.7,0,0,1,301.56,74.12Z"/><path class="cls-1" d="M97.4,10.3,97.16,10a3.25,3.25,0,0,0-.34-.43c-.07-.06,0-.26.17-1H65l0,.12a.94.94,0,0,0,.26.36c.19.16.22.22.18.37a5.12,5.12,0,0,0,0,.81c0,.52,0,.68.14.85l.13.21-.52.6,7.41,5.58V30.84l0,0c.13.11.15.15.14.27s0,.25.13.25a.64.64,0,0,1,.23.11c.13.09.16.12.14.21s0,.16.13.31.18.25.07.35-.11.15.13.33l.29.24a.59.59,0,0,0,.19.13l1,0,.49,0,.16.19a5.18,5.18,0,0,0,.38.4l.23.21v.28a1,1,0,0,0,.11.5,1.41,1.41,0,0,0,.59.62c.06,0,.11.05.11.08s-.11.11-.22,0a.38.38,0,0,0-.16-.08.18.18,0,0,1-.11,0,1.18,1.18,0,0,0-.23-.13.37.37,0,0,1-.22-.21,2.8,2.8,0,0,0-.68-.89c-.33-.31-.43-.35-.59-.23a.31.31,0,0,1-.15.06.72.72,0,0,0-.22.09.94.94,0,0,1-.48.09c-.32,0-.33,0-.37.13a.7.7,0,0,1-.53.3.41.41,0,0,0-.22.12l-.25.22-.07.06V55.23l-8.2-11.92c-.5-.29-.51-.29-.49,0s0,.38-.16.27a1.05,1.05,0,0,0-.38-.12l-.26,0-.1-.26a.92.92,0,0,0-.18-.32,1.87,1.87,0,0,1-.18-.64l-.1-.58-.42-.29c-.41-.29-.41-.3-.35-.46a1.31,1.31,0,0,0,.06-.43c0-.31.08-.36.31-.2s.21.13.22.08L41.47,9.95l-.1,0c-.35.1-.42.08-.59-.18a.75.75,0,0,0-.24-.24,5.45,5.45,0,0,0-.89,0,2,2,0,0,1-1-.12c-.17-.1-.23-.1-.48,0s-.3.11-.32.09a5,5,0,0,1-.56-1H10.45l11.67,8.88c.25.08.64-.57.65-.58a1.72,1.72,0,0,1,.33.28c.29.28.3.31.25.57a9.31,9.31,0,0,0,.79,3.94l.19.45-.18.17c-.21.19-.25.19-.47,0a1.88,1.88,0,0,0-.33-.25l-.17-.1-.23.39a7.86,7.86,0,0,1-.47.68.77.77,0,0,0-.24.56c0,.36,0,.37.39.64l.35.23,0,.42-.07.61c0,.17-.07.21-.39.34l-.32.14V80.46l.27.79.35,1,.32-.08c.17,0,.32-.06.33,0a1.61,1.61,0,0,1-.05.37,1.16,1.16,0,0,0,0,.68c.13.4.08.62-.16.69s-.15.18.07.36.13.15.11.18l-.51.64-.47.58.18.56.18.56-.25.39a3.37,3.37,0,0,1-.4.52v17.87h0l-.06.32a2.27,2.27,0,0,0,0,.39s.05,0,.1,0,.09,0,.1,0a.54.54,0,0,1-.06.19c-.08.17-.08.17-.24.25a.64.64,0,0,0-.18.1,1.29,1.29,0,0,0,0,.23,1.72,1.72,0,0,1,0,.73c0,.09,0,.1.08.21s.12.12.12.44,0,.42,0,.54,0,.27-.06.19a.3.3,0,0,0-.12-.05c-.09,0-.12-.05-.25-.25-.28-.41-.53-.48-.66-.18,0,.05-.05.1-.07.1a1.34,1.34,0,0,1-.17-.23c-.14-.21-.14-.23-.09-.28a1.27,1.27,0,0,0,.07-.68,1.26,1.26,0,0,0-.48-.06.14.14,0,0,0,0,.09.64.64,0,0,1-.2.42l-.21.2c-.12.13-.16.14-.41.12h-.61l-8.23,6.45H45.06l0,0,.16-.23a.92.92,0,0,0,.16-.33,1.86,1.86,0,0,1,.42-.51l.42-.41v-.51c0-.5,0-.51.18-.55a1,1,0,0,0,.21-.09l-8.37-6.49v-5s-.06,0-.11.11c-.15.25-.26.27-.49.09a1.33,1.33,0,0,1-.22-.2,2.22,2.22,0,0,1,.1-.49,2.39,2.39,0,0,0,.1-.57,1.82,1.82,0,0,1,0-.41c0-.24,0-.38-.22-.86l-.27-.57.17-.49a1.53,1.53,0,0,1,.23-.51s.1.08.14.19.2.22.35-.1.09-.28,0-.66a3.31,3.31,0,0,1-.12-1.37c0-.12-.06-.22-.23-.35l-.23-.18.46-1.25L38,91.77v-.89c0-1,.19-.92.08-1s0-.3,0-.41,0-.22.16-.58V70.73s-.07-.05-.08,0a1.31,1.31,0,0,0-.15.39c-.05.2-.12.35-.16.34a2.15,2.15,0,0,1-.26-.54,1.18,1.18,0,0,1-.11-.93,1,1,0,0,0-.15-1l-.18-.28.15-.32a8.45,8.45,0,0,0,.31-.84l.16-.52-.24-.09c-.3-.12-.37-.22-.31-.43a4.31,4.31,0,0,0,0-1.37,6.24,6.24,0,0,0-.24-1.28,2.64,2.64,0,0,1-.15-.61.37.37,0,0,1,.17-.16.66.66,0,0,0,.24-.24c.13-.24.2-.18.25.18s.07.32.21.34.2,0,.39-.31a1.34,1.34,0,0,0,.19-.34V48.91a2,2,0,0,1-.24-.55,2.52,2.52,0,0,0-.33-1l-.15-.28a2.23,2.23,0,0,0-.38-.52.51.51,0,0,1-.17-.4l0-.24.26-.23a2.62,2.62,0,0,0,.6-.82c.07-.15.21-.16.28,0a1.78,1.78,0,0,0,.13.23c.08.11.08.12,0,.28a.72.72,0,0,0-.11.22s.08.1.17.15l.17.1.17-.12c.21-.15.32-.3.32-.43s.1-.14.15-.06a1.13,1.13,0,0,0,.41.24.25.25,0,0,1,.13.08.26.26,0,0,0,.12.08.41.41,0,0,1,.15.08.43.43,0,0,0,.22.08c.14,0,.19.05.23.24s.16.26.53.54l.11.08-.13.27a2.38,2.38,0,0,0-.3.85c0,.22,0,.28-.17.28s-.19.12-.17.35.63.4.69.47,0,.3,0,.39a5.84,5.84,0,0,0,.07.64L53.75,68.29a.55.55,0,0,0,.27.18c.35.12.43.08.47-.23a.64.64,0,0,0-.07-.39c-.14-.18,0-.23.25-.1a1.16,1.16,0,0,0,.43.11.45.45,0,0,1,.48.36,3.65,3.65,0,0,0,.2.47,1.44,1.44,0,0,1,.09.9c0,.52,0,.64.09.77a2.09,2.09,0,0,1,.28.61c.13.44.15.46.58.82l.44.37.12.56c.11.52.13.57.38.77a1.4,1.4,0,0,1,.36.42,1.41,1.41,0,0,0,.32.4c.28.24.3.3.18.53a1,1,0,0,0-.09.26L84.33,112l.43.31.87.61.21-.25c.11-.14.23-.23.25-.22a1.62,1.62,0,0,1,.17.33,1.16,1.16,0,0,0,.43.52c.34.25.43.46.28.66s0,.23.26.25c.12,0,.19,0,.19.09s0,.41,0,.82l0,.75.47.35.44.32V58.76a.5.5,0,0,0-.06-.09c-.2-.19-.21-.26-.22-1.07s0-.72-.21-1a3.07,3.07,0,0,1-.24-.42c0-.12-.14-.12-.17,0s-.13.12-.16,0a5.67,5.67,0,0,1,.07-.88,12.15,12.15,0,0,0,.09-1.37v-.58l.26-.16a3.61,3.61,0,0,0,.66-.46V49.05L88,48.48c-.26-.64-.29-.69-.45-.71s-.32-.18-.2-.71a2.85,2.85,0,0,0,.09-.68c0-.24,0-.31.45-.65a1.06,1.06,0,0,0,.33-.33v-.5s-.08,0-.16,0-.17,0-.17-.1,0-.28,0-.47c-.07-.66-.07-.68.13-.8a.64.64,0,0,0,.23-.21.4.4,0,0,0,0-.08V17.38l9-6.78ZM45.8,41.69a2.32,2.32,0,0,1-.8-.28c-.19-.16-.37,0-.5-.1a2.59,2.59,0,0,0-.37-.2c-.24-.11-.27-.14-.34-.41a3.51,3.51,0,0,0-.41-.77c-.24-.35-.31-.5-.26-.53a.15.15,0,0,1,.13,0,.27.27,0,0,0,.2,0l.1-.06L31,16.58l5.26,5.86a9.64,9.64,0,0,1,2.85.94c.28.14.3.17.43.53s.09.32,0,.42-.07.16.17.53c.52.82.81,1.2.93,1.22s.12,0,0-.11-.1-.22.23-.17.34.1.67.46a4,4,0,0,1,.78,1.21.2.2,0,0,1-.06.24c-.15.13-.09.38.15.62s.22.26.19.43,0,.26.19.48a1.37,1.37,0,0,0,.28.28c.1,0,.08-.16,0-.31a.78.78,0,0,1-.14-.74c.08-.16.25-.27.23-.13a5.64,5.64,0,0,0,.17.71,12,12,0,0,1,.39,1.73l6,6.67L50,43.54ZM59.06,56.55l-5.45-2-.14-.16c-.14-.15-.15-.2-.1-.47a1,1,0,0,0,0-.54c-.12-.33.07-.43.08-.64,0-1.47.07-2.47.09-3.1l0-1.2,5.84,2.26Zm5.72,13a.39.39,0,0,0-.22.18.5.5,0,0,1-.2.25.39.39,0,0,1-.48-.24c-.08-.2-.34-.47-.9-.91-.39-.31-.41-.34-.51-.7a2.62,2.62,0,0,1-.09-.43s.13,0,.28,0,.35-.33.39-.34l-.26-5.87L68.22,64l.86,1.59.59.91.25,0c0,.14.46,0,.4.09s-.09.25.45.67c.22.17,0,.76.11.94s-.09.36.12.48c.66.37.3.39.35.72a1,1,0,0,0,.62,1l.4.23.86,1.4c.93,1.51.91,1.47.71,1.9-.11.24-.11.26.09.52a1.22,1.22,0,0,1,.27.73h0l.06.11c.09.06.25,0,.17.18a.27.27,0,0,0,0,.09l.06.1c.05,0,.13-.08.17-.33.08-.52.14-.63.22-.4,0,.08.18.41.34.72a25.1,25.1,0,0,1,1.82,4.7l4.52,8.32Z"/><path class="cls-1" d="M120.87,105.8l.08-.87c0-.53,0-.88,0-.88a.23.23,0,0,0-.18.14c-.14.28-.22.15-.3-.49s-.05-.67.07-.83.13-.35,0-1.05a13.16,13.16,0,0,1-.16-1.49,2.29,2.29,0,0,0-.2-.94l-.18-.3.35-.68a6.12,6.12,0,0,0,.47-1.31c.11-.58.16-.65.5-.81l.4-.19s.19-1.78.45-4.49V42.88l6.32-5.52s-.08-.15-.23-.26a1.59,1.59,0,0,1-.43-.58,1.46,1.46,0,0,0-.28-.47c-.17-.12-.11-.42.17-1l.23-.44H93.05l9.16,8.23v4.69l.33.8c.31.74.34.88.21,1.09a4.23,4.23,0,0,0-.16,1.41,4.76,4.76,0,0,1-.38,2V75.26l.2.27a1.23,1.23,0,0,1,.24.59,1.82,1.82,0,0,0,.12.56,1.47,1.47,0,0,1-.26,1.46l-.3.47v27.88l-9.16,8.23h6a2.3,2.3,0,0,0,.94-.19,8,8,0,0,1,1.63-.37l1.2-.17.55.27a7.13,7.13,0,0,0,.91.37,41.8,41.8,0,0,1,4.91.08h22.39l-9-7.82Z"/><path class="cls-1" d="M187.87,37a2.09,2.09,0,0,1,.07-.4,1,1,0,0,0,0-.38,2.9,2.9,0,0,0-.5-.18,1.43,1.43,0,0,0-.72-.07.77.77,0,0,1-.76-.3,2.92,2.92,0,0,0-.51-.33,3,3,0,0,1-.34-.21l-3.91,2.61s-6.11-5.18-20.19-5.18a32.48,32.48,0,0,0-9.4,1.33,8.19,8.19,0,0,1-1.09.69,3.65,3.65,0,0,1-1.82.72,4,4,0,0,1-1.15.17,29.66,29.66,0,0,0-13,12.7,1,1,0,0,1,.06.37,1.05,1.05,0,0,1-.14.79c-.19.35-.18.44,0,.31s.12-.05.21.15.08.24-.13.67a6.44,6.44,0,0,1-1.66,2.07,1,1,0,0,0-.48.7,2.87,2.87,0,0,0-.11.64c0,.35-.08.51-.44.83l-.32.28h0a61.92,61.92,0,0,0-3,19.93c0,18,6.23,32.41,18.07,38.63l.19-.09a.36.36,0,0,1,.43,0l.65.34a.9.9,0,0,0,.81.14,1.22,1.22,0,0,1,.86.1c.44.16.48.19.69.5a1,1,0,0,0,.62.49,1,1,0,0,0,.91,0,1.15,1.15,0,0,1,.55-.08,9.15,9.15,0,0,1,.49.9,33.1,33.1,0,0,0,8.13,1,43.22,43.22,0,0,0,17.65-3.52l.42-.52a2.91,2.91,0,0,0,.41-.57.35.35,0,0,0-.21,0,.29.29,0,0,1-.24,0s0-.18.44-.6l.5-.54.22.1a4,4,0,0,0,.81.17,3.58,3.58,0,0,1,.64.11.75.75,0,0,1,0,.33,1.43,1.43,0,0,0,0,.32l7.23,4.69V97.11l-.17,0c-.16,0-.34,0-.55-.21l-.32-.28.25-.82c.21-.68.22-.85.07-1s-.14-.21,0-.38a2,2,0,0,0,.68-.85V84a.93.93,0,0,0-.2-.3,2,2,0,0,1-.32-.54c-.09-.26-.09-.31.06-.72.09-.24.18-.5.22-.57a.62.62,0,0,0,0-.62,1,1,0,0,1-.1-.39,1.39,1.39,0,0,0-.18-.5h0c-5.64,15.3-14.95,27.34-24.88,27.34-8.18,0-13.68-8.84-14.89-25.88l-.38-.93-.61-.79a2.79,2.79,0,0,1-.73-1.45c-.07-.36-.16-.81-.21-1a.5.5,0,0,1,.12-.56.75.75,0,0,0,.2-.43,7.85,7.85,0,0,1,.17-1,3.84,3.84,0,0,0,.1-1.15,7.55,7.55,0,0,1,.27-2.91,2.21,2.21,0,0,0,.19-1.07l0-.48.8-1.09c1-17.1,6.55-26.84,15-26.84a12.34,12.34,0,0,1,3.71.59l.45-.12,1-.26.51.37a1.6,1.6,0,0,1,.71,1l.07.19c7.52,4,14,14.35,18.93,23.62V58.79a1,1,0,0,0-.37-.54,1.12,1.12,0,0,0-.33-.2c-.1,0-.1-.25,0-.87a9.58,9.58,0,0,0,.1-1.16,3.53,3.53,0,0,1,.14-1l.13-.41-.14-.24a2,2,0,0,1,0-1.52,2.45,2.45,0,0,0-.21-2l-.41-1.08-.12-.33L188,49l.43-.47a1.44,1.44,0,0,0,.34-.17V37.06C188,37.06,187.88,37,187.87,37Z"/><path class="cls-1" d="M256.13,86.12H256c-.56,0-.59,0-.69-.49a2.72,2.72,0,0,1-.08-.51,1.76,1.76,0,0,0-.1-.43,2.27,2.27,0,0,1-.09-.7.64.64,0,0,0,0-.37c-.06,0-.1,0-.26.23,0,.06-.09,0-.21-.12l-.18-.21a4.23,4.23,0,0,1,.83-1l.33-.28.12-.7c.09-.56.1-.74,0-.91s-.08-.22.07-.44a1.8,1.8,0,0,0,.38-.92V42.88l9.43-8.23H232.65l-.45.19a9.06,9.06,0,0,1-.87.31c-.59.16-.65.2-.76.43-.2.41-.2.54,0,.66a2.77,2.77,0,0,1,.27.32l7.08,6.27s0,0,.08-.06.12-.12.34.29.19.37.1.66a2.49,2.49,0,0,1-.31.61,1.08,1.08,0,0,0-.16.27V68.91h-3.09l-.28.31a4.08,4.08,0,0,1-.6.54,1.85,1.85,0,0,0-.34.28h0c-.26.43-.44.41-.3,0,.08-.25.07-.27-.22-.7l-.26-.39H216.43V52.48l-.15.15c-.22.22-.35.21-.23,0a1.57,1.57,0,0,0,.07-.51c0-.32,0-.41-.16-.56-.36-.38-.53-.82-.39-1a1.1,1.1,0,0,1,.22-.18,1.14,1.14,0,0,0,.29-.28c.09-.14.1-.19,0-.31a1.28,1.28,0,0,1-.12-.43c0-.26-.05-.29-.2-.29h-.16l0-.59c0-.56,0-.6-.15-.82s-.19-.3,0-.89a2.2,2.2,0,0,0,.14-.56c0-.28.09-.24.31.15a2.66,2.66,0,0,0,.36.5l.1.1V42.88l7.4-6.37a.91.91,0,0,1-.26,0,.24.24,0,0,1,.12-.08c.17-.06.13-.26-.06-.3s-.19-.09-.26-.33a.86.86,0,0,0-.15-.32.54.54,0,0,0-.26.06.52.52,0,0,1-.27.05,1.29,1.29,0,0,1-.2-.41,1,1,0,0,0-.24-.43l-.07-.05H194.53a5.54,5.54,0,0,1-.51.51,1.56,1.56,0,0,0-.36.13c-.36.16-.83.18-.83,0a.51.51,0,0,0-.14-.26c-.13-.14-.18-.15-1.07-.15a3.43,3.43,0,0,0-.92.06s.09.12.2.2l.2.14-.3.35a2,2,0,0,0-.23.32L196,40.82l.14-.14c.08-.08.17-.13.2-.11a1.52,1.52,0,0,1,.15.41l.08.33,1.76,1.56V58.7l.19.2a2,2,0,0,1,.29.35,1.75,1.75,0,0,1-.14.51c-.15.39-.15.45,0,.65s.1.25-.12.74c-.07.15-.13.3-.17.41v26.8l.17.32c.06.12.11.14.25.1a.82.82,0,0,0,.25-.1c.14-.11.21,0,.21.37s-.14.61-.38.61a.22.22,0,0,0-.17.07,7.14,7.14,0,0,0,0,1.11,4.49,4.49,0,0,1,0,1.55l-.1.5.16.23a1.61,1.61,0,0,1,.2.38c.06.22.17.18.29-.11s.13-.26.17-.26a5.33,5.33,0,0,1,.1,1.11c0,.94,0,1.12-.05,1.21s-.11.08-.18,0-.17-.09-.22.13a6.14,6.14,0,0,1-.43,1.2c-.2.44-.2.58,0,.83a.86.86,0,0,1,.16.57c0,.41,0,.42-.23.7a2.34,2.34,0,0,0-.26.34v7.24l-9.3,8.23h32.74a1.18,1.18,0,0,1-.28-.22l-.26-.26v-.76a2,2,0,0,0-.13-1c-.12-.23-.12-.26,0-.42s.23-.25.32,0l.08.18,0-.23a1,1,0,0,1,.35-.64l.08-.07-5.56-4.79V99.26a1,1,0,0,0-.23-.46c-.27-.38-.28-.42-.13-.59a2,2,0,0,0,.24-.38,1,1,0,0,0,.12-.38V86.31l-.08-.09a2.35,2.35,0,0,1-.49-1.22c0-.32-.13-.37-.19-.09a.27.27,0,0,1-.1.17c-.07,0-.48-.44-.48-.55a.59.59,0,0,1,.17-.21,1.41,1.41,0,0,0,.41-.8,1.56,1.56,0,0,1,.2-.52l.2-.36-.19-.27a7,7,0,0,1-.38-.64l-.19-.37.16-.17.16-.17.17.21c.21.25.38.22.38-.08a.79.79,0,0,1,.17-.43l.07-.1v-2.3h21.5l.16-.15c.22-.22.35-.21.23,0a1.57,1.57,0,0,0-.07.51c0,.32,0,.41.16.56.36.38.53.82.39,1a1.09,1.09,0,0,1-.22.18,1.13,1.13,0,0,0-.29.28c-.09.14-.1.19,0,.31a1.27,1.27,0,0,1,.12.43c0,.26.05.29.2.29h.16l0,.59c0,.56,0,.6.15.82s.19.3,0,.89a2.2,2.2,0,0,0-.14.56c0,.28-.09.24-.31-.14A2.65,2.65,0,0,0,238,84l-.09-.09v16.68c0,.14,0,.17.08.18s.19-.07.31-.19.25-.2.35-.14a.4.4,0,0,1,.24.4,1.34,1.34,0,0,0,.13.45c.19.39,0,.36-.2,0s-.38-.46-.5-.2a.32.32,0,0,1-.26.2c-.1,0-.14,0-.16.1v5.13l-9.3,8.23h20.47l.19-.2a.76.76,0,0,1,.32-.23,1.64,1.64,0,0,1,.71.35s.08.06.19.07h2.27l.13,0a.24.24,0,0,0-.07-.12c-.17-.17,0-.22.77-.2l.76,0,.4-.25.4-.25.3.18.43.26a.24.24,0,0,1,.12.24v.14h9.53l-9.43-8.23Z"/><path class="cls-1" d="M329.57,77l-.41-.81c-.16-.31-.16-.33-.07-.58a2.33,2.33,0,0,0,.09-.76c0-.34,0-.5.07-.5a.15.15,0,0,1,.12.06.11.11,0,0,0,.13,0c.1,0,.12-.32,0-.37a2.21,2.21,0,0,1-.32-1.25c0-.56-.1-.77-.31-.77a.34.34,0,0,1-.19-.1c-.1-.09-.07-.14.26-.54s.53-.63.59-.91C328.28,52.27,318.81,38.42,304.64,34c-1.26.36-2,.58-2.06.57a.44.44,0,0,1-.18-.18c-.08-.13-.14-.15-.37-.12s-.29,0-.47-.22a4.9,4.9,0,0,1-.58-1l-.28-.05a.53.53,0,0,0-.16.17.86.86,0,0,1-.32.28c-.17.08-.2.13-.17.24s0,.19-.38,0l-.3-.13-.24-.82a35,35,0,0,0-4.49-.3c-12.53,0-22.58,6.26-28.68,16.46l0,.18a5,5,0,0,0,.32,1c.07.11.08.3,0,.29l-.11,0-.08,0,.08.19a1.61,1.61,0,0,1,.09.25c0,.06,0,.07.28.13l.43.11a1.48,1.48,0,0,0,.51.06h.25l.13.12c.07.06.13.13.12.15a.56.56,0,0,1-.23,0h-.22l0,.11a.61.61,0,0,0,0,.25,1.89,1.89,0,0,1,.07.33,1.21,1.21,0,0,0,.13.37,5.25,5.25,0,0,0,.69.83c.1.1.12.15.12.25q0,.48-.15.07a1.43,1.43,0,0,0-.83-.84.43.43,0,0,1-.22-.19,1.63,1.63,0,0,0-1.44-.59h-.28l-.12-.13a2.08,2.08,0,0,0-.27-.23l-.15-.1.18-.09a.34.34,0,0,1,.37,0c.24.07.26,0,0-.14a1.6,1.6,0,0,1-.28-.32,1.08,1.08,0,0,0-.17-.22l-.14.05-.25.1-.15.07a51.28,51.28,0,0,0-5.31,23.59,51.18,51.18,0,0,0,4.89,22.62l.24.2c.16-.07.17-.06.37.25l.28.44a2,2,0,0,0,.5.32l.43.21,0,.19c0,.2.08.38.41.6a2.68,2.68,0,0,1,.55.74,2.93,2.93,0,0,0,.44.63s.09-.1.11-.21c.06-.29.12-.3.26-.06s.12.23-.08.52l-.21.31.52.93a5.06,5.06,0,0,1,.59,1.28c.07.33.08.36.28.49s.29.3.14.66a32.25,32.25,0,0,0,25.51,11.86,33.53,33.53,0,0,0,11-1.81,15.41,15.41,0,0,1,1.86-2.21,2.39,2.39,0,0,1,.77.12c.57.16.66.15,1-.09a3.32,3.32,0,0,1,1-.43,9.09,9.09,0,0,0,1-.28c.26-.11.26-.11.07-.35s-.16-.63.32-1.23a6.1,6.1,0,0,0,.56-.84c.15-.3.33-.42,1-.65a18.18,18.18,0,0,1,3.47-.7c7.68-7,12.4-18,12.92-31.11Zm-19.35,4.53-.28.58-.38,2.09c-1,12.71-4.33,19.8-9.55,22.43l0,.15a1.32,1.32,0,0,1-.22.55c-.19.26-.16.43.07.47s.13.13-.08.28-.24.12-.55.08a1.7,1.7,0,0,0-.67,0,1.43,1.43,0,0,1-.42.07c-.16,0-.13-.22.07-.4a.78.78,0,0,0,.16-.18,2.05,2.05,0,0,0-.54-.12l-.26,0a12.91,12.91,0,0,1-2.89.32c-10,0-15.4-9.69-15.4-33.33,0-4.08.17-7.73.49-11a1,1,0,0,1-.49-.8,2.38,2.38,0,0,0-.22-.82,3.09,3.09,0,0,1-.25-.77c0-.18-.1-.32-.21-.34-.26-.05-.21-.22.2-.67a3.62,3.62,0,0,0,.49-.68c.07-.14.15-.26.18-.26a2.09,2.09,0,0,1,.42.37,3.23,3.23,0,0,0,.32.29c2-13,6.91-18.54,14.46-18.54,8.75,0,14,7.69,15.07,25.94v0q.1,1.7.15,3.53c.21,1.78.54.33.28,1.92-.1.63.22.81.15,1.64a4.9,4.9,0,0,1-.22,1.21,8.16,8.16,0,0,0-.19,1.93c-.05,1.55,0,1.68.13,1.71s.48.78.48,1.36A2.82,2.82,0,0,1,310.22,81.51Z"/><path class="cls-1" d="M491.91,85c0,.17-.06.29-.11.26a1.77,1.77,0,0,1-.2-.23.74.74,0,0,0-.27-.24c-.14-.05-.17-.1-.22-.29a.25.25,0,0,0-.17-.22c-.23-.12-.22-.06-.2-1.13l0-1,.11-.15.09-.15c-2.14-5.19-5.84-8.87-10.2-11.86-1.32-.07-2.8,0-3.57-.61a14,14,0,0,0-1.72-1.27.27.27,0,0,0,0,.16c0,.12,0,.18-.2.42L475,69l-.56,0a10.73,10.73,0,0,0-2,.24l-.24.05-.28-.15a1.36,1.36,0,0,0-.37-.15c-.08,0-.09,0-.13-.15a2,2,0,0,0-.15-.37c-.11-.2-.11-.22-.06-.27s.06,0,.13,0l.11.05.23.13.2.13,0-.07a.23.23,0,0,0,0-.26.46.46,0,0,1,0-.23v-.17h-.11c-.15,0-.26-.1-.38-.35a2.26,2.26,0,0,0-.17-.31.22.22,0,0,1-.06-.2c0-.09,0-.12-.24-.38l-.29-.31s0,0-.08,0-.06.06-.14-.2a2.33,2.33,0,0,0-.18-.39c-.12-.2-.12-.25,0-.36s.08-.08.08-.09a12.06,12.06,0,0,0-1.49-1.85c-7-3.65-12.7-7.45-12.7-13.09s4.12-8.5,11.42-8.5c6.47,0,13,3.24,17.81,12.26a.85.85,0,0,1,1,.25l.15.18.13-.09a1.4,1.4,0,0,0,.25-.22.46.46,0,0,1,.37-.19s.06,0,.07,0,0-.49,0-1,0-1,.05-1.1,0-.1-.05-.13a1.37,1.37,0,0,1-.28-.34,3.12,3.12,0,0,0-.3-.39l-.17-.17c-.08-.09-.08-.09,0-.15a1.57,1.57,0,0,0,.37-.48l.06-.12.21.07a.69.69,0,0,0,.22.06s0-.42.06-.92S487,48,487,47.84s.12-.75.13-1.12.56-.66.57-1l0-.59-.3-.24a1.24,1.24,0,0,0-.5-.3l-.2-.07s0,0,.07-.09a3.35,3.35,0,0,0,.4-1c0-.2.09-.3.14-.33a1,1,0,0,0,.17-.18.35.35,0,0,0,.07-.33.92.92,0,0,0,0-.24,1.11,1.11,0,0,0-.22-.15,2.83,2.83,0,0,1-.63-.52s0-.08,0-.12a4.24,4.24,0,0,1,1.06-.49s.31-.51.32-.44.14-.85.14-.85c.23,0,0-.91,0-1.16,0,.09.14-.56.15-.56V33.48l-.06,0a.34.34,0,0,0-.2,0c-.12,0-.13,0-.19-.13a.58.58,0,0,0-.16-.2l-.07,0-5.56,4a27.39,27.39,0,0,0-14.71-4.37l0,0-.46.19c-.12,0-.16.07-.33.34a2.73,2.73,0,0,1-.35.44.47.47,0,0,0-.2.36,1.53,1.53,0,0,0,0,.77.65.65,0,0,1,0,.19,1.36,1.36,0,0,1-.34-.11s-.06,0-.1.07-.07.09-.2.11-.31.13-.46.43-.49.64-.58.6a1.62,1.62,0,0,0-.34,0c-.25,0-.3,0-.42.07a.5.5,0,0,1-.37.06.53.53,0,0,1-.23,0s0-.05.09-.08l.23-.16c.12-.09.15-.1.22-.07s.37,0,.62-.22.2-.26.1-.36,0-.07.13-.23a1,1,0,0,0,.18-.21s.06-.06.14-.1.18-.12.3-.39c0,0,0,0-.05,0s-.16,0-.16-.26a.59.59,0,0,1,0-.22l.08.05c.06.06.14,0,.11,0a.65.65,0,0,1,0-.22l0-.17L465,33.2a2.27,2.27,0,0,1-.28-.51c-8.56.4-15.63,3.75-19.63,9.65h.06a1.19,1.19,0,0,1,.1.22c.1.25.16.32.28.31a.33.33,0,0,1,.37.39,1.12,1.12,0,0,0,0,.3c.07.32.07.31-.06.39a1,1,0,0,1-.24.09c-.1,0-.14.05-.27.23l-.38.58a2.25,2.25,0,0,1-.25.36.33.33,0,0,1,0-.12,1.51,1.51,0,0,0-.11-.27c-.07-.14-.08-.2-.05-.48a1.31,1.31,0,0,1,.1-.44c.06-.1.06-.12,0-.15a.22.22,0,0,1-.09-.16l0-.12-.17.09a22.31,22.31,0,0,0-2.8,11.26,23.24,23.24,0,0,0,2.33,10.56h0a.34.34,0,0,0,.2,0c.1-.06.12-.05.23,0a.57.57,0,0,0,.23.11l.11,0,0,.19a6.07,6.07,0,0,0,.2,1.39c3.68,5.94,9.95,9.59,16.11,12.84l.44.23h.17l0-.17a.85.85,0,0,1,0-.18,6.17,6.17,0,0,1,1.19.31.28.28,0,0,0,.22,0,2.06,2.06,0,0,1,1.21.15l.35.11.1.15a2.46,2.46,0,0,0,.28.33,1.29,1.29,0,0,1,.19.21s-.08,0-.19.06a.9.9,0,0,0-.26.06c-.05,0-.08,0-.16,0l-.13-.12s0,0-.05,0a.51.51,0,0,0,.09.2l.11.17.52.29a3.16,3.16,0,0,1,.66.43l.14.14.3.06c.28.05.39.1.35.16a2.08,2.08,0,0,0,.1.36l.06.18c5.94,3.48,10.33,7.15,10.54,12.68a6.38,6.38,0,0,1,.16,1.64l0,.94.1.1c.09.09.1.12.1.32a1.42,1.42,0,0,0,.12.66.21.21,0,0,0,.14.06c.09,0,.09,0,.09.17a1,1,0,0,0,.36.7,1,1,0,0,0,.58.35c.07,0,.1,0,.18.17a3.06,3.06,0,0,0,.24.35c.15.19.18.24.1.24a.56.56,0,0,1-.39-.25.81.81,0,0,0-.5-.32l-.21,0c-.12,0-.15,0-.33,0a.39.39,0,0,1-.3-.25c-.14-.26-.16-.27-.21-.13a3.1,3.1,0,0,1-.16.36.81.81,0,0,0-.12.37,3.6,3.6,0,0,1,0,.37c0,.13-.86.14-.89.4s-.45.23-.81.29A12.36,12.36,0,0,1,465,107.42c-5,0-9.54-2.51-14.23-8.35l0,.28-.09.07c-.07.06-.08.09-.06.19a.28.28,0,0,0,.31.22c.07,0,.09,0,.18.17a.73.73,0,0,1,.08.2l-.2.08-.29.11c-.1,0-.1,0-.35-.17a2.92,2.92,0,0,1-.36-.34c-.12-.16-.23-.17-.3,0a1.46,1.46,0,0,1-.29.28.79.79,0,0,0-.29.33c-.11.29-.12.3-.27.32l-.23.06c-.05,0-.1,0-.11,0a2.16,2.16,0,0,1,.43-.61l.08,0v-.45c0-.51,0-.53.21-.59a.43.43,0,0,0,.16-.06s-.06-.1-.15-.2a1.82,1.82,0,0,1-.25-.32l-.08-.15.09-.18a.36.36,0,0,0,.06-.32c0-.12,0-.14-.13-.14a1.15,1.15,0,0,1-.29-.09l-.19-.08.09-.08a1,1,0,0,1,.56-.26.28.28,0,0,0,.24-.1A82.46,82.46,0,0,1,443,86.66c-.08,0-.1.08-.13.19a.41.41,0,0,1-.11.19.91.91,0,0,1-.44.16.35.35,0,0,0-.15,0l-.16,0a1.15,1.15,0,0,0-.36.16l-.23.14v.12a.7.7,0,0,1-.09.28.84.84,0,0,0-.1.25c0,.12-.09.17-.33.21s-.2,0-.29.16l-.17.2.05,14.57c.1.23.18.82.38.82s.07.29,0,.29a5.63,5.63,0,0,0,.2.54s.19.43,0,.4.46,1.07.34,1c-.36-.15-.33-.15-.55.06s-.2.21-.21.34a1,1,0,0,1-.08.27,2.19,2.19,0,0,0-.13.38v.07h0a1.3,1.3,0,0,1-.09.27,1,1,0,0,0,0,.71l.07.19-.09.15a.56.56,0,0,1-.13.16s-.06-.06-.09-.16a.93.93,0,0,0-.12-.26.93.93,0,0,1-.12-.25c-.07-.24-.12-.3-.29-.36a4.33,4.33,0,0,1-.77-.43,1.75,1.75,0,0,0-.83-.36h-.31a.36.36,0,0,0-.19,0s-.11,0-.11,0,.24-.25.53-.53c.48-.46.54-.5.64-.5a.31.31,0,0,1,.18.05c.08.08.09,0,.06-.15a2.06,2.06,0,0,1,0-.32,1.51,1.51,0,0,0-.06-.36,3.18,3.18,0,0,1-.17-1.35v-.73l.09-.13a.47.47,0,0,0,0-.08,1.34,1.34,0,0,0,0-.39v0a1.47,1.47,0,0,0-.2-.26l0,0a.41.41,0,0,0-.15-.08l-3.93-15.73a.76.76,0,0,0-.38.14s-.08,0-.34-.24a4,4,0,0,0-.46-.41c-.14-.09-.18-.14-.19-.22a.34.34,0,0,0-.08-.16.46.46,0,0,1,0-.42c.06-.16,0-.22-.29-.4a1.18,1.18,0,0,1-.39-.31c-.08-.11-.11-.14-.17-.12s-.08,0-.12-.06-.06-.21.12-.4l.35-.38.18-.2,0,.12c0,.11.15.19.23.16a.05.05,0,0,1,.06,0s.37-.3.37-.37a.12.12,0,0,0,0-.08.51.51,0,0,1,0-.41,2.26,2.26,0,0,0,.06-.41v-.09L431.29,74a.88.88,0,0,0-.32-.18,5.66,5.66,0,0,1-.86,0c-.14,0-.28.14-.36.36l-.06.17-.41.1a1.05,1.05,0,0,1-.88,0c-.14,0-.23,0-.51.17s-.46.25-.42.2l.24-.25.37-.39a1.07,1.07,0,0,1,.34-.24l.19-.08.19.13c.21.14.28.15.44.08a2.7,2.7,0,0,0,.8-.74s.05,0,.1,0l.11,0a1.74,1.74,0,0,0,.05-.32,2,2,0,0,1,.16-.6,2.11,2.11,0,0,0,.13-.38s0-.2,0-.36,0-.08,0-.12L422.8,40l-.1-.1a2.13,2.13,0,0,1-.28-.35l-.1-.16-.21,0a2.39,2.39,0,0,0-.39.07l-.18.05-.17-.16-.25-.23c-.07-.06-.08-.07,0-.12a1.73,1.73,0,0,0,.25-.48.23.23,0,0,1,.1-.15s.05,0,0-.06a5.9,5.9,0,0,1-.09-.67c0-.11,0-.13-.09-.14s-.08,0-.1-.27,0-.37-.06-.52a1.07,1.07,0,0,1,0-.3.38.38,0,0,1,.13-.08c.09,0,.11-.06.09-.12a2.13,2.13,0,0,1,0-.37v-.3l-.11-.08-.23-.16c-.13-.09-.26-.31-.23-.39s0-.09-.08-.16l-.09-.09H397.2l-.06.12c-.14.27-.23.36-.32.34a.11.11,0,0,0-.11,0s0,.07,0,.17l.08.14,0,.32c0,.26,0,.3.1.29s.07,0,.09.09a.18.18,0,0,0,.08.1l.08,0c.11,0,.12,0,.11.1a.84.84,0,0,1-.17.21l0,0a.49.49,0,0,0-.15.28c-.06.3,0,.4.08.5l0,0c.11.1.11.22,0,.44h0a1.16,1.16,0,0,0-.13.29.21.21,0,0,0,0,.09l.1.09,5.2,4.54L389.36,86.55l0,0a.67.67,0,0,1,.16-.12.55.55,0,0,0,.15-.2c.07-.14.12-.19.2-.22l.11,0,.08.11.07.11,0,.72c0,.4,0,.9,0,1.11v.39l-.21.35a3,3,0,0,0-.25.48c0,.13,0,.13-.18.15-.55.07-.58.08-.67.23s-.2.3-.35.5a3.77,3.77,0,0,0-.22.32L383.92,105l0,0a3.89,3.89,0,0,1,.27.84c0,.1,0,.15-.1.32s-.13.21-.26.26a.72.72,0,0,0-.35.24,1.58,1.58,0,0,0-.06.3c0,.14-.56.13-.57.15s.07.23-.46.3l-.15,0-3.41,2.82v-6.59l-.07.06c-.07.08-.11.06-.11-.05a1.64,1.64,0,0,0-.21-.59c-.08-.13-.08-.13,0-.29s0-.17,0-.26-.07-.15-.08-.52a3.3,3.3,0,0,0,0-.46,1,1,0,0,0-.21-.13c-.1-.05-.19-.11-.19-.14a1.08,1.08,0,0,1,.44-.28c.09,0,.14-.08.12-.21s0-.17.1-.36.13-.24.21-.25h.08V90.48a.34.34,0,0,1,0-.13c0-.08,0-.12-.42-.44l-.45-.39c-.19-.17-.32-.23-.39-.18a4.51,4.51,0,0,1-.94.29.87.87,0,0,1,.13-.2,1.46,1.46,0,0,0,.18-.29A.16.16,0,0,1,377,89l.19-.08a.72.72,0,0,1,.25-.08.93.93,0,0,0,.44-.21c.26-.18.3-.22.35-.36l.11-.26c.06-.13.06-.12-.05-.17s-.1-.05-.08-.13a2.38,2.38,0,0,0-.18-.82,1.39,1.39,0,0,1-.09-.65,3.36,3.36,0,0,1,0-.53l.14-.1.12-.07,0-.49c0-.27,0-.59,0-.71s0-.23-.09-.35a.67.67,0,0,1-.22-.46.73.73,0,0,0,0-.21,7.49,7.49,0,0,1-.06-1.51.88.88,0,0,1,.07-.3l.2,0,.32-.07.24-.06a.23.23,0,0,0,.14-.13V78.08l-.11-.23c-.08-.16-.14-.31-.14-.32a1.83,1.83,0,0,0-.1-.22.65.65,0,0,0-.22-.28,5.68,5.68,0,0,1-.55-.39c-.08-.07-.16-.11-.17-.1a1.06,1.06,0,0,0,.18.42.45.45,0,0,1,0,.43c0,.11-.08.17-.26.32a1,1,0,0,0-.22.22.14.14,0,0,1-.05.08c-.08.07-.14.24-.2.6a.85.85,0,0,1-.24.58c-.16.2-.42.5-.69.8a4.28,4.28,0,0,1-.57.46s-.1,0-.22-.09l-.16-.12-.06.15-.06.17,0,.12-.22.32-10,25.49h-8l-.09.09c-.1.1-.12.11-.29.11a1.17,1.17,0,0,1-.27,0l-.18,0c-.06,0-.09,0-.09,0s0-.06-.22-.06-.23,0-.26.07a2,2,0,0,1-.17.18.89.89,0,0,0-.17.24.12.12,0,0,1-.12.11l-.42.07-.43.06a.38.38,0,0,0-.22.09,3.45,3.45,0,0,1-.66.46c-.19.08-.21.08-.38-.06a1.24,1.24,0,0,0-.46-.26.25.25,0,0,0-.12.08c-.09.09-.16.1-.3,0s-.3-.24-.21-.32,0-.19-.18-.35l-.18-.15v-.25a.58.58,0,0,1,.19-.51c.08-.09.08-.09.06-.52l0-.43.27,0a.65.65,0,0,1,.42,0l.16.06v-.38a1.5,1.5,0,0,1,.08-.69c.16-.5.22-.79.17-.85a.13.13,0,0,0-.08,0l-.23-.09-.19-.09,0-.31c0-.21,0-.31.06-.33a2.53,2.53,0,0,0,.54-.47l.08-.12V67.08c-.15-.2-.24-.27-.34-.25a.28.28,0,0,0-.15.1l-.05.08-.07-.12a.46.46,0,0,0-.16-.17.37.37,0,0,1-.15-.18,1.08,1.08,0,0,0-.2-.27c-.12-.12-.15-.13-.24-.12a.49.49,0,0,0-.2.1.3.3,0,0,1-.24.08.37.37,0,0,0-.24.07c-.11.08-.12.06-.05-.06a.66.66,0,0,0,0-.49,1.28,1.28,0,0,0-.16-.22,1.12,1.12,0,0,1-.28-.54l0-.14.09.1a2.16,2.16,0,0,0,.63.45c.17.05.18.06.31.27a.85.85,0,0,0,.73.41c.09,0,.14,0,.23-.13a1.45,1.45,0,0,0,.18-.26c.12-.23.13-.24.23-.08s.11.15.15.15h0V46.92a1.63,1.63,0,0,1-.27-.27,1.42,1.42,0,0,1-.17-.29c0-.06-.06-.05-.1,0s-.08.08-.16,0a.23.23,0,0,1-.06-.17.27.27,0,0,0,0-.15s0-.16.19-.22.23-.21.23-.48,0-.24.08-.31.11-.23,0-.27-.07-.09-.08-.22a.91.91,0,0,1,0-.57,2,2,0,0,0,.09-.46l0-.27,0,.14c.07.26.09.3.13.31s0,0,0-.07v-.78l.93-.8a1.91,1.91,0,0,1,.1-.24.71.71,0,0,0,.09-.21,1.51,1.51,0,0,0-.3.13.77.77,0,0,1-.28.11.48.48,0,0,1,0-.13c0-.09,0-.11,0-.21l-.12-.17c0-.05-.07-.06-.29,0a.65.65,0,0,0-.37.11,2.55,2.55,0,0,1-.6.37c-.1,0-.08,0,.1-.19a1.57,1.57,0,0,0,.24-.28c.08-.13.08-.13,0-.34s-.06-.22-.15-.23-.1,0-.15-.15a.33.33,0,0,1,0-.16l.12,0a.3.3,0,0,0,.13,0,1.35,1.35,0,0,0,.08-.27,1.52,1.52,0,0,1,.09-.31c.06-.1,0-.14-.08-.2s-.13-.1-.2-.27a.63.63,0,0,0-.22-.32c-.2-.16-.14-.18.1,0a.53.53,0,0,0,.66,0,.8.8,0,0,0,.24-.18.15.15,0,0,1,.12-.07c.06,0,.11,0,.17-.14a.35.35,0,0,1,.17-.16.18.18,0,0,0,.12-.24c0-.08,0-.09,0-.1s.16-.11.18-.24l0-.11.09.13a1.2,1.2,0,0,0,.23.22,1,1,0,0,1,.21.22c.06.09.09.11.14.1l.24-.06a1.16,1.16,0,0,0,.27-.1,1.19,1.19,0,0,1,.34-.09c.26,0,.34,0,.34.12a.24.24,0,0,0,.06.14c.11.11.31,0,.62-.23a.8.8,0,0,1,.41-.2l.34-.09c.07,0,.09,0,.08,0a1.47,1.47,0,0,1-.37.2,1.31,1.31,0,0,0-.67.44,2.3,2.3,0,0,1-1.07.62c-.26.05-.26.05-.22.13l.08.22,0,.14.06-.15c.06-.17.17-.23.23-.13a1.12,1.12,0,0,1,0,.37c0,.17,0,.35,0,.39s.05.28.08.28l.22-.1a2.8,2.8,0,0,1,.38-.14l4-3.46s0-.06,0-.06a.33.33,0,0,1-.15-.08.52.52,0,0,0-.18-.1l-.16,0-.07,0,.07-.14a1.48,1.48,0,0,0,.06-.79c0-.06,0-.09,0-.21a.47.47,0,0,1,.11-.14.65.65,0,0,0,.13-.25s0,0-.1-.08-.1-.08-.1-.1,0-.06-.07-.08H342.76l-.06,0a3.2,3.2,0,0,1-.94.5,5.63,5.63,0,0,0-.85,0l-.56,0-.23-.1a1.85,1.85,0,0,1-.68-.38l-.11-.1H327.14v0a.24.24,0,0,0,.07.24c.05.06-.07.19-.07.23s0,.21-.06.3,0,.23,0,.25-.11.19-.14.25.21.11.2.28l0,.23-.1.13a.7.7,0,0,1,.17.24c0,.09-.05.27,0,.3s.24.1.13.31-.09.18,0,.33,0,.12.05.18l3,2.63.32-.13c.16-.05.17-.05.23,0s.17.07.3,0a.45.45,0,0,1,.15-.06,2.47,2.47,0,0,0,.4-.34c.35-.33.36-.34.31-.42a.27.27,0,0,1,.08-.38.62.62,0,0,0,.15-.19.57.57,0,0,1,.08-.15,1.3,1.3,0,0,0,.13-.3,2.24,2.24,0,0,1,.13-.35.3.3,0,0,0,0-.28,2.13,2.13,0,0,1,0-.37.4.4,0,0,0-.13-.36c-.15-.18-.19-.2-.36-.16a.25.25,0,0,1-.14,0,.52.52,0,0,1,.09-.3s.11.06.21.16a1.66,1.66,0,0,0,.41.29,1,1,0,0,1,.24.14,1,1,0,0,1-.08.17.61.61,0,0,0-.08.33c0,.21.06.35.29.66s.18.2,0,.58a1.22,1.22,0,0,0-.12.49l0,.27-.18.06c-.22.07-.22.07-.22,0s0-.06,0-.06,0,0,0,0a2.8,2.8,0,0,1-.29.34c-.29.31-.29.31-.24.39s0,.17-.09.25-.08.05,0,.19a.89.89,0,0,1,0,.37.7.7,0,0,0,.13.52l0,.07.39.34.1.09.54.47V80.59h0a1,1,0,0,1,.58-.22c.21,0,.22,0,.29-.14s.28-.25.37-.1a1.18,1.18,0,0,0,.5.42c.08,0,.13.05.13.08s-.29.35-.46.44a1.32,1.32,0,0,1-.28.1c-.14,0-.15.05,0,.12s.08.09.1.22a1.52,1.52,0,0,0,.1.34c.09.2.14.35.11.35l-.14-.11a.44.44,0,0,0-.18-.11.13.13,0,0,1-.1-.08l0-.08-.17.15a.59.59,0,0,0-.21.28,4.68,4.68,0,0,1-.21.49,2.4,2.4,0,0,0-.21.56,1.69,1.69,0,0,1-.13.39l0,.06v22.75l-.24.21a1.12,1.12,0,0,0-.19.4c0,.12-.07.16-.12.16a2.22,2.22,0,0,0-.44.29l-.37.28,0,.25,0,.25-.25.28a4.64,4.64,0,0,0-.33.39l-.07.11-.15-.08-.18-.08a.89.89,0,0,0-.19.16l-.16.15-.25,0h-.23l-.11.1-.18.2a4.78,4.78,0,0,1-.47.45.79.79,0,0,0-.22.23,1.19,1.19,0,0,1-.6.43h0L326,112.6l0,.05a1.76,1.76,0,0,0-.11.4c0,.05,0,.07-.05.07s-.17,0-.15.06,0,0,.05,0,0,0,.08.15a.52.52,0,0,0,.08.18l.21,0c.15,0,.18,0,.22.12s.11.14.12.07.06-.06.09,0a2.32,2.32,0,0,0,.82.81c.09,0,.13.07.14.11h12.62l.19-.18a2.27,2.27,0,0,0,.27-.28s0,0-.1,0-.1,0-.1,0a.54.54,0,0,1,.17-.11.32.32,0,0,1,.34,0l.2,0a1.28,1.28,0,0,0,.12-.19,1.72,1.72,0,0,1,.49-.54c.08,0,.09-.05.07-.21s0-.17.18-.42.25-.34.31-.44.17-.21.17-.11a.3.3,0,0,0,.06.12c.05.07.06.11,0,.36,0,.49.12.7.41.55.05,0,.1,0,.11,0a1.34,1.34,0,0,1,0,.28c0,.25,0,.27-.11.28a1.27,1.27,0,0,0-.48.49,1.26,1.26,0,0,0,.34.34.14.14,0,0,0,.08-.05.64.64,0,0,1,.42-.21l.29,0c.17,0,.21,0,.4.16l.33.27.08.06h40.29a.14.14,0,0,0,0,0s0-.21,0-.37c0-.36,0-.45-.3-.63s-.17-.13-.18-.25a.73.73,0,0,1,0-.21.6.6,0,0,0,0-.27,1.63,1.63,0,0,1,0-.33,1.8,1.8,0,0,0,0-.34,1.68,1.68,0,0,1,0-.29c0-.13-.06-.17-.28-.19l-.18,0-.34.23a2.45,2.45,0,0,1-.38.23c-.08,0-.08-.1,0-.24a.72.72,0,0,0,.07-.27c0-.12,0-.14.12-.19a1,1,0,0,0,.42-.47l.1-.2.14.1c.18.13.25.11.35-.11s.33-.41.4-.41,0,.05,0,.12a4.33,4.33,0,0,0,.28.83c.06.1.06.11,0,.21a1.27,1.27,0,0,1-.15.2.5.5,0,0,0-.12.32,4.91,4.91,0,0,1-.11.63c0,.07,0,.12.22.32l.19.17h.42c.52,0,.59,0,.65.25s.09.24.23.25a.78.78,0,0,1,.53.29.6.6,0,0,0,.55.26,2.64,2.64,0,0,1,.8.13l.46.11a4.45,4.45,0,0,1,.53.14l.19.06h10.34a.38.38,0,0,0,0-.12.24.24,0,0,0-.07-.24.41.41,0,0,1-.09-.2.91.91,0,0,1,.12-.45.35.35,0,0,0,.07-.13.52.52,0,0,1,.06-.15,1.15,1.15,0,0,0,.08-.38l0-.27-.1-.07a.7.7,0,0,1-.17-.24.84.84,0,0,0-.14-.23c-.09-.08-.09-.17,0-.39s.09-.18,0-.33a2.1,2.1,0,0,1-.06-.24l-4.39-3.46.89-3.32,0-.19c0-.18,0-.19.07-.48s.15-.38.19-.48a1.21,1.21,0,0,0,.11-.9,1.38,1.38,0,0,1-.06-.24A.38.38,0,0,0,396,102a1.52,1.52,0,0,1-.13-.23c-.06-.13-.06-.13,0-.24s.09-.14.14,0,.12.09.2,0,.06-.11,0-.26a.57.57,0,0,1,0-.24.15.15,0,0,0,0-.14c-.1-.12-.1-.14.07-.29a.79.79,0,0,0,.26-.42,1.74,1.74,0,0,0,.09-.37.68.68,0,0,1,.07-.23c.07-.14.07-.14,0-.27a1.26,1.26,0,0,1-.14-.6c0-.2,0-.22-.08-.25a1,1,0,0,1-.2-.14l-.12-.11.1-.18c.09-.16.14-.21.39-.36a3.07,3.07,0,0,0,.37-.25l.08-.08.08.08a.32.32,0,0,0,.11.08.65.65,0,0,1,.16.12.37.37,0,0,1,.15.33L399.69,90h15.8l1.33,6h0A.26.26,0,0,0,417,96c.13-.1.16-.08.22.12s.07.25.11.34l.06.15-.08.22a1.37,1.37,0,0,0-.08.35.46.46,0,0,1-.09.26h0l.81,3.69.18.25a3.48,3.48,0,0,1,.32.55,1,1,0,0,1,.13.48,2.52,2.52,0,0,0,.12.74.11.11,0,0,0,.07,0,.79.79,0,0,1,.21.18c.13.13.19.17.24.16s.12,0,.24.12l.18.14,0,.15a.88.88,0,0,1-.05.2.39.39,0,0,0,0,.15.87.87,0,0,1-.05.23.86.86,0,0,0-.05.23.13.13,0,0,1-.07.12c-.1.05-.11.16,0,.39s.06.23,0,.73a6.78,6.78,0,0,1-.13.91l.26,1.19-1.54,1.51-1.7,1.67,0,0a2.52,2.52,0,0,1,.45,1.22.41.41,0,0,0,0,.18l.3,0a10.34,10.34,0,0,1,1.48,0c.08,0,.1,0,.22-.23l.13-.25h-.1c-.08,0-.15,0-.28-.14a1.86,1.86,0,0,0-.28-.19,1.48,1.48,0,0,1-.39-.45,2.31,2.31,0,0,1,.25-.28,2.28,2.28,0,0,0,.27-.31s0,0,.17,0a1.66,1.66,0,0,0,.66.18,3.84,3.84,0,0,1,.67.16l.42.13.09.17a2.51,2.51,0,0,0,.7.72l.42.35a2.13,2.13,0,0,0,1,.56.68.68,0,0,1,.2.05.74.74,0,0,1,0,.26c0,.23,0,.23-.14.29a1.41,1.41,0,0,0-.22.15c-.1.08-.11.09-.26,0s-.34-.05-.44,0a5.9,5.9,0,0,1-.95.48l-.37.08c-.23,0-.24,0-.29.15s0,.12,0,.13h27.39l.1-.2a2.35,2.35,0,0,1,.21-.36c.1-.14.11-.16.07-.19s-.06-.21.09-.42.15-.19.16-.18a1.56,1.56,0,0,0,.45-.34c.09-.09.1-.12.12-.43a1.5,1.5,0,0,1,.05-.3c0-.13.32.14.38.2s.12.12.17.1.94.4.9.37h0a31.74,31.74,0,0,0,15.35,3.75,3.15,3.15,0,0,1,.88-.7s0-.1,0-.19-.05-.18-.29-.32l-.29-.16-.22,0a.8.8,0,0,1-.23,0,.55.55,0,0,1-.17-.17.88.88,0,0,0-.44-.38l-.31-.15c-.18-.09-.17-.09-.3.08s-.12.15-.17.12a4.4,4.4,0,0,0-.92-.34,2.31,2.31,0,0,0-.65-.14c-.18,0-.11,0,.16-.22a1.75,1.75,0,0,0,.33-.25s.05-.05.08,0,.15.09.16,0,0-.05,0-.06,0-.06,0-.17a.52.52,0,0,0,0-.2.85.85,0,0,0-.14-.16c-.11-.11-.12-.14-.1-.23s0-.18,0-.13-.09,0-.07-.07a2.32,2.32,0,0,0-.17-1.14c-.06-.12-.06-.15,0-.2s.09-.06.12,0,.09.18.37.51c.13.15.31.31.35.3a.41.41,0,0,0,.1-.14.46.46,0,0,1,.1-.14s.08.05.14.13a5.7,5.7,0,0,0,.46.46l.43.4.24.23c.16.14.16.14.31.13h.39a2.33,2.33,0,0,0,.93-.15l.18-.07.12.19c.09.16.11.21.08.27s.06.15.22,0,.31-.18.83-.06.57.17.3.17a1.91,1.91,0,0,0-.36.05c-.24.06-.27.11-.23.37a.81.81,0,0,1,0,.28l0,.13.29.37a8,8,0,0,1,.47.66l.18.29.24,0c.31.06.36.09.5.3h.45l.25.06c8-1,15-5,19.16-11l.48-.94c.27-.53.28-.57.24-.61l-.13-.18a.63.63,0,0,0-.35-.26.79.79,0,0,0-.23.08c-.3.14-.3.13-.07-.28a5.1,5.1,0,0,0,.31-.7,2.49,2.49,0,0,1,.2-.47.16.16,0,0,1,.12,0,.32.32,0,0,0,.23-.06c.15-.09.22-.09.26,0a.39.39,0,0,0,.12.09l.1.05.13-.36a2.32,2.32,0,0,0,.15-.52c0-.15,0-.17.12-.24a2.07,2.07,0,0,0,.27-.26l.2-.24.09-.12a.65.65,0,0,1,.12-.13c.08-.06.11-.13.74-1.81l.2-.54a23.41,23.41,0,0,0,.58-5.23,30,30,0,0,0-1-7.83A.37.37,0,0,0,491.91,85Zm-75.85-2.47a.77.77,0,0,1-.5-.2,1,1,0,0,0-.36-.18l-.26-.07c-.1,0-.39,0-1.37.42h0l-.26.09-.11-.06-.26-.12a.91.91,0,0,1-.26-.15c-.1-.09-.11-.1-.31-.08s-.21,0-.26-.06a.94.94,0,0,0-.63-.27c-.19,0-.22,0-.22-.18a.09.09,0,0,1,.06-.1l.32-.12.26-.1-.2-.2a.88.88,0,0,1-.2-.25.64.64,0,0,0-.14-.21,1.87,1.87,0,0,1-.18-.22s0,0-.16,0h-8.81l6-22.58,4.64,20.24h0l.13.57v0l.14.62a3.48,3.48,0,0,0,.26.78c.06.18.35.32.17.33h-.17l.15.07a1.19,1.19,0,0,1,.28.22c.07.08.15.14.17.13a.81.81,0,0,0,.15-.2,2.45,2.45,0,0,1,.25-.34,1.83,1.83,0,0,0,.25-.4c.1-.22.39-.58.47-.58s0,.05,0,.11a.65.65,0,0,0,.18.43.15.15,0,0,1,.06.18.46.46,0,0,0,0,.23c.15.37.18.46.17.49s0,.21.2.44a3,3,0,0,1,.42,1.22C416.17,82.54,416.16,82.55,416.06,82.55Z"/><path class="cls-1" d="M722.9,34.64c-.05.07.12.16.37.29.45.23.46.22-.72.47a2.37,2.37,0,0,1-1.22.06,10.5,10.5,0,0,0-3.11-.3c-.32.1-.44.07-1.11-.26l-.52-.26h-8.53l9.3,8.23h0l.36.64.29.28c.27.26.29.32.34.82.1,1.15.1,1.16-.11,1.38s-.22.18-.25.15-.26,0-.3.3a2,2,0,0,1-.22.58,1.11,1.11,0,0,0-.11.24v.21l.06.15a2,2,0,0,1,.14.7c0,.38,0,.43.18.46.33.07.38.36.19,1.09-.13.51-.14.73-.06.91s-.29.18-.52.28v17.7L706.13,53.18a.24.24,0,0,0,0,.18.17.17,0,0,1,0,.1l-.25-.08a5,5,0,0,0-1.38-.23h-.32l-.22-.27a1.89,1.89,0,0,0-.66-.55c-.22-.11-.2-.13.1-.09l.3,0s-.25-.38-.43-.53a2.65,2.65,0,0,0-.34-.25.41.41,0,0,1-.27-.37,2.4,2.4,0,0,0-.11-.34c0-.09-.05-.17,0-.18l.15,0h.12v-.33c0-.18,0-.4,0-.5s0-.18-.16-.46a3.48,3.48,0,0,1-.23-.48c-.07-.21-.08-.21-.52-.3l-.28-.05-.09-.16c0-.09-.28-.43-.51-.75l-.42-.58.11-.31.11-.31-.08-.25a3.54,3.54,0,0,1-.1-.41c0-.14,0-.17-.11-.22s-.09-.08-.12-.29v0L694,36.35l-.85-.07c-.11-.17-.28-.31-.37-.31-.28,0-.6-.46-.59-.82s0-.35-.19-.35a.52.52,0,0,0-.32.09,1,1,0,0,1-.46.13l-.91-.37H671.58a4.4,4.4,0,0,0,.56,1.08c.35.51.34.49.35.7v.19l-.31.31-.25.27,6.51,5.69V70.46l.33.45a2.57,2.57,0,0,1,.51,1.28,6.35,6.35,0,0,0,.23,1,.82.82,0,0,1,0,.62,8.93,8.93,0,0,0-.18,1.55c-.06,1.11-.1,1.3-.37,1.67a2.45,2.45,0,0,0-.52,1.71v27.72l-8,7v-9.79l-.13-.05c-.08,0-.21-.16-.21-.26s0-.14-.17-.26l-.17-.17-.1.11a7.8,7.8,0,0,0-.56,1.19c-.06.15-.07.15-.2.15a1.34,1.34,0,0,1-.54-.13c-.14-.07-.13-.07-.39.14s-.19.21-.12.21,0,.05-.09.09a.41.41,0,0,1-.31,0,1.34,1.34,0,0,0-.34-.06.62.62,0,0,1-.22,0c-.06,0-.18,0-.36.12s-.09.06-.18,0a.42.42,0,0,0-.22-.12c-.12,0-.13,0-.13-.14a3.91,3.91,0,0,0-.12-.71.67.67,0,0,1,0-.22.27.27,0,0,1,.14,0l.31.07c.18,0,.19,0,.26.2a.42.42,0,0,0,.37.27,3.85,3.85,0,0,0,.88-.28.56.56,0,0,0,.27-.39c0-.1,0-.14-.21-.28s-.11-.1-.11-.26,0-.26-.18-.26a.18.18,0,0,1-.12,0,1.82,1.82,0,0,0-.33-.18l-.3-.14-.2,0-.22,0s.06-.25.11-.26a1.63,1.63,0,0,1,.47.05,1.8,1.8,0,0,0,.38,0c.13,0,.21,0,.24,0a.43.43,0,0,0,.14.09l.16.09a1.77,1.77,0,0,0,.83,0,1.72,1.72,0,0,0,.12-.62.75.75,0,0,1,.11-.41c.07-.11.1-.13.2-.12s.23-.07.34-.33a.89.89,0,0,0,.08-.57c0-.36,0-.36.06-.39s.09,0,.11,0,.12.07.21-.14a1.59,1.59,0,0,1,.25-.38.53.53,0,0,0,.19-.39l0-.11V85.46c0-.2-.05-.22-.16-.28a.52.52,0,0,1-.22-.25,2,2,0,0,0-.23-.32,1.3,1.3,0,0,1-.34-.6.68.68,0,0,1,0-.44c0-.13.07-.3.1-.38l0-.14-.11-.11a1.77,1.77,0,0,1-.21-.3.47.47,0,0,1-.09-.35.47.47,0,0,0,0-.25.38.38,0,0,1,0-.14c0-.1-.06-.09-.11,0s-.24.46-.24.46l-.59,1.38.08,0a.54.54,0,0,1,.33-.06l.16,0v.21c0,.25.08.38.24.46s.11,0,.06.35,0,.25,0,.3.05.09,0,.22a1,1,0,0,1,0,.18l-.17-.06a.82.82,0,0,0-.23-.07l-.14,0c-.06,0-.07,0-.06-.12s0-.24-.09-.24-.05.06-.09.13a2.36,2.36,0,0,1-.37.41,1.9,1.9,0,0,0-.31.32,1,1,0,0,1-.28.34s-.08,0-.14,0l0,0-5.1,11.85a1.31,1.31,0,0,1-.05.4c-.22.51-.5,1.12-.59,1.31a.38.38,0,0,0-.05.16,1,1,0,0,0,.44-.09.76.76,0,0,1,.24-.05l.2,0v.24c0,.23,0,.25-.09.39a1.26,1.26,0,0,0-.15.32.45.45,0,0,1-.14.24l-.24.2-.27.2a.5.5,0,0,0-.2.29,3.62,3.62,0,0,1-.22.44,1.86,1.86,0,0,0-.25.63,1.27,1.27,0,0,1-.06.24c-.07.21-.07.21,0,.27s.05,0,.15-.05.13-.09.15-.08a.37.37,0,0,1,0,.18c0,.12,0,.16-.05.18a.6.6,0,0,0-.14.22c-.1.21-.09.21-.41.25a1.92,1.92,0,0,0-.63.3.77.77,0,0,1-.18.11c-.1,0-.14.08-.2.23l-.15.33-.12.26-.07.15h-1.51a9.85,9.85,0,0,0-1.69,0l-.45.09a1.07,1.07,0,0,0-.47.16.76.76,0,0,0-.21.17s-.09,0-.41,0a7.68,7.68,0,0,0-1.22.07l-.25,0-.08-.1c-.07-.08-.12-.1-.29-.13a1.11,1.11,0,0,1-.4-.15c-.19-.11-.2-.11-.3-.06a.9.9,0,0,1-.34.05c-.23,0-.24,0-.32-.11l-.09-.11h-8.57v-19a4.83,4.83,0,0,1-.27-.65,1.58,1.58,0,0,0-.57-.78c-.22-.11-.24-.1-.22.18,0,.08,0,.15,0,.16a1.9,1.9,0,0,1-.28-.19l-.26-.2-.06-.3-.06-.3.21-.16a1.34,1.34,0,0,0,.49-.67.45.45,0,0,1,.15-.25.2.2,0,0,0,.1-.19,1.36,1.36,0,0,1,.22-.84.48.48,0,0,1,.13-.13,12.72,12.72,0,0,0-.26-1.5,6.3,6.3,0,0,0-.37-1.62l-.08-.12.08-.27a1.64,1.64,0,0,0,.08-.41c0-.18,0-.22.14-.27a2.52,2.52,0,0,0,.64-.48.8.8,0,0,1,.35-.24,1.33,1.33,0,0,0,.31-.16l.21-.14s0-.06,0-.13a1,1,0,0,1,0-.26.35.35,0,0,0,0-.17s-.07,0-.12,0a1.93,1.93,0,0,1-.71.17,1.88,1.88,0,0,1,.25-.35,2.36,2.36,0,0,1,.52-.49l.5-.36c.23-.17.24-.18.29-.13a.91.91,0,0,0,.69.33c.13,0,.15,0,.33.2a1.81,1.81,0,0,0,.78.48c.24.09.42.19.43.24a2.51,2.51,0,0,0,.67.6c.37.25.47.28.7.19s.12,0,.17.05a.76.76,0,0,0,.45.32.37.37,0,0,1,.29.23.85.85,0,0,0,.25.26c.11.07.14.11.16.21s0,.13.09.15l.23.12a.91.91,0,0,0,.29.11c.11,0,.57-.15.7,0s.18,0,.28.05a1.07,1.07,0,0,1,.42.69l.11.14a3.09,3.09,0,0,1,.86,1.09l3.89,4.91.3-.1h.68c.75,0,.76,0,1-.23l.12-.11.1.06.1.06.21-.15.19-.14V79.11a.37.37,0,0,1-.06-.26,1.58,1.58,0,0,0-.32-1l-.08-.1.13-.17c.11-.15.15-.18.26-.19h.08V77l0-.07a.51.51,0,0,1-.08-.15.39.39,0,0,0-.05-.13c-.05-.09-.05-.09.08-.24l.09-.1V74.71l-.05,0-.1-.09-.21.06-.27.05c-.08,0-.22-.32-.22-.51s0-.21-.2-.24-.15-.06-.09-.09a1.36,1.36,0,0,0,.15-.23.5.5,0,0,0,.1-.41l0-.2.16-.14a.49.49,0,0,0,.2-.27.84.84,0,0,1,.16-.37s0,0,0,.07a5.55,5.55,0,0,0,.14.65s.05,0,.14,0l.07-.05V63.28l-.15-.13c-.22-.18-.28-.25-.33-.37a.2.2,0,0,0-.11-.1.24.24,0,0,1-.16-.27c0-.13-.1-.3-.28-.39s-.28-.19-.27-.32v-.1l-.16,0a1,1,0,0,1-.37,0c-.15,0-.2,0-.23,0l-6.06,7.75h-7.84V51.2l0-.07c-.12-.16-.12-.16-.06-.22s.06-.1.06-.3v-.24l-.18-.16c-.17-.15-.18-.18-.2-.36a.94.94,0,0,0-.19-.47.11.11,0,0,1,0-.08.32.32,0,0,0-.18-.21.21.21,0,0,1-.07-.16,1.52,1.52,0,0,0-.09-.34.89.89,0,0,1-.07-.24l.22-.25c.18-.19.22-.22.34-.22h.18s.05-.05.07-.31a1,1,0,0,1,.13-.55l.13-.26V44.2h13l2-.06.08-.11c.08-.1.09-.11.55-.18l.54-.09c.05,0,.08,0,.13.13a.58.58,0,0,0,.16.2.58.58,0,0,1,.23.27c.06.11.07.12.21.12a2,2,0,0,1,.72.18l.15.08.19-.1a.58.58,0,0,0,.24-.18.62.62,0,0,1,.11-.15c.06-.06.07-.05.14.12a.44.44,0,0,0,.44.31c.14,0,.15,0,.18.11a.63.63,0,0,1,0,.31,1.41,1.41,0,0,0,0,.75l.05.12-.11.11c-.09.09-.12.1-.16.07s-.08,0-.23.06a.77.77,0,0,1-.3.1h-.12l-.09.23a1.72,1.72,0,0,1-.11.26c-.05.06,0,.13.07.21a.53.53,0,0,1,.22.51.87.87,0,0,0,.12.5c.26.53.51,1.28.84,2.05l.16.26.19,0a1,1,0,0,1,.71.48c.06.1.1.14.15.15H663a1.06,1.06,0,0,1,.36.06,2.63,2.63,0,0,1,.09.41l.06.38-.1.14a.56.56,0,0,0-.1.17s0,.06.1.1l.17.12a.41.41,0,0,0,.14.07.52.52,0,0,1,.17.1c.11.09.12.14.13.54,0,.1,0,.14.18.27l.18.15.05.28c.06.3.05.31-.14.62l0,0,3.55,5.92a.61.61,0,0,0,.2,0,1,1,0,0,1,.61.23l.06.08.22-.09a1.06,1.06,0,0,0,.31-.18c.08-.08.11-.09.28-.09a.71.71,0,0,0,.62-.34,1,1,0,0,1,.22-.26l.11-.09V37.35l-.14-.09a1.29,1.29,0,0,0-.26-.14,2.32,2.32,0,0,1-.34-.17,1.69,1.69,0,0,0-.4-.18c-.17,0-.17,0-.27-.24a1.36,1.36,0,0,0-.32-.4,1.43,1.43,0,0,0-.25-.2c-.06,0,0-.12.07-.36a5.35,5.35,0,0,0,.3-.92h-9.91a.32.32,0,0,0-.17.11,1.05,1.05,0,0,0-.32.54.46.46,0,0,0,.08.23.48.48,0,0,1,.08.16c0,.08-.2.25-.29.25a2.23,2.23,0,0,0-.57.18.63.63,0,0,0-.16.14,5.25,5.25,0,0,1-.8.55,1.22,1.22,0,0,1-.31-.23s0,0,.06,0a.64.64,0,0,0,.16-.1c.09-.08.1-.09.08-.25s0-.18,0-.25a1.07,1.07,0,0,0,.16-.42c0-.1-.09-.14-.35-.12l-.25,0-.28-.28a1.26,1.26,0,0,1-.31-.4l0-.08H634.62a.25.25,0,0,0-.07.11c0,.07.1.18.16.18a.6.6,0,0,1,.2.09.33.33,0,0,1,.18.22c.05.18,0,.52-.06.54s-.24.25-.15.48,0,.12,0,.16-.06,0-.15,0a.91.91,0,0,0-.63,0,3.81,3.81,0,0,0-.44.4c-.4.41-.3.38-.85.27a3.36,3.36,0,0,0-.56,0,2,2,0,0,1-.35,0s-.09,0-.16.06a.69.69,0,0,1-.22.11.69.69,0,0,0-.43.33c-.07.14-.09.15-.36.25l-.29.09a.69.69,0,0,1,.09-.33.32.32,0,0,1,.22-.11.53.53,0,0,0,.22-.09c0-.05.11-.15.51-.74a1.12,1.12,0,0,0,.23-.9c0-.3,0-.36,0-.46s.07-.22,0-.29-.08-.07-.08-.09-.05,0-.12-.06a.73.73,0,0,1-.24-.11H621.18a.19.19,0,0,0,0,.09s0,.08,0,.09c-.35.09-.69.2-.89.28a3.3,3.3,0,0,1-1.13.31c-.32,0-.38.11-.39.44a1.2,1.2,0,0,1-.13.52.88.88,0,0,0-.11.53,1.48,1.48,0,0,1-.1.81c-.06.12-.29.35-.36.35a1.29,1.29,0,0,0-.49.27,2.24,2.24,0,0,0,.25.24l.6.56.06.06,4.23,3.69v5.91a.88.88,0,0,1,.06.23,1,1,0,0,1,0,.28s0,.09.09.16a1.55,1.55,0,0,1,.21.37c.11.29.13.3.7.31h.39l.12.23a1.43,1.43,0,0,0,.47.58c.08.05.14.12.14.16a.59.59,0,0,0,0,.17c.08.19.09.28,0,.28a.08.08,0,0,1-.06-.05s-.07,0-.34,0a1,1,0,0,0-.37.05.36.36,0,0,1-.32,0c-.07-.06-.4.23-.4.34s-.07.16-.22.34-.25.29-.28.34a.44.44,0,0,1-.16.13.56.56,0,0,0-.14.13V89.7a.25.25,0,0,0,.25-.13s0-.08.06-.08a1.13,1.13,0,0,1,.16.21,5,5,0,0,0,1,1l.26.19,0,.34a1.89,1.89,0,0,0,.21.83c.11.22.08.22-.13,0a1.53,1.53,0,0,0-.22-.2,1.71,1.71,0,0,0,0,.68,2.68,2.68,0,0,0,.13.4.4.4,0,0,1,0,.46,2.41,2.41,0,0,0-.11.34c0,.09-.06.17-.08.17l-.14-.06-.1-.06-.2.26-.31.39c-.11.12-.11.14-.15.47a3.47,3.47,0,0,1-.09.52c-.07.21-.06.22.24.55l.2.21,0,.18c0,.1,0,.51,0,.9V98l-.27.18-.27.18-.08.25a3.53,3.53,0,0,1-.16.39c-.06.12-.07.16,0,.24s0,.12-.08.3l0,.06v6.87l-1.47,1.29s.07.08.07.2a.27.27,0,0,0,.06.18.28.28,0,0,1,.07.16.18.18,0,0,0,.14.15.6.6,0,0,1,.38.41.27.27,0,0,1-.08.28.54.54,0,0,0-.11.17c0,.06-.1,0-.24,0a.46.46,0,0,0-.5,0,1.83,1.83,0,0,1-.28.22.9.9,0,0,0-.27.25,1.8,1.8,0,0,1-.24.3,3.83,3.83,0,0,0-.28.33c-.06.08-.2.25-.33.39s-.23.24-.42.24a1.26,1.26,0,0,0-.47.13.39.39,0,0,0-.13.08.66.66,0,0,1-.42.09.33.33,0,0,1-.16-.08,1.11,1.11,0,0,0-.3-.15c-.14-.05-.2-.08-.22-.11a.1.1,0,0,1,0-.09c.09-.37.09-.41-.15-.64l-.22-.22v-.15l-5.57-4.37V86.41a1,1,0,0,0-.13-.2c-.09-.07-.08-.22,0-.42a1.32,1.32,0,0,0,.08-.66c0-.44,0-.51-.08-.57a.51.51,0,0,1-.11-.28c0-.19,0-.21-.17-.27s-.14-.06-.14-.31a.72.72,0,0,0-.07-.36.6.6,0,0,1,0-.58c.11-.24.1-.24-.27-.63a.91.91,0,0,1-.23-.33.37.37,0,0,1,.12-.2,1.07,1.07,0,0,0,.3-.49.52.52,0,0,1,.15-.22.88.88,0,0,0,.17-.23c0-.12.18-.1.31,0l0,0V43.07l-.12-.08-.19-.11a.23.23,0,0,1-.11-.09c-.11-.17-.16-.17-.38,0a.49.49,0,0,1-.49.1c-.23,0-.28-.06-.28-.13a1.52,1.52,0,0,0-.19-.74,1.13,1.13,0,0,1-.13-.28.81.81,0,0,1,.25-.17l.24-.13.12.15c.15.18.24.15.23-.06a1.41,1.41,0,0,1,.11-.43c.1-.25.1-.4,0-.4a.3.3,0,0,1-.13-.09c-.07-.07-.11-.08-.17,0a.28.28,0,0,0-.1.17.25.25,0,0,1-.06.14,2.6,2.6,0,0,1-1.09.06c-.06,0,0-.14.16-.25a.33.33,0,0,0,.15-.18.19.19,0,0,1,.07-.12.33.33,0,0,0,.09-.16.61.61,0,0,1,.15-.23c.13-.13.17-.21.11-.29a.72.72,0,0,1,0-.3,1.93,1.93,0,0,0-.07-.75.47.47,0,0,1,0-.25.64.64,0,0,0,0-.31c-.05-.13,0-.22.16-.18a.32.32,0,0,0,.22-.07.35.35,0,0,0,.17-.27.38.38,0,0,1,.13-.24c.12-.08.14-.22.06-.4a1,1,0,0,1,0-.39c0-.28,0-.31-.16-.41a2,2,0,0,1-.77-.81.38.38,0,0,1,.09-.22,1.68,1.68,0,0,0,.18-.61l.08-.49.12,0c.18,0,.26,0,.25-.26s0-.22.16-.24l.23-.05a.24.24,0,0,1,.21,0,1.58,1.58,0,0,0,.55.24.58.58,0,0,0,.16-.25,1,1,0,0,0,.06-.19V17.62l-.1.05s-.08,0-.14,0-.21.1-.25,0,0-.1.06-.14a.41.41,0,0,0,0-.2c0-.41.13-.78.39-.79a.38.38,0,0,0,.19-.08c.14-.11.19-.06.17.16s0,.28.31.21l1-.76a1.47,1.47,0,0,0,.25-.5c0-.1,0-.12.12-.14a.34.34,0,0,1,.32.12L618.59,12a1.78,1.78,0,0,1,.06-.25l.06-.18-.16-.13a.75.75,0,0,0-.2-.13,1.44,1.44,0,0,1-.43-.54.76.76,0,0,0-.38-.25c-.08,0-.28-.14-.55-.4s-.21-.22-.21-.35,0-.18-.23-.37-.23-.22-.23-.46a.68.68,0,0,1,.08-.38l0-.08h-18l-.17.15a.39.39,0,0,1-.3.07c-.25,0-.41.09-.87.51l-.29.27-.26,0a.81.81,0,0,0-.7.24,1.21,1.21,0,0,1-.22.15l-.16.1c-.12.09-.16.09-.65.08a3.87,3.87,0,0,0-.83.05.71.71,0,0,1-.49,0,1.13,1.13,0,0,0-.3-.06,2.07,2.07,0,0,1-.67-.23l-.18-.1c-.13-.06-.15-.12,0-.21a.86.86,0,0,0,.15-.3c.09-.3.15-.38.33-.43s.15-.07.16-.16a.15.15,0,0,0,0-.09h-8.31l-4.83,16,.06.09a.76.76,0,0,1,.11.22,1,1,0,0,0,.25.27c.2.17.25.24.25.35a1.11,1.11,0,0,1-.23.57.43.43,0,0,0-.06.23.54.54,0,0,1-.06.24c-.16.3-.25.44-.29.45s-.19.16-.18.3a.35.35,0,0,1-.2.36.22.22,0,0,0-.11.17.3.3,0,0,1-.06.17.71.71,0,0,0-.1.21,1.62,1.62,0,0,1-.41.47,3.26,3.26,0,0,0-.3.3l-7,23.18c.08.11-.08.26.1.33s.15.08.16.21a.62.62,0,0,0,.42.5.61.61,0,0,1,.24.17c.09.24.21.3.34.16l.09-.1.27.23c.38.32.38.35.14.65s-.21.25-.43.26a.77.77,0,0,0-.3.07c-.07.05-.13,0-.27,0s-.1,0-.28.21l-.2.26-.38,0L571,55l-.14-.14a.47.47,0,0,0-.19-.13s0,.22-.09.26l-1.07,3.55-7.08-23.63h0l-.15-.23c-.11-.19-.21-.2-.27,0a.44.44,0,0,1-.13.2.9.9,0,0,0-.19.29c-.09.21-.11.22-.2.19s-.09-.07-.08-.19a1.87,1.87,0,0,0-.34-.85,2.14,2.14,0,0,1-.19-.52c-.06-.29-.17-.45-.34-.47s-.12-.05-.18-.19a1.78,1.78,0,0,1-.09-.26c0-.06-.1-.11-.48-.27l-.46-.19-.06.09c-.07.1-.08.09-.39-.09l-.18-.11.19-.57c.15-.43.18-.59.16-.66a.57.57,0,0,1,0-.2.75.75,0,0,0,0-.23c0-.15,0-.21.25-.29a1.44,1.44,0,0,0,.58-.31c.11-.13.19-.07.19.13s0,.16,0,.17l.24.06a1.5,1.5,0,0,1,.39.16c.18.11.18.11.36,0l.09,0L554.87,9.6h0c-.07,0-.14-.06-.17,0s-.32,0-.43-.15l-.2-.19-.1-.09-.29.05-.36,0c-.06,0-.08,0-.1.11a.38.38,0,0,1-.05.15,1.07,1.07,0,0,1-.3,0l-.52,0c-.24,0-.26,0-.29,0s-.05-.07-.16-.06a5.92,5.92,0,0,1-.67,0s0,0-.05.06-.06.09-.13.13a1.73,1.73,0,0,0-.42.34c0,.06-.05.06-.12,0l-.27-.2L550,9.7V9.5a2.41,2.41,0,0,0,0-.4l0-.21-.18-.06a2.12,2.12,0,0,1-.4-.21.65.65,0,0,0-.33-.15H534l-.28.09c-.1.05-.36,0-.39,0s-.34,0-.39,0a.6.6,0,0,1-.31.08.8.8,0,0,0-.61.3.3.3,0,0,1-.38,0,.9.9,0,0,0-.31-.1,1.54,1.54,0,0,1-.45-.18.85.85,0,0,0-.64-.14,1.27,1.27,0,0,0-.5.07,1,1,0,0,1-.41.06c-.26,0-.32,0-.39.1s-.13.1-.33.1a.53.53,0,0,1-.32-.07.59.59,0,0,0-.18-.1,1,1,0,0,1-.26-.15l-.1-.08H515.33a1,1,0,0,1-.07.21.16.16,0,0,1-.12,0,.32.32,0,0,0-.21.1c-.13.11-.21.12-.26.06a.39.39,0,0,0-.14-.07l-.11,0-.08.38c0,.1,0,.18,0,.26l8.1,6.17c.08,0,.14,0,.54.07l.53.13c.05,0,.07,0,.08.17a.58.58,0,0,0,.07.25.58.58,0,0,1,.11.34v.06l.26.2a2.14,2.14,0,0,1,.4.3l.26.2h.14a.58.58,0,0,0,.29-.08.61.61,0,0,1,.16-.09c.08,0,.08,0,.09.17a.44.44,0,0,0,.29.45c.13.06.14.06.12.17a.62.62,0,0,1-.14.28,1.41,1.41,0,0,0-.25.7V19l-.15.06c-.12,0-.15,0-.17,0s-.07,0-.23,0h0V33.81l.06,0c.2.16.19.14.17.37a2.45,2.45,0,0,1,0,.31c0,.05,0,.2-.07.32s-.06.22-.09.23l0,0v1.55a.5.5,0,0,0,.06.19l.07.14.07-.09a.3.3,0,0,1,.09-.09s.09.25.09.53,0,.29.08.34a.27.27,0,0,1,.13.19,6.23,6.23,0,0,1,.17,1.12c0,.1,0,.2,0,.22a.73.73,0,0,0,.13.19l.13.15-.08.15a1.38,1.38,0,0,0-.19.75c0,.11,0,.57,0,1v.83l.14.34a1.53,1.53,0,0,1,.15.64.91.91,0,0,0,.05.33,2.5,2.5,0,0,1,0,.69,4.15,4.15,0,0,0,.08,1.13,3.44,3.44,0,0,1-.73.65.38.38,0,0,0-.18.22c0,.07-.09.27-.17.44l-.14.28V86a.08.08,0,0,0,.08,0c.12-.08.44.29.39.46s0,.11-.14.12-.2.1-.19.3a.4.4,0,0,1-.1.3l0,.06v.53l0,0a.36.36,0,0,1,.1.27,3.21,3.21,0,0,0,.25,1.16.34.34,0,0,1,0,.29.64.64,0,0,0,0,.3.55.55,0,0,1,0,.27,4.8,4.8,0,0,0-.15.61l-.09.48.15.22c.16.24.16.27,0,.36s-.15.19-.2.47v5.41l.1.13c.19.25.21.35.1.55s-.06.13.08.34a.54.54,0,0,1,.14.38c0,.16,0,.16.12.22s.16.09,0,.6c-.07.32-.11.41-.2.48a.78.78,0,0,0-.24.41s0,.14-.1.27l-.06.16v4.38L517,111.63a.83.83,0,0,0,.26.35.37.37,0,0,1,.18.33.85.85,0,0,0,.12.34.27.27,0,0,1,.06.26c0,.09,0,.13,0,.17l.16.2a.91.91,0,0,0,.22.21c.1.06.58.09.63.31s.17,0,.23.16a1.07,1.07,0,0,1,.11.76h29a.31.31,0,0,0,.1-.1,1.16,1.16,0,0,1,.19-.22.33.33,0,0,1,.34-.12c.17,0,.21,0,.4-.14s.22-.15.27-.08a.33.33,0,0,0,.11.1.44.44,0,0,0,.38-.12.38.38,0,0,1,.2-.1,2,2,0,0,1,.79.2.18.18,0,0,0,.13.06c.07,0,.09,0,.08.07s0,.06-.12,0-.2,0-.05.25a1,1,0,0,0,.16.18h1.26l-.08-.15-.09-.16-2.56-2a.19.19,0,0,1-.12,0,.54.54,0,0,0-.71.09.63.63,0,0,1-.34.13,1.47,1.47,0,0,0-.36.1c-.21.12-.15,0,.15-.36s.33-.35.4-.37a.36.36,0,0,0,.16-.09.28.28,0,0,0,0-.07l-8.08-6.27V83.78c-.15-.12-.15-.13-.13-.34a2.44,2.44,0,0,1,0-.31c0-.05,0-.2.07-.32l0-.06v-2l0-.06-.07.09a.29.29,0,0,1-.09.09s-.09-.25-.09-.53,0-.29-.08-.34a.27.27,0,0,1-.13-.19,6.23,6.23,0,0,1-.17-1.12c0-.1,0-.2,0-.22a.73.73,0,0,0-.13-.19l-.13-.15.08-.15a1.38,1.38,0,0,0,.19-.75c0-.11,0-.57,0-1v-.83l-.14-.34a1.53,1.53,0,0,1-.15-.64.91.91,0,0,0-.05-.33,2.5,2.5,0,0,1,0-.69,4.15,4.15,0,0,0-.08-1.13,3.44,3.44,0,0,1,.73-.65.38.38,0,0,0,.18-.22c0-.07.09-.27.17-.44l0-.1V45.27l0-.06c-.07-.11-.07-.13,0-.34a1.42,1.42,0,0,0,0-.67.21.21,0,0,0-.13-.08c-.08,0-.09,0-.06-.18a1,1,0,0,0-.23-.75,1,1,0,0,0-.51-.44c-.07,0-.09-.05-.15-.2a3.08,3.08,0,0,0-.18-.39c-.12-.21-.13-.27-.05-.26a.57.57,0,0,1,.34.32.81.81,0,0,0,.44.4h.21c.13,0,.15,0,.32.08a.39.39,0,0,1,.25.3,8.35,8.35,0,0,1,.22,1.23l10.61,32.4.47.41.34.77c0,.18.44.42.47.7.07.63.16.26.07.63,0,.13.26.43.23.58a4.78,4.78,0,0,1-.12.51.61.61,0,0,0,.07.55,5.29,5.29,0,0,0,.93,1.51.94.94,0,0,1,.26.46,3.12,3.12,0,0,1,.12.45,4.76,4.76,0,0,0,.15.57c.2.62.21.72.06,1.07l-.12.3.48,1.12.48,1.12.17,0c.35.08.52.17.61.31s.18.25.28.38a2.39,2.39,0,0,1,.23.33,1.21,1.21,0,0,0,.22.26c.15.15.23.18.6.25s-.34.5-.26.59-.37.23-.27.3-.43.16-.57.47l0,.5-.15.21L563,111.13l0,0a3.3,3.3,0,0,1,.66,1c.14.29.22.32.54.23a1.2,1.2,0,0,1,.54,0,.88.88,0,0,0,.53-.07,1.48,1.48,0,0,1,.8-.17,1,1,0,0,1,.45.22,1.25,1.25,0,0,0,.25.27l.79-2.39a.9.9,0,0,0-.23-.45.66.66,0,0,0-.22.07c-.25.11-.36.07-.15-.06a.34.34,0,0,0,.12-.14s.05-.09.08-.1a.5.5,0,0,0,.15-.16,2.38,2.38,0,0,1,.24-.28c.18-.18.19-.2.1-.44l-.08-.2.17-.44c.09-.24.18-.5.2-.56s.05-.11.09-.1,0,.05,0,.1a.18.18,0,0,0,0,.15c.06.1.3,0,.36-.18a1.05,1.05,0,0,1,.15-.23l3-9.14-.2,0c-.18,0-.25,0-.27-.08a.3.3,0,0,1,.12-.31,2.38,2.38,0,0,0,.67-1.48.91.91,0,0,0-.19-.45,1.15,1.15,0,0,1-.34-.58c-.05-.19-.09-.27-.17-.29a.17.17,0,0,0-.13,0,.48.48,0,0,1-.19,0,.64.64,0,0,0-.28.11c-.15.11-.24.1-.24,0s0-.12.13-.17c.51-.32.44-.25.61-.74a2.63,2.63,0,0,0,.16-.69,2,2,0,0,1,.09-.48.7.7,0,0,0,0-.43c-.09-.41-.11-.59,0-.62a.6.6,0,0,0,.13-.25c.12-.35.27-.4.27-.09s.05.23.19.16.13-.11.18-.25.07-.2.29-.26a1.6,1.6,0,0,0,.38-.16.47.47,0,0,1,.25-.08c.11,0,.27-.13.28-.27a.64.64,0,0,0-.07-.26.48.48,0,0,1-.07-.2.56.56,0,0,1,.17-.13,1.25,1.25,0,0,0,.51-.55c.09-.21.2-.27.37-.21l.2.06,3.87-11.77s0-.07,0-.11c0-.21-.07-.28-.11-.28a1.91,1.91,0,0,0-.35.1c-.24.09-.3.13-.34.21s0,.1-.25,0-.32-.13-.44,0-.45.2-.5.11,0-.11.15-.23.36-.4.32-.52a.58.58,0,0,0-.15-.2c-.13-.12-.14-.18-.12-.48a1.08,1.08,0,0,0,0-.31c0-.11-.06-.14-.18-.16l-.28-.05c-.11,0-.14,0-.23.07a.32.32,0,0,1-.18.09.86.86,0,0,1-.43-.22.74.74,0,0,1,.1-.27.62.62,0,0,0,.09-.34c0-.16.08-.23.2-.13a.2.2,0,0,0,.14.05c.08,0,.21.07.31.22s.23.24.36.2a.44.44,0,0,1,.25,0,.74.74,0,0,0,.32,0l.18,0,0-.21a1,1,0,0,0,0-.31,1,1,0,0,1,.16-.58.17.17,0,0,1,.12,0c.06,0,.08.12.13.52a.23.23,0,0,0,.15.23A.58.58,0,0,0,578,75a.26.26,0,0,1,.17.06c.12.12.22,0,.46-.42a1.84,1.84,0,0,1,.38-.53,1.58,1.58,0,0,0,.39-.62c0-.08,0-.08.13,0a.15.15,0,0,0,.13,0l10-30.47V66.38a.53.53,0,0,1,.06.25.31.31,0,0,0,.2.33.9.9,0,0,1,.25.21l.15.17-.06.3a1,1,0,0,1-.1.33.92.92,0,0,0-.13.24c-.08.18-.1.22-.19.22s-.1,0-.1.1a.31.31,0,0,0,0,.11,1.09,1.09,0,0,1-.07.27c0,.05,0,.1,0,.15v.19a1.06,1.06,0,0,1,0,.17.7.7,0,0,0,.07.26.36.36,0,0,1-.06.43l0,.07v.92a.32.32,0,0,0,.14.13c.09.05.09.08.06.28a.75.75,0,0,0,0,.33.4.4,0,0,1-.12.4.46.46,0,0,0-.08.18v1.72a1.67,1.67,0,0,0,.13.23,1.14,1.14,0,0,1,.23.63,1.71,1.71,0,0,0,.1.42.27.27,0,0,1-.14.34c-.07,0-.11.09-.15.2a.57.57,0,0,1-.1.19.51.51,0,0,0-.07.19v2.39a.18.18,0,0,1,0,.06v26.76l-3.36,2.63a1.82,1.82,0,0,1,0,.21c0,.14,0,.14.07.14a.61.61,0,0,1,.35.14,1.61,1.61,0,0,1,.14.51c.05.25,0,.38-.24.62l-.2.2.12.11a1.4,1.4,0,0,0,.29.2,1.7,1.7,0,0,1,.32.22c.26.24.25.23.31.09a1,1,0,0,0-.05-.66c-.08-.26-.08-.33,0-.46a.88.88,0,0,0,.11-.23.33.33,0,0,1,.13-.19l.15-.11a1.23,1.23,0,0,1,.49-.16,1.32,1.32,0,0,0,.54-.18c.17-.12.21-.1.23.07a.4.4,0,0,0,.09.23.27.27,0,0,1,.08.2c0,.09,0,.12.07.13s.39.26.39.34a.16.16,0,0,0,0,.11.13.13,0,0,1,0,.08,1.18,1.18,0,0,1-.28.38.52.52,0,0,1-.26,0c-.28-.08-.32-.07-.44.06a.36.36,0,0,1-.15.11c-.08,0-.37.27-.53.51a1.05,1.05,0,0,1-.19.23,1.87,1.87,0,0,0-.26.3,2.57,2.57,0,0,1-.32.37.34.34,0,0,0-.11.13c0,.05-.05.06-.28.06a.73.73,0,0,0-.52.15c-.29.16-.49.19-.63.1l-.31-.15a1.28,1.28,0,0,1-.26-.13.63.63,0,0,1,0-.21.5.5,0,0,0-.15-.53.65.65,0,0,1-.25-.58c0-.31.06-.48.17-.57s.25-.21.25-.28,0-.06-.49-.06h-.37l-3.8,3c.22.14.53.36.84.6a4.29,4.29,0,0,1,.51.52s0,.1-.07.23l-.1.17.15,0,.17,0,.12,0a6.14,6.14,0,0,0,.85.42h8.53a.38.38,0,0,0-.08-.12c-.09-.09-.09-.1,0-.18a.25.25,0,0,1,.13-.08.44.44,0,0,0,.17-.09c.1-.08.18-.09.48-.1a2.31,2.31,0,0,0,.88-.19l.24-.13.17-.09.14.09.31.17.23.12a1.23,1.23,0,0,0,.8.21,1.33,1.33,0,0,1,.59.09,2,2,0,0,0,.63.13l.48,0,.1-.12a.74.74,0,0,1,.58-.19.94.94,0,0,1,.24.24,1.72,1.72,0,0,0,.19.2h8.24a5,5,0,0,0-.35-.62c-.35-.51-.34-.49-.34-.71v-.19l.31-.31a3.12,3.12,0,0,0,.66-.83.48.48,0,0,1,.11-.17s0,0,0,.1a1.72,1.72,0,0,0,.12.3l.1.21-.07.17c-.1.24-.09.26.08.33l.18.07s0,0,0,0,.06-.07.14-.11.18-.13.28-.37l0-.09.15.11a1.29,1.29,0,0,0,.26.14,2.33,2.33,0,0,1,.34.18,1.67,1.67,0,0,0,.4.18c.17,0,.17,0,.27.24a1.36,1.36,0,0,0,.32.41,1.42,1.42,0,0,0,.25.21c.06,0,0,.12-.08.35s-.11.26-.16.41h33.84l.07-.06c.14-.12.18-.14.25-.12a2.76,2.76,0,0,0,.85,0,.46.46,0,0,1,.42.06.62.62,0,0,0,.48.07c.39,0,.58-.14.58-.33s0-.09.06-.07a6.2,6.2,0,0,0,.75.22l.2.05c.05,0,.05,0,0,.13l0,0h1.63a.39.39,0,0,0,0-.11s.12-.1.42-.2a1.71,1.71,0,0,1,.63-.14c.23,0,.23,0,.22.07s0,.08.13.06a1.43,1.43,0,0,0,.38-.12l.26-.11a1,1,0,0,0,.22-.19c.16-.17.18-.21.18-.32s0-.15.18-.32a.73.73,0,0,1,.27-.21.13.13,0,0,0,.11-.09,1.68,1.68,0,0,0-.1-.67c-.07-.22-.07-.25,0-.3a.37.37,0,0,0,0-.36c-.05-.11,0-.21,0-.11l.16.21.13.16,0,.17-.07.23a.83.83,0,0,0,.21.45.23.23,0,0,1,.07.14.48.48,0,0,0,.22.39,1.44,1.44,0,0,1,.3.35l.16.25.24.05a2,2,0,0,1,.62.24s.1,0,.27-.05l.35-.15L654,114l.33.18c.35.19.44.21.62.13l.11-.05.15.15.33.28.08.06h30.57c.14-.12.34-.28.36-.46l0-.35.47-.3a10.73,10.73,0,0,0,1.64-1.24l.18-.17h.32a1.36,1.36,0,0,0,.39-.06c.07,0,.09,0,.19.07a2,2,0,0,0,.32.24c.19.12.21.13.19.2s0,.07-.12.07h-.62v.08a.23.23,0,0,0,.14.22.46.46,0,0,1,.16.18l.09.15.09-.05c.13-.08.28,0,.5.11a2.26,2.26,0,0,0,.31.18.22.22,0,0,1,.15.14c0,.08.07.1.4.2l.41.12s0,0,.06,0,0-.08.22.1a2.32,2.32,0,0,0,.35.25c.21.11.22.15.16.33l0,.06h7l.11-.27.19-.09-9-7.88v-9a23.57,23.57,0,0,0-.13-2.36l-.28-1.06a2.21,2.21,0,0,1,.08-1.8c.2-.28.24-.51.29-1.75,0-.66,0-1.18.05-1.6v-.67a5.45,5.45,0,0,0-.22-1.55,3.69,3.69,0,0,1-.05-2.33,2.23,2.23,0,0,0,.05-1.25,1.29,1.29,0,0,1,.05-1,9.28,9.28,0,0,0,.17-2.45V62.53L712.61,92.2c.05,0,.08.07.09.05a1.18,1.18,0,0,0-.29-.58c-.19-.25-.3-.48-.26-.51a1.1,1.1,0,0,1,.53.09,2.3,2.3,0,0,0,.82.12c.44,0,.55.07.54.57a1.26,1.26,0,0,0,.24.71,1.66,1.66,0,0,1,.24,1.5l-.08.52,13.29,18.07h0s.08,0,.09,0c.2.3.42.59.55.75a3.3,3.3,0,0,1,.66,1c.14.29.22.32.54.23a1.2,1.2,0,0,1,.54,0,.88.88,0,0,0,.5-.06V79.81h-.05c-.23,0-.5-.76-.4-1.2a4.82,4.82,0,0,0,0-1.78c-.08-.2,0-.35.21-.72l.25-.38V43.64h0l-.08-.16c-.06-.11-.1-.13-.28-.18l-.28-.06a.53.53,0,0,1-.35-.25.66.66,0,0,0-.1-.19c-.07-.09-.09-.1-.18-.09a1.19,1.19,0,0,1-.55-.14c-.09,0-.07,0,.27-.06l.47,0c.09,0,.1,0,.18.13a.47.47,0,0,0,.24.24c.16.08.18.09.44.07l.22,0h0l9.56-8.23ZM546.84,113.86c.18-.22.19-.27.18-.44a.46.46,0,0,0-.06-.23c-.16-.15-.09-.3.12-.23a.56.56,0,0,0,.29,0,.3.3,0,0,1,.2,0c.05,0,.06,0-.15.29a1.77,1.77,0,0,0-.24.38c-.19.46-.22.52-.36.55S546.63,114.13,546.84,113.86ZM565,69.93a.73.73,0,0,0,0-.19.15.15,0,0,1,.06-.14.74.74,0,0,1,.44-.07l.18,0a.16.16,0,0,1,.12.07c.05.1,0,.11-.29.11s-.36,0-.33.15-.11.22-.18.16A.15.15,0,0,1,565,69.93ZM548.7,40.75s-.06,0-.09-.18a.78.78,0,0,1,0-.29l0-.22c-.1-.08-.15-.1-.22-.08s-.15,0-.17-.25a.61.61,0,0,0-.07-.28c-.12-.1,0-.78.21-1h0l-1.39-8.74-.07,0c-.14,0-.15,0-.11-.52a1,1,0,0,0-.07-.53,3.1,3.1,0,0,1-.21-.53c-.11-.36-.13-.39-.23-.41s-.1,0-.14-.14a.53.53,0,0,1,0-.44.8.8,0,0,0,0-.41c-.08-.45-.05-.71.11-.89a.39.39,0,0,0,.11-.2l-.69-4.37a.13.13,0,0,0-.15,0c-.07,0-.08.06-.06.27s0,.25,0,.26-.21-.14-.26-.5a1.78,1.78,0,0,0-.13-.5.62.62,0,0,1,0-.57.43.43,0,0,0,.07-.21.64.64,0,0,1,.17-.34l.08-.1L545,17.38,547.45,23a1.9,1.9,0,0,0,.26.29,1.58,1.58,0,0,0,.54.16.92.92,0,0,1,.88.59,4.46,4.46,0,0,1,.08.61c0,.39,0,.43-.08.56s-.11.15-.07.23a2,2,0,0,1,.13.75c0,.1,0,.26.18.42a.85.85,0,0,1,.15.28.57.57,0,0,0,.09.2.16.16,0,0,1,0,.1,1,1,0,0,0,.18.31c.28.36.27.52,0,.53-.09,0-.13,0-.15,0l3.44,7.83h.08a.4.4,0,0,1,.2.07.26.26,0,0,0,.21,0c.09,0,.14,0,.31.13s.32.18.68.08c.2-.05.26,0,.23.37a.55.55,0,0,0,.05.35c.12.15,0,.26-.26.21s-.15,0-.17,0l-.13.23a.46.46,0,0,0-.07.26.24.24,0,0,1,0,.14.42.42,0,0,0,0,.17.39.39,0,0,1,0,.19.17.17,0,0,0,0,.11l.37.83,0,.07-1.7,4.85Zm7.67,17.49c-.39-.14-.46-.21-.32-.33a.29.29,0,0,0,.08-.09.78.78,0,0,0-.2-.15,2.18,2.18,0,0,1-.61-.69.22.22,0,0,0-.19-.12,1.51,1.51,0,0,1-.77-.62,2.87,2.87,0,0,0-.15-.28.43.43,0,0,1-.06-.19.23.23,0,0,0-.07-.16l-.27-.22a.88.88,0,0,0-.28-.17.41.41,0,0,1-.18-.1A.8.8,0,0,0,553,55c-.2,0-.2-.05-.24-.25s0-.23-.07-.3l-.18-.14,1.73-5.84.23.19c.5.14.56.14.7.09s.32-.05.37.06a1.08,1.08,0,0,0,.24.25.62.62,0,0,0,.41.19h.49c.38,0,.38.21,0,.24a.62.62,0,0,0-.22,0,.56.56,0,0,0,.11.24,1.64,1.64,0,0,1,.17.36.29.29,0,0,0,.15.21.17.17,0,0,1,.11.18.42.42,0,0,0,.12.32l1.78,1.47-2,5.53s0,0,0,0,0,.41,0,.45S556.81,58.41,556.36,58.24Zm6,21.71,0,0-.36-.14-.27-.1-.07-.17a2.39,2.39,0,0,0-.1-.23l-.12-.23a.89.89,0,0,0-.2-.25.31.31,0,0,1-.06-.46c.08-.07.09-.11,0-.26a.28.28,0,0,1,0-.28.54.54,0,0,0,0-.34l-.68-1.53-.1-.1c-.12-.09-.18-.21-.32-.73a.3.3,0,0,0-.06-.13.46.46,0,0,1-.06-.21v-.06l-.47-1.06a1,1,0,0,0-.26-.2c-.25-.16-.26-.17-.31-.37s0-.24,0-.3a.15.15,0,0,0,0-.2l-.12-.22a1.32,1.32,0,0,0-.22-.28c-.15-.15-.17-.19-.23-.6s-.09-.46-.17-.51a.47.47,0,0,1-.14-.29.43.43,0,0,0-.21-.34c-.16-.12-.16-.12-.16-.46a1.34,1.34,0,0,0,0-.37l-1.16-2.6.11-.31a3.7,3.7,0,0,1,0-.79.19.19,0,0,1,.13-.05c.07,0,.09,0,.13-.16a1.31,1.31,0,0,0,.06-.24,1.29,1.29,0,0,1,.14-.32.53.53,0,0,0,.11-.38c0-.08-.06-.33-.09-.55-.07-.44-.15-.57-.39-.62s-.2-.07-.11-.37l.1-.39a1.65,1.65,0,0,0,0-.67.14.14,0,0,1,0-.17c.09-.1.22,0,.26.12s.09.2.22.19a.51.51,0,0,1,.26.1,1.63,1.63,0,0,0,.31.16c.15.06.15.06.29-.12l.07-.1.12-.35,4.12,3.32.67,4.08,0,0,.25.23.25-.08c.25-.08.25-.08.4.05a.9.9,0,0,0,.32.18c.27.07.48.26.4.35s-.16,0-.24-.07a.4.4,0,0,0-.46,0,.42.42,0,0,1-.31.12c-.09,0-.23.14-.21.25s-.1.19-.25.15l3,18.25Z"/><path class="cls-1" d="M777.62,69.7l-.44.06-.43.42a1.14,1.14,0,0,1-.8.42,13.65,13.65,0,0,0-2.7.52c-.59.21-.85,0-.42-.28s.37-.21-.69-.48c-.29-.07-.76-.63-.95-.42A1.07,1.07,0,0,1,770,70c-.08.21-.11.2-.6-.09s-.75,0-1.64,0a1.2,1.2,0,0,1-.46-.1l9.34,7.91V90.48l.21-.05c.27-.07.31,0,.65.89.2.53.4,1.09.44,1.26s.05.29-.24.22-.31-.06-.31.37a8.12,8.12,0,0,1-.31,1.53l-.31,1.09.27.36c.26.35.26.4.13,1.28a12.49,12.49,0,0,0-.14,1.25c0,.22-.22.3-.4.32v6.31a11.89,11.89,0,0,1-7.57,2.52c-9.83,0-15-10-15-33.33,0-22,4.65-33.2,16.2-33.2S790,57.22,794.38,65.45V63.4a.36.36,0,0,0-.1-.21.84.84,0,0,1-.18-.56,1.4,1.4,0,0,0-.3-.8c-.41-.53-.37-.75.18-1.22l.39-.34V34.69a.27.27,0,0,1,0-.1,1.37,1.37,0,0,0-.47-.52c-.43-.32-.49-.33-1.41-.15l-.8.16-5,3.09a35.19,35.19,0,0,0-15.09-4.6.42.42,0,0,0-.2.13.94.94,0,0,1-.63.27,3.73,3.73,0,0,0-1.11.36l-.7.34-.56-.29c-.66-.35-.75-.33-2.14.4a7.85,7.85,0,0,1-1.12.52c-.07,0-.28-.26-.45-.58-.27-.52-.36-.74-.8-.82C746.25,35,736.31,46.76,734.42,67.21c.13,0,.17,0,.39.46l.52,1c.36.68.2,1.46-.54,2.52a1.27,1.27,0,0,0-.26,1.07,3.69,3.69,0,0,0,.34,1.18,1.11,1.11,0,0,1-.19,1.49c-.2.26-.23.48-.23,1.69V78l.46.19a1.69,1.69,0,0,1,.53.29c0,.06-.13.35-.36.65a3.08,3.08,0,0,0-.51.93l-.09.39-.16-.33-.06-.11c.83,11.8,4.52,21.15,10.86,27.45l1.17.65.61-.07a2,2,0,0,1,.78,0c.35.2.25-.12-.2-.6-.26-.28-.41-.51-.35-.53a5.65,5.65,0,0,1,1.15.62c1,.64,1,.65.83.86s-.16.23,0,.35a3.85,3.85,0,0,1,.73.84,4.09,4.09,0,0,0,1.65,1.43l1.17.73.43,1.37a38.52,38.52,0,0,0,16.93,3.54,45,45,0,0,0,7.38-.59l.2-.14a1.76,1.76,0,0,1,1-.39s.1,0,.23.17l.08.08,1.2-.27,0-.31a.68.68,0,0,1,.08-.32,2.58,2.58,0,0,0,.17-.41,1.19,1.19,0,0,0,0-1.05l-.14-.36.09-.12a3.5,3.5,0,0,0,.39-.64,1.29,1.29,0,0,1,.19-.31.67.67,0,0,0,.26-.36.49.49,0,0,1,.15-.24.49.49,0,0,0,.14-.23c0-.13.14-.25.16-.19a.32.32,0,0,1-.06.14,2.06,2.06,0,0,0-.14.42,1,1,0,0,0,0,.53c0,.21,0,.22,0,.35a1.44,1.44,0,0,1-.18.22c-.11.11-.12.12-.07.25a1.45,1.45,0,0,1,.05.32.79.79,0,0,0,0,.23l.16.22a1.67,1.67,0,0,0,.24.28c.06.05.09.09.07.11a.94.94,0,0,0,0,.33c.05.27.05.3,0,.4a.32.32,0,0,0-.06.12,1,1,0,0,0,.15.15,22.51,22.51,0,0,0,5-2l7.57,3.59v-7a4.27,4.27,0,0,0-.51-1.76,4.1,4.1,0,0,1-.28-1.11l-.06-.63.34.07c.23,0,.36,0,.41-.09a3.73,3.73,0,0,0-.3-1.43c-.35-.83-.35-.85-.14-1.2a2.45,2.45,0,0,1,.4-.5c.06,0,.1-.14.13-.45V77.94l10-8.23Z"/><path class="cls-1" d="M1005.75,110.61c-.11,0-.28,0-.49,0a.9.9,0,0,1-.73-.34,2,2,0,0,0-1.43-.69c-.68-.11-.9-.22-1-.53,0-.11,0-.13.31-.17s.41-.13.1-.38a.84.84,0,0,1-.26-.4c-.06-.21-.1-.25-.22-.23a1.21,1.21,0,0,1-.5-.19l-.36-.21-.06-.4-.06-.4-.68-.31c-.52-.24,0-.53.66-.81V66.92l-.13-.12c-.14-.13-.16-.2-.16-.64a5.26,5.26,0,0,0-.09-.89,2.29,2.29,0,0,1,.17-1.5c.17-.35.17-.36.07-.64s-.1-.3,0-.53a.72.72,0,0,0,.11-.34V59.1c-.45-.19-.92-.3-.92-.37a1.36,1.36,0,0,0-.19-.46,1.31,1.31,0,0,1-.19-.55,1.5,1.5,0,0,0,0-.41.92.92,0,0,1,.09-.61,1.71,1.71,0,0,0-.06-1.37c-.15-.43-.11-.57.16-.58s.19,0,.21-.14a6.72,6.72,0,0,1,.34-.84l.32-.7-.06-.54-.06-.54-.32-.13c-.3-.13-.32-.14-.32-.34a5.49,5.49,0,0,0-.08-.67l-.08-.46.27-.09.27-.09-.3-.92c-.19-.57.42-.94,1-1.3V42.88l6.49-5.67c-.27.05-.21-.09.17-.42l.37-.3-.09-.22a1.66,1.66,0,0,1,0-1.06c.07-.12.06-.17-.07-.27l-.16-.13.25-.17h-3.78l-.15.13-.28.25-.59,0c-.58,0-.59,0-.65-.22a.48.48,0,0,0-.06-.13h-.21l-.24.14a1.78,1.78,0,0,1-.76.25,2.51,2.51,0,0,0-.58.13,5.63,5.63,0,0,1-2,.08l-1-.07-.29.26c-.33.29-.44.31-.67.14a3.3,3.3,0,0,0-.94-.43c-.18-.06-.34-.13-.34-.17s.14-.06.3-.06.54-.13.58-.27H977.69s0,0,0,0a1,1,0,0,1-.22.27c-.22.21-.23.21-.76.2s-.55,0-.59.14a.3.3,0,0,1-.33.24.86.86,0,0,0-.39.23,1,1,0,0,1-.33.22.8.8,0,0,1-.29-.19,2.35,2.35,0,0,0-.72-.37l-.31-.11a.12.12,0,0,1-.08-.09c0-.09.4-.08.64,0l.09,0a1.23,1.23,0,0,0,.43.11.45.45,0,0,0,.44-.2c.1-.12.17-.24.16-.27a.58.58,0,0,0-.31-.05.59.59,0,0,1-.29-.06.34.34,0,0,1-.1-.06l-.05-.06H947.3l.12.24-.54-.24h-2.4a.74.74,0,0,1,.18.13c.08.08.11.15.16.38a1,1,0,0,0,.09.3.14.14,0,0,1,0,.09c0,.11.14.24.43.47a.85.85,0,0,1,.39.49c.1.24.24.61.36,1l0,.09,6,5.29V66.93l.4.48.11.32c.09.26.09.33,0,.38s-.07.25.19.45.22.2.2.23a1.4,1.4,0,0,1-.44.11c-.37,0-.42,0-.58-.12a2.52,2.52,0,0,0-.59-.36c-.44-.2-.52-.31-.65-.9,0-.23,0-.26.17-.39L927.58,34.64H924.8l.09.12c.2.24.2.25,0,.42a2.89,2.89,0,0,1-1,.42c-.27.07-.33.06-.48,0a1.77,1.77,0,0,0-1-.34c-.32,0-.36,0-.45-.19-.19-.37-.58-.42-1.3-.16a2.47,2.47,0,0,1-.88.16h-.43l-.07-.23a.54.54,0,0,0-.09-.17h-19.8a2.87,2.87,0,0,0-.75.2,3,3,0,0,1-1.7.17,5.82,5.82,0,0,0-1.86.1,2.15,2.15,0,0,1-2-.21l-.46-.26H842.05l-.14,1.84c-.21.89-.45,1.32-.89,1.55s-.3.18,0,.84c.08.2.15.38.19.52l3.93,3.48v8.65l.18.21c.24.29.28.41.18.65a5.8,5.8,0,0,0-.19,1c-.08.68-.06.73.17.79s.31.17.43.88a4.33,4.33,0,0,0,.42,1.07,4.64,4.64,0,0,1,.35.72c0,.14-.41.1-.57-.05s-.18-.11-.28,0-.07.24.12.54a1.66,1.66,0,0,1,.25.64,6.12,6.12,0,0,1-.59,1.32l-.47.87v7.25a.59.59,0,0,1,.31.13,1.61,1.61,0,0,1,.14.51c.05.25,0,.38-.24.62l-.2.2.12.11a1.4,1.4,0,0,0,.29.2,1.7,1.7,0,0,1,.32.22c.26.24.25.23.31.09a1,1,0,0,0-.05-.66c-.08-.26-.08-.33,0-.46a.88.88,0,0,0,.11-.23.33.33,0,0,1,.13-.19l.15-.11a1.23,1.23,0,0,1,.49-.16,1.32,1.32,0,0,0,.54-.18c.17-.12.21-.1.23.07a.4.4,0,0,0,.09.23.27.27,0,0,1,.08.2c0,.09,0,.12.07.13s.39.26.39.34a.16.16,0,0,0,0,.11.13.13,0,0,1,0,.08,1.18,1.18,0,0,1-.28.38.51.51,0,0,1-.26,0c-.28-.08-.32-.07-.44.06a.36.36,0,0,1-.15.11c-.08,0-.37.27-.53.51a1.06,1.06,0,0,1-.19.23,1.86,1.86,0,0,0-.26.3,2.57,2.57,0,0,1-.32.37.34.34,0,0,0-.11.13c0,.05-.05.06-.28.06a.73.73,0,0,0-.52.15c-.29.16-.49.19-.63.1l-.31-.15a1.3,1.3,0,0,1-.26-.13.63.63,0,0,1,0-.21.51.51,0,0,0-.15-.53.65.65,0,0,1-.25-.58c0-.31.06-.48.17-.57H823.6V57.4l-.38.61,0-.11a.27.27,0,0,0-.06-.13.23.23,0,0,0-.24,0,.6.6,0,0,1-.18.12.33.33,0,0,1-.28,0c-.18-.05-.45-.27-.43-.34s-.08-.34-.33-.38-.13,0-.14-.08,0-.07.1-.12a.91.91,0,0,0,.35-.52,3.81,3.81,0,0,0-.11-.58c-.13-.55-.16-.45.22-.86a3.38,3.38,0,0,0,.34-.45,2,2,0,0,1,.2-.29s0-.08,0-.17a.69.69,0,0,1,0-.25.69.69,0,0,0-.05-.54c-.08-.13-.08-.16,0-.44a1.6,1.6,0,0,1,.08-.3s.19.17.23.25a.32.32,0,0,1,0,.25.53.53,0,0,0,0,.24c0,.06.06.17.35.83a1.11,1.11,0,0,0,.36.51V42.88l9.56-8.23h-15a1.05,1.05,0,0,0-.39.08c-.18.28-1.15.84-1.19.69-.13-.39-.41-.49-1.33-.49s-1,0-1.36.37l-.43.37-.44-.25c-.29-.17-.45-.35-.47-.55l0-.24H799.24l.15.31.12.23a1.43,1.43,0,0,0,.47.58c.08.06.14.12.14.16a.59.59,0,0,0,0,.17c.08.19.09.28,0,.28a.08.08,0,0,1-.06-.05s-.07,0-.34,0a1,1,0,0,0-.37.05.36.36,0,0,1-.32,0c-.07-.06-.4.23-.4.34a.24.24,0,0,1,0,.11l6.87,6.09v45c.14-.09.2-.09.42-.05s.28.06.28.13a1.52,1.52,0,0,0,.19.74,1.12,1.12,0,0,1,.13.28.81.81,0,0,1-.25.17l-.24.13-.12-.15c-.15-.18-.24-.15-.23.06a1.4,1.4,0,0,1-.11.43,1,1,0,0,0-.06.22V90s0,.07.08.07a.3.3,0,0,1,.13.09c.07.07.11.08.17,0A.28.28,0,0,0,806,90a.25.25,0,0,1,.06-.14,2.59,2.59,0,0,1,1.09-.06c.06,0,0,.14-.16.25a.33.33,0,0,0-.15.18.19.19,0,0,1-.07.12.33.33,0,0,0-.09.16.61.61,0,0,1-.15.23c-.13.13-.17.21-.11.29a.72.72,0,0,1,0,.3,1.93,1.93,0,0,0,.07.75.47.47,0,0,1,0,.25.64.64,0,0,0,0,.31c.05.13,0,.22-.16.18a.32.32,0,0,0-.22.07.35.35,0,0,0-.17.27.38.38,0,0,1-.13.24c-.12.08-.14.22-.06.4a1,1,0,0,1,0,.39c0,.28,0,.31.16.41a2,2,0,0,1,.77.81.38.38,0,0,1-.09.22,1.68,1.68,0,0,0-.18.61l-.08.49-.12,0c-.18,0-.26,0-.25.26s0,.22-.16.24l-.23.05a.21.21,0,0,1-.11,0v9.26l-9.3,8.23h4.4l.06,0a3,3,0,0,0,.55-.32.83.83,0,0,1,.41-.13,1,1,0,0,0,.63-.4c.31-.37.31-.37.73-.24a5.68,5.68,0,0,0,3,.18c1.27-.15,1.46-.15,1.67,0a.89.89,0,0,0,.69.11,12.9,12.9,0,0,1,3.24.84h21.57l-9.56-8.23V80.68l-.23-.6c.05-.21-.33-.37-.29-.31s-.62.2-.44-.09a.6.6,0,0,0,.14-.35.84.84,0,0,1,.25-.54,2.46,2.46,0,0,1,.57-.46c.13,0,.11-.09-.06-.22l-.21-.18-.11-.13a.24.24,0,0,0-.19-.06,1.57,1.57,0,0,1-.65-.15c-.12-.07-.13-.08-.42-.62l-.29-.55-.18-.13a1.23,1.23,0,0,0-.81-.22c-.14,0-.21,0-.24,0a4.36,4.36,0,0,0-1.3-1.18,1.3,1.3,0,0,1-.23-.14,1.06,1.06,0,0,1,0-.38c0-.06.12,0,.3.16a5.32,5.32,0,0,0,.81.66c.09,0,.16,0,.16-.05s0-.06.25.06a2,2,0,0,0,.86.28l.25,0,.2.36a3,3,0,0,0,.8,1A1.64,1.64,0,0,0,823,77a.4.4,0,0,0,0-.17,1.07,1.07,0,0,1,.32-.79.1.1,0,0,0,.06-.1,1,1,0,0,1,.09-.31,3,3,0,0,0,.14-.45.85.85,0,0,1,.06-.21.94.94,0,0,1,.15.24l.13.25-.06.17-.19.52a3.42,3.42,0,0,0-.13.39.3.3,0,0,0,.1.13,1.6,1.6,0,0,1,.41.64l.09.25.12,0,.3.06.17,0v.15a1.26,1.26,0,0,1,0,.29c0,.12,0,.15,0,.2l.05,0h0l.07,0c.15-.1.22-.1.42,0l.08,0h19.67v28.15l-5.55,4.91.25.1a1.36,1.36,0,0,0,.38.11c.08,0,.1,0,.14.14a2,2,0,0,0,.19.35c.13.19.13.21.09.26s-.05.05-.13,0l-.12,0-.24-.1-.21-.11,0,.07a.23.23,0,0,0,0,.26.46.46,0,0,1,.07.23l0,.17h.11c.15,0,.27.07.41.31a2.27,2.27,0,0,0,.21.29.22.22,0,0,1,.08.19c0,.09,0,.12.28.35l.32.28s0,0,.07,0,.05-.06.16.18a2.31,2.31,0,0,0,.17.31h25.27l.25-.52c.18-.37.36-.59.54-.64.48-.13.51-.17.86-1.18l.3-.87-5.74-5V82.76a2.1,2.1,0,0,1-.44-.18l-.55-.28c-.26-.12-.27-.13-.24-.19a.91.91,0,0,0,0-.77c-.06-.12-.06-.14,0-.38a1.81,1.81,0,0,0,.07-.91.92.92,0,0,1,0-.49,2.51,2.51,0,0,0,.22-.87c.05-.44,0-.54-.15-.71s-.09-.09,0-.18a.76.76,0,0,0,.08-.55.37.37,0,0,1,.07-.37.85.85,0,0,0,.12-.34.27.27,0,0,1,.11-.24c.07-.06.09-.1.09-.15a2,2,0,0,1,0-.26.91.91,0,0,0,0-.3c0-.1-.4-.43-.3-.64s-.1-.15-.08-.27a1.07,1.07,0,0,1,.42-.69,5.14,5.14,0,0,1,.65-1.44V42.88L871.18,36l6.23,5.59.14-.06.46-.2,0-.11c0-.11,0-.12.34-.22l.21-.06.27.53c.21.4.3.54.36.57a.58.58,0,0,1,.16.12.75.75,0,0,0,.18.14c.14.07.14.15,0,.38a1.44,1.44,0,0,0-.18.63c0,.17-.09.19-.22,0s-.12-.1-.14-.1l-.16.1V55.17l.18.16.41.36s0,.07,0,.18a.58.58,0,0,0-.05.25.58.58,0,0,1-.06.35c0,.12,0,.13,0,.24a2,2,0,0,1,.32.67l0,.17.2.09a.58.58,0,0,0,.29.06h.18c.08,0,.08,0,0,.19a.44.44,0,0,0,0,.54c.09.11.09.12,0,.21a.63.63,0,0,1-.25.18,1.41,1.41,0,0,0-.55.51l-.06.12h-.16c-.13,0-.16,0-.16-.07s0-.08-.19-.14a.8.8,0,0,1-.25-.16V71.79l.2.39c.34.68.35.76.13,1.17-.13.26-.14.45,0,1.14a5.1,5.1,0,0,0,.27,1.15,2.27,2.27,0,0,1,.09,1.22c-.07,1-.22,1.32-.58,1.43l-.07,0v28.17l-5.71,5.13v.07c0,.15.05.28.06.29l.05-.05s.08-.05.2,0l.15,0,.11.23a.86.86,0,0,1-.19,1.1l-.17.16.09.13a1.4,1.4,0,0,0,.23.24.46.46,0,0,1,.21.36s0,.06,0,.06h2.13c.08,0,.1,0,.12-.06a1.36,1.36,0,0,1,.33-.29,3.13,3.13,0,0,0,.37-.32l.16-.18c.08-.08.09-.08.15,0a1.57,1.57,0,0,0,.5.35l.12.06a1,1,0,0,1-.06.21.69.69,0,0,0-.06.22s.42,0,.92,0,1.22-.61,1.42-.61.76.09,1.12.09.68.53,1,.53h.59L883,114a1.24,1.24,0,0,0,.27-.51,1.34,1.34,0,0,1,.06-.21l.1.07a3.36,3.36,0,0,0,1,.35c.2,0,.3.08.34.13a1,1,0,0,0,.18.16.35.35,0,0,0,.33.06.92.92,0,0,0,.24-.06,1.12,1.12,0,0,0,.14-.22,2.83,2.83,0,0,1,.5-.65s.08,0,.12,0a4.23,4.23,0,0,1,.53,1s.52.28.45.3.86.1.86.1c0,.23.91-.08,1.16,0-.09,0,.57.12.56.13s0,0,0,.13h43.48a1.49,1.49,0,0,1,.09-.29c.06-.1,0-.14-.08-.2s-.13-.1-.2-.27a.63.63,0,0,0-.22-.32c-.2-.16-.14-.18.1,0a.53.53,0,0,0,.66,0l.07,0-8.13-7.1v-3.23l-.19-.18a3.1,3.1,0,0,1-.39-.46.65.65,0,0,0-.25-.25c-.11,0-.13-.1-.13-.66a7,7,0,0,0-.07-1c-.07-.39-.07-.41.11-.7s.29-.33.29-.06,0,.17.13-.06a1.06,1.06,0,0,1,.19-.28.93.93,0,0,0,.06-.44,7.16,7.16,0,0,1,.07-.89,1.2,1.2,0,0,0,0-.79,1,1,0,0,0-.15-.3.49.49,0,0,0-.15.11c-.11.1-.12.09-.25-.18a1.5,1.5,0,0,1-.13-.39c0-.06.13-.2.29-.31a2.55,2.55,0,0,0,.48-.47l.12-.16V62.53l16.66,22.65c.16-.11.28-.18.32-.16a2.47,2.47,0,0,1,.87,1.25c0,.14.08.32.71,1.26a9.63,9.63,0,0,0,.77,1.07.61.61,0,0,0,.08-.22.51.51,0,0,0-.13-.45c-.19-.27-.28-.6-.17-.6a8.36,8.36,0,0,1,.79,1l.73,1.05-.12.21c-.18.31-.12.48.57,1.48.52.76.64.9.8,1s.2.06.25-.05.07-.12.09-.12l.41.12c.43.13.4.08.66,1a2,2,0,0,0,1,1.44l.37.22-.1.61c0,.18,0,.35-.06.48l11.79,16a.2.2,0,0,0,.12,0s.08,0,.09,0c.2.3.42.59.55.75a3.3,3.3,0,0,1,.66,1c.14.29.22.32.54.23a1.19,1.19,0,0,1,.54,0,.88.88,0,0,0,.53-.07,3,3,0,0,1,.53-.17v-9.32a.62.62,0,0,1-.43-.44l-.1-.46.26-.64.28-.66v-.91l-.1-.17c-.23-.39-.37-.57-.45-.56-.33,0-.36,0-.36-.79s0-1.46.07-2c0-.2.1-.27.14-.11s.13.12.21,0a4.26,4.26,0,0,1,.34-.32l.15-.13v-.31a5,5,0,0,1-.32-1.3.09.09,0,0,0-.07-.1c-.05,0-.1,0-.11,0a.06.06,0,0,1-.07,0s0-.17,0-.35.36-.61.56-1v-29h0l-.14.18v-.42a1.75,1.75,0,0,0-.13-.72c-.15-.33-.12-.41.22-.87l.06-.08V60.55h0c-.22-.24-.26-.4-.26-1s.11-1,.28-1.06V56.07l-.08-.08a.54.54,0,0,1-.19-.51A.93.93,0,0,0,965,55c-.1-.14-.1-.16,0-.39a2.41,2.41,0,0,0,0-1.63l-.13-.19.15-.16a2.1,2.1,0,0,0,.29-.49l0-.07V42.88l8-6.89,7.67,6.89v5.47a.78.78,0,0,0,.16-.14c.25-.27.38-.18.38.26a1.29,1.29,0,0,0,.06.38c.05.14,0,.19-.11.32a.57.57,0,0,1-.29.16c-.16,0-.15.06.06.27s.18.22.18.78,0,.6-.22.83-.22.24-.14.48a2,2,0,0,1,.07.47,1.12,1.12,0,0,0,.19.52,1.25,1.25,0,0,1,.19.43,1.26,1.26,0,0,1-.32.47l-.23.24V87.07l.18-.18c.11-.12.22-.21.25-.19a.66.66,0,0,1,.06.34,1.9,1.9,0,0,0,.1.56c.19.49.18.57-.05.77l-.21.18,0,.7,0,.7.2.23a.84.84,0,0,1,.2.31,2,2,0,0,1-.16.43,2,2,0,0,0-.16,1.06v.72l-.22.18-.14.11v1.76h0c.18,0,.23,0,.45.33s.29.35.39.35.15.05.18.16a2.6,2.6,0,0,0,.15.4,1.22,1.22,0,0,1,.11.4c0,.14,0,.16-.22.16s-.23,0-.25.08-.06.06-.16,0a.64.64,0,0,0-.27-.08c-.11,0-.13,0-.09.19a.45.45,0,0,1-.08.37c-.09.14-.12.31-.12.89s0,.7-.11.85v7.65l-8,7.23a2,2,0,0,1,.35.13c.31.16.32.16.55,0s.32-.2.72.06a2.68,2.68,0,0,0,1.13.39c.36.07.52.19.6.45h34ZM914.3,74.73h-.21v.52a2.81,2.81,0,0,1-.45,1.57l-.19.31.16.14c.13.11.18.26.26.69s.13.7.17.89a1,1,0,0,1,0,.7,5.21,5.21,0,0,0-.15,1.12,2.64,2.64,0,0,0,.19,1.41l.23.66-.25.18c-.3.21-.31.18.11,1.37l.31.87v2l-.37.39c-.28.29-.37.44-.37.58a6.36,6.36,0,0,1-.42,1.41.89.89,0,0,0,0,.24v16.76L906,112.81l-1.94-1.69c-.15,0-.3,0-.46,0-.46,0-.51,0-1.1-.69s-.67-.74-1.46-.85l-.51-.07-.35-.76a11.23,11.23,0,0,0-.73-1.33c-.26-.39-.34-.52-.29-.62l-.4-.35V94.7l-.05-.05h-.16c-.14,0-.17,0-.29-.12a1.18,1.18,0,0,1-.18-.21l-.1-.16c0-.05-.06-.06,0-.09s0-.06-.12-.2-.17-.15-.24-.13a2,2,0,0,1-.25,0,.9.9,0,0,0-.29.06.12.12,0,0,1-.16,0l-.36-.24a3.73,3.73,0,0,1-.36-.25.38.38,0,0,0-.22-.09,3.44,3.44,0,0,1-.79-.12C895,93,895,93,895,92.79a1.24,1.24,0,0,0-.16-.51.25.25,0,0,0-.14,0c-.13,0-.18,0-.23-.18s-.05-.38.07-.38.13-.14.11-.37l0-.23.17-.18a.58.58,0,0,1,.49-.24c.12,0,.12,0,.4-.33l.28-.33.22.16c.2.14.23.17.29.31l.07.15.26-.29a1.5,1.5,0,0,1,.54-.44c.46-.26.7-.42.71-.5a.13.13,0,0,0,0-.09,1.22,1.22,0,0,1-.11-.22l-.08-.2.22-.21c.15-.14.24-.2.27-.2a2.63,2.63,0,0,0,.49,0V60.17c-.28-.28-.35-.57-.42-1.45-.05-.66,0-.93.05-1s.11-.45.06-1.53l-.07-1.45.38-.72h0V42.88L906,36.56l7.24,6.32V72.47a.41.41,0,0,0,.17-.13.38.38,0,0,1,.19-.13,7.18,7.18,0,0,1,.65,1.56,1.14,1.14,0,0,0,.23.4C914.77,74.51,914.7,74.73,914.3,74.73Z"/><path class="cls-1" d="M378.76,83.87c.05,0,.05.1,0-1,0-.91,0-.93-.07-.94a.54.54,0,0,0-.24.1c-.2.13-.21.17-.21.64a.73.73,0,0,0,.16.56.28.28,0,0,1,.06.12,1.65,1.65,0,0,0,.1.28h0C378.67,83.77,378.73,83.87,378.76,83.87Z"/></svg>