<?xml version="1.0" encoding="utf-8"?>
<svg version="1.1"
			 xmlns="http://www.w3.org/2000/svg" xmlns:xlink="http://www.w3.org/1999/xlink" xmlns:a="http://ns.adobe.com/AdobeSVGViewerExtensions/3.0/"
			 x="0px" y="0px" width="393.3px" height="392.8px" viewBox="0 0 393.3 392.8" style="enable-background:new 0 0 393.3 392.8;"
			 xml:space="preserve">
		<defs>
		</defs>
		<path class="ring_1 st0" d="M374.4,133.6c-3.9-10.6-8.9-21.4-14.9-32.1l0-0.1c0-0.1-0.1-0.1-0.1-0.2C351.4,88,341.5,75.1,330,63l-0.1-0.1
			c-12.2-11.6-25.1-21.5-38.4-29.5l-0.1,0c-10.9-6.1-21.9-11.2-32.6-15.1c-0.2-0.1-0.4-0.2-0.6-0.2c-1-0.4-2-0.7-3-1.1
			c-0.2-0.1-0.4-0.1-0.6-0.2l2.4-7.5l0-0.1l0.1-0.4c0.5,0.2,0.9,0.3,1.4,0.5c1,0.4,2,0.7,2.9,1.1c13.9,5.2,27.2,11.3,39.1,18.8
			c13.2,8.3,25.3,18.2,35.8,28.6c8.8,8.8,16.5,18.3,23.2,28.4c1.7,2.6,3.3,5.2,4.9,7.9c8.3,12.7,14.3,26.4,19.3,40.7l-7.8,2.5
			C375.3,136.1,374.9,134.9,374.4,133.6z M384.5,137.8l-7.8,2.5c0.3,0.9,0.6,1.8,0.9,2.7c0.5,1.7,0.7,2.4,1.2,4.1
			c4.5,16.1,6.7,33,6.7,50.3c0,17.4-2.3,34.1-6.7,49.7c-0.4,1.5-0.9,3.1-1.4,4.6l7.5,2.4c5.3-18.1,8.2-36.6,8.2-55.7
			c0.5-20-1.8-38.6-7.9-58C385.1,139.7,384.8,138.7,384.5,137.8z M375.2,258.3c-3.9,10.9-9.4,21.7-15.7,33l0,0.1
			c0,0.1-0.1,0.1-0.1,0.2c-8.3,13.8-18.2,26.5-29.5,37.8c-3.9,3.9-8,7.7-12.4,11.3c-7.8,6.5-16.4,12.5-26.1,18.3
			c-13.1,7.9-28.2,14.3-44.7,19c-14.8,4.1-30.2,6.3-45.9,6.7c-0.2,0-0.4,0-0.5,0v8.2c12.6-0.2,24.7-1.8,36.8-4.4
			c13.8-2.8,26.4-6.6,38.5-12.1c12.7-5.5,24.2-12.1,35.2-20.4c6.7-4.7,12.9-9.8,18.9-15.4c3.9-3.6,7.6-7.5,11.3-11.6
			c6.6-7,12.7-14.6,18.2-22.7c2.3-3.3,4.4-6.7,6.5-10.3c7.2-12.1,13.2-25.1,18.1-38.9l-7.6-2.4C376.1,255.8,375.7,257.1,375.2,258.3z
			 M227.9,2.2C217.4,0.6,206.9,0,196.5,0c-1.3,0-2.6,0-3.9,0c-8.7,0.1-17.8,0.7-26.4,2.2C155.8,3.8,146,6,136.1,9.3c0,0-0.1,0-0.1,0
			c-17.6,6.1-33,13.2-47.9,23.1c-14.3,9.4-27,20.4-38.5,33C44,71.9,38.9,78.6,34.1,85.6c-4.6,6.9-8.8,14-12.6,21.6
			c-7.7,14.9-13.2,30.8-17.1,47.3c-3.3,16.5-5,33.6-4.4,50.6c1.1,17.6,3.9,34.7,9.9,51.7c5.6,17.7,13.5,34.5,24.1,49.9
			c0.9,1.3,1.9,2.7,2.8,4c7.3,10.8,16,20.7,25.8,29.7c5.7,5.2,11.8,10.2,18.2,14.8c8.3,6.1,17.1,11,25.9,16
			c8.2,3.9,16.5,7.3,25.5,10.3c1.2,0.4,2.4,0.8,3.7,1.2c9.4,3.3,19.3,6.1,29.7,7.7c8.8,1.5,18.1,2.1,27.5,2.2c1.1,0,2.2,0,3.3,0v-8.2
			c-1.1,0-2.2,0-3.4,0c-0.2,0-0.4,0-0.5,0c-16-0.3-31.4-2.5-45.8-6.7c-1.6-0.4-3.1-0.9-4.6-1.3c-1.2-0.4-2.5-0.8-3.7-1.2
			c-1.2-0.4-2.5-0.8-3.7-1.2c-12-4.1-23-9.2-33.2-15.3c-5.6-3.4-10.8-6.8-15.6-10.3c-3.6-2.6-7-5.3-10.3-8c-4.3-3.6-8.3-7.4-12-11.3
			c-10.7-10.2-20.3-22.5-29.5-37.8c0-0.1-0.1-0.1-0.1-0.2c-6.7-11.2-12.2-23.4-16.5-36.9c-0.9-2.7-1.7-5.5-2.5-8.4
			c-4.4-15.6-6.7-32.3-6.7-49.7c0-17.2,2.3-34.1,6.7-50.2c4.7-16.5,11.1-31.5,19-44.7c0-0.1,0.1-0.1,0.1-0.2
			c9-14.9,18.6-27.4,29.5-38.3c11.3-11.3,24.1-21.2,37.9-29.6l0.1,0c15.4-8.6,30.2-14.8,45.2-19c7.9-2.3,16.1-3.9,24.6-5.1
			c6.9-0.9,14-1.5,21.3-1.6c1.3,0,2.6,0,3.9,0v0c1.3,0,2.6,0,3.9,0c7.1,0.1,14.2,0.7,21.2,1.6c8.5,1.1,16.9,2.8,25.1,5.1
			c1.3,0.4,2.7,0.8,4,1.2l1.2-3.7l1-3.2l0.4-1.2C244.9,5.2,236.3,3.6,227.9,2.2z"/>
		<path class="ring_2 st0" d="M247.8,23.3c0.2,0,0.3,0.1,0.5,0.1l-1.1,3.5c-0.2-0.1-0.3-0.1-0.5-0.2c-0.9-0.3-1.8-0.5-2.8-0.8
			c-14.3-3.8-28.4-5.8-43.2-6.1v-3.7c8.3,0.1,16.5,0.7,24.8,2C232.9,19.3,240.3,21.2,247.8,23.3z M252.4,24.2c0,0-0.1,0-0.1,0
			l-0.1,0.3l-1.2,3.6c0,0,0.1,0,0.1,0c0.2,0.1,0.3,0.1,0.5,0.2c0.9,0.3,1.8,0.6,2.7,0.9c0.2,0.1,0.3,0.1,0.5,0.2c0,0,0.1,0,0.1,0
			c0.2,0.1,0.3,0.1,0.5,0.2c0.6,0.2,1.1,0.4,1.7,0.6c4.5,1.7,9,3.5,13.5,5.6c5.1,2.4,10.3,5.1,15.5,8.1c12.8,7.7,24.7,17,35.4,27.7
			c7.9,7.9,15,16.4,21.2,25.4c2.3,3.3,4.4,6.6,6.5,10c5.8,10,10.4,19.8,14,29.7c0.1,0.2,0.2,0.5,0.3,0.8c0.1,0.2,0.2,0.5,0.3,0.7
			l3.7-1.2c-0.2-0.5-0.4-1-0.5-1.5c-1.1-3-2.2-5.9-3.5-8.8c-3.5-8.4-7.7-16.6-12.7-24.2c-7.1-12.1-15.7-23.2-25.8-33.3
			c-9.6-9.6-20.7-18.7-32.8-26.3c-10.9-6.8-23-12.4-35.5-17.1c-0.2-0.1-0.3-0.1-0.5-0.2c-0.2-0.1-0.4-0.2-0.6-0.2
			C254.5,24.9,253.4,24.5,252.4,24.2z M369.7,247.9c4.8-16.4,7.4-33.2,7.4-50.5c0.5-18.2-2.2-36-7.7-53.7c-0.1-0.2-0.1-0.4-0.2-0.6
			c-0.2-0.8-0.5-1.6-0.7-2.3l-3.5,1.1c0.3,0.8,0.5,1.6,0.7,2.3c0.1,0.2,0.1,0.4,0.2,0.6c0.4,1.4,0.9,2.9,1.3,4.3
			c4.1,15.6,6.2,31,6.2,47.2c0,16.4-2,31.7-6.2,46.7c-0.3,1.2-0.7,2.4-1,3.6c0,0.1-0.1,0.2-0.1,0.3l3.5,1.1
			C369.6,248,369.6,247.9,369.7,247.9z M363.7,254.3c0,0.1-0.1,0.2-0.1,0.3c-0.1,0.2-0.1,0.3-0.2,0.5c-3.6,10.3-8.4,20.3-14.3,30.1
			c-7.5,13-16.6,24.8-27.7,35.9c-3.9,3.9-8.1,7.7-12.6,11.3c-4.9,4-10.1,7.8-15.7,11.4c-2.3,1.5-4.7,3-7.1,4.5
			c-14,8.1-27.5,13.9-41.4,17.8c-0.3,0.1-0.5,0.1-0.8,0.2c-6.9,1.8-13.8,3.3-20.7,4.3c-7.3,1.1-14.6,1.7-22,1.8c-0.1,0-0.3,0-0.4,0
			c0,0-0.1,0-0.1,0v4.2c0,0,0.1,0,0.1,0c11.3-0.3,22.3-1.7,33.3-4c12.6-2.5,24.2-6.1,35.4-11.1c11.1-4.8,21.3-10.6,31-17.7
			c0.5-0.3,0.9-0.7,1.4-1c10.1-7.1,19.2-15.2,27.8-24.8c8.6-9.1,16.2-19.2,22.7-30.3c4.3-7.2,7.9-14.9,11.2-22.8
			c1.3-3.1,2.5-6.2,3.6-9.3c0-0.1,0.1-0.2,0.1-0.3c0.4-1.2,0.9-2.3,1.3-3.5l-3.6-1.1C364.5,252,364.1,253.1,363.7,254.3z M196.7,376.7
			v-4.2c-0.1,0-0.3,0-0.4,0c-1,0-2.1,0-3.1,0c-0.1,0-0.3,0-0.4,0c0,0-0.1,0-0.1,0c-0.1,0-0.3,0-0.4,0c-14.6-0.3-28.4-2.3-42-6
			c-0.1,0-0.2-0.1-0.3-0.1c-1.3-0.3-2.6-0.7-3.9-1.1l-1.2,3.7c7.5,2.5,15.3,4.5,23.5,5.8c7.7,1.3,15.8,1.8,23.9,2c0.2,0,0.3,0,0.5,0
			c0.1,0,0.3,0,0.4,0c1,0,2.1,0,3.1,0C196.4,376.7,196.6,376.7,196.7,376.7z M136.8,366.2c0.2,0.1,0.3,0.1,0.5,0.2
			c1.1,0.4,2.2,0.7,3.3,1.1c0.2,0.1,0.3,0.1,0.5,0.2l1.2-3.6c-0.2-0.1-0.3-0.1-0.5-0.2c-1.1-0.4-2.2-0.7-3.3-1.1
			c-0.2-0.1-0.3-0.1-0.5-0.2c-4.2-1.5-8.4-3.2-12.5-5c-6-2.7-11.8-5.8-17.7-9.3c-2.5-1.5-5-2.9-7.4-4.5c-1.4-0.9-2.7-1.8-4.1-2.7
			l-0.2,0.2l-1.8,2.4l-0.6,0.8c6.6,4.5,13.5,8.4,20.5,12.3C121.6,360.4,128.9,363.5,136.8,366.2z M50.2,301.4
			c9.9,14.6,22.4,27.5,37.2,38.6c0.9,0.7,1.8,1.4,2.7,2c0.2,0.1,0.3,0.2,0.5,0.3l2.5-3.4c-0.2-0.1-0.3-0.2-0.5-0.3
			c-0.9-0.7-1.8-1.3-2.8-2c0,0,0,0,0,0c-6.5-4.8-12.4-9.9-17.9-15.5c-10.3-10.3-19.2-22.1-27.2-35.9c-3.2-5.3-6-10.6-8.5-16
			c-2.2-4.8-4.2-9.6-5.9-14.6l-0.6,0.2l-3,1c0.9,2.8,1.9,5.5,3,8.3C34.9,277.2,41.6,289.8,50.2,301.4z M196.3,16.1c-1.2,0-2.4,0-3.6,0
			c-0.1,0-0.3,0-0.4,0c-7.8,0.1-15.7,0.7-23.4,2c-9.6,1.5-18.7,3.5-27.8,6.6c-16.2,5.6-30.3,12.1-43.9,21.2
			C84,54.4,72.4,64.5,61.8,76.2c-10.1,11.6-18.7,24.2-25.8,38.4c-2.3,4.5-4.4,9.1-6.4,13.8c-3.9,9.5-6.9,19.5-9.3,29.6
			c-3,15.2-4.5,30.8-4,46.5c0.9,14.9,3.1,29.3,7.8,43.7c0.4,1.1,0.7,2.2,1.1,3.3c0.1,0.2,0.1,0.3,0.2,0.5l3.6-1.2
			c-0.1-0.2-0.1-0.3-0.2-0.5c-0.3-1.1-0.7-2.2-1-3.3c-0.4-1.3-0.7-2.6-1.1-3.9c-0.2-0.7-0.4-1.4-0.5-2.1c-3.8-14.4-5.6-29-5.6-44.7
			c0-15.1,1.7-29.5,5.3-43.9c0.3-1.1,0.6-2.2,0.8-3.3c0.9-3.2,1.9-6.4,3-9.6c1.4-4.1,3-8.2,4.7-12.2c2.9-6.7,6.3-13.5,10.3-20.3
			C53,93.2,61.9,81.6,71.9,71.6C78,65.5,84.3,60,91,55.1c4.9-3.7,10.1-7.1,15.4-10.3c0.3-0.2,0.7-0.4,1-0.6c0.2-0.1,0.4-0.2,0.5-0.3
			c13.6-8.1,27.4-14,42.1-18c13.7-3.8,27.6-5.8,42.3-6.1c0.1,0,0.3,0,0.4,0c1.2,0,2.4,0,3.6,0c0,0,0,0,0,0c0.1,0,0.3,0,0.4,0v-3.7
			C196.6,16.1,196.4,16.1,196.3,16.1C196.3,16.1,196.3,16.1,196.3,16.1z"/>
		<path class="ring_1 st0" d="M200.1,357.7c-0.1,0-0.3,0-0.4,0c-0.8,0-1.5,0-2.3,0c-0.2,0-0.4,0-0.7,0c-0.1,0-0.3,0-0.4,0c0,0,0,0-0.1,0
			c-0.1,0-0.3,0-0.4,0c-13.4-0.3-26.1-2.1-38.8-5.8c-1-0.3-2-0.6-3.1-0.9l0,0c-0.2,0-0.3-0.1-0.5-0.1c-1.1-0.3-2.1-0.6-3.2-1
			c-0.2,0-0.3-0.1-0.5-0.1c-1.1-0.3-2.1-0.7-3.2-1l0,0c-0.2-0.1-0.3-0.1-0.5-0.2c-8.3-2.9-16.3-6.4-23.8-10.7
			c-1.3-0.7-2.6-1.5-3.9-2.3c-3.5-1.9-6.9-4-10.1-6.3c0,0,0,0,0,0c-1.1-0.7-2.1-1.4-3.1-2.2c-0.2-0.1-0.3-0.2-0.4-0.3
			c-0.9-0.6-1.7-1.3-2.6-2l0,0c-5.8-4.4-11.2-9.3-16.3-14.6c-10-9.5-18.6-20.4-25.3-32.6c-5.3-8.5-9.6-17.8-12.9-27.4l0,0
			c-0.4-1.2-0.8-2.4-1.2-3.6c-0.1-0.2-0.1-0.3-0.2-0.5c-0.3-1.1-0.7-2.1-1-3.2c0,0,0,0,0,0c-0.4-1.3-0.7-2.5-1.1-3.8
			c-1.8-6-3.1-12.1-4-18.2c-1.3-8.1-1.8-16.3-1.8-24.8c0-8.5,0.6-16.7,1.8-24.8c1-6.1,2.3-12.2,4-18.2c3.6-13.6,9.1-26.2,16.3-38.5
			c6.8-11.8,15.4-22.6,25.3-32.6c9.5-9.5,20.4-18.1,32.6-24.9c11.8-7.2,24.9-12.7,38.5-16.3c12.7-3.7,25.4-5.5,38.8-5.8
			c0.1,0,0.3,0,0.4,0c0,0,0,0,0,0c0.4,0,0.7,0,1.1,0c0.8,0,1.5,0,2.3,0c0,0,0,0,0,0c0.1,0,0.3,0,0.4,0c0,0,0,0,0,0c0,0,0,0,0,0v5.4
			c0,0,0,0,0,0c0,0,0,0,0,0c0,0,0,0,0,0c-0.1,0-0.3,0-0.4,0c0,0,0,0,0,0c-0.8,0-1.5,0-2.3,0c0,0,0,0,0,0c-0.4,0-0.7,0-1.1,0
			c0,0,0,0,0,0c-0.1,0-0.3,0-0.4,0c-12.9,0.3-25.2,2.2-36.8,5.5c-12.4,3.4-24.6,8.5-37.3,15.6l-0.1,0c-11.5,6.9-22,15.1-31.3,24.4
			c-9,9-17,19.4-24.4,31.8c-6.5,10.9-11.8,23.3-15.7,36.9c-3.7,13.3-5.5,27.2-5.5,41.5c0,14.4,1.9,28.2,5.5,41
			c0.4,1.3,0.7,2.5,1.1,3.8c0,0,0,0,0,0c0.3,1.1,0.6,2.1,1,3.2c0.1,0.2,0.1,0.3,0.2,0.5c0.4,1.2,0.8,2.4,1.2,3.6v0
			c3.3,9.5,7.4,18.2,12.2,26.3c7.6,12.6,15.6,22.9,24.4,31.3c4.6,4.8,9.8,9.4,15.6,13.8l0,0c0.9,0.7,1.7,1.3,2.6,1.9
			c0.1,0.1,0.3,0.2,0.5,0.3c1,0.7,2.1,1.5,3.1,2.2l0,0c3,2.1,6.2,4.1,9.5,6.1c4.7,2.8,9.6,5.4,14.7,7.6c3.8,1.7,7.7,3.2,11.8,4.7
			c0.2,0.1,0.3,0.1,0.5,0.2c0,0,0,0,0,0c1,0.4,2.1,0.7,3.1,1c0.2,0.1,0.3,0.1,0.5,0.2c1,0.3,2.1,0.7,3.2,1c0.2,0,0.3,0.1,0.5,0.1
			c0,0,0,0,0,0c1,0.3,2,0.6,3.1,0.9c11.6,3.3,24,5.1,36.8,5.5c0.1,0,0.3,0,0.4,0c0,0,0,0,0,0c0.1,0,0.3,0,0.4,0c0.2,0,0.4,0,0.7,0
			c0,0,0,0,0,0c0.8,0,1.5,0,2.3,0c0.1,0,0.3,0,0.4,0c0,0,0,0,0,0c0,0,0,0,0,0L200.1,357.7C200.1,357.7,200.1,357.7,200.1,357.7z
			 M203.9,350.2C203.9,350.2,204,350.2,203.9,350.2c0.2,0,0.3,0,0.4,0c12.7-0.3,24.8-2.1,36.8-5.6c4.4-1.2,8.7-2.5,12.9-4.1
			c8.4-3.1,16.4-6.9,23.9-11.5c11.7-6.5,22.1-14.7,31.2-23.8c9.5-9.5,17.8-19.9,24.3-31.2c5.3-8.9,9.5-18,12.8-27.6v0
			c0-0.1,0.1-0.2,0.1-0.3c0.4-1.2,0.8-2.3,1.1-3.5c0-0.1,0.1-0.2,0.1-0.3c0.4-1.2,0.7-2.3,1-3.5v0c0-0.1,0-0.2,0.1-0.3
			c0.1-0.5,0.3-1,0.4-1.5c1.1-3.7,2-7.5,2.8-11.2c2-9.7,2.9-19.6,2.9-29.9c0-14.3-1.7-27.7-5.6-41.2c-0.3-1.2-0.7-2.4-1-3.6
			c-0.1-0.3-0.2-0.6-0.2-0.8c-0.1-0.2-0.1-0.4-0.2-0.6c-0.2-0.8-0.5-1.6-0.7-2.4c-0.1-0.2-0.1-0.3-0.2-0.5c0-0.1-0.1-0.2-0.1-0.3
			c-0.1-0.2-0.1-0.4-0.2-0.6c-0.3-0.8-0.5-1.6-0.8-2.3c-0.1-0.3-0.2-0.6-0.3-0.8c-0.1-0.2-0.1-0.4-0.2-0.5c-3.1-8.5-7-16.7-11.7-24.3
			c-6.5-11.7-14.7-22.1-24.3-31.2c-9.1-9.5-19.5-17.8-31.2-24.3c-8.3-5.1-17.3-9.2-26.6-12.5c-0.2-0.1-0.3-0.1-0.5-0.2c0,0,0,0-0.1,0
			c-0.2-0.1-0.3-0.1-0.5-0.2c-0.9-0.3-1.8-0.6-2.7-0.9c-0.2-0.1-0.3-0.1-0.5-0.2c0,0,0,0-0.1,0c-0.2-0.1-0.3-0.1-0.5-0.2
			c-0.9-0.3-1.8-0.5-2.7-0.8c-0.2,0-0.3-0.1-0.5-0.1c0,0,0,0-0.1,0c-0.2,0-0.3-0.1-0.5-0.1c-0.6-0.2-1.1-0.3-1.7-0.5
			c-12.2-3.5-24.4-5.3-37.3-5.6c0,0,0,0,0,0c-0.1,0-0.3,0-0.4,0c-0.2,0-0.5,0-0.7,0v5.4c0,0,0,0,0,0c0.2,0,0.5,0,0.7,0
			c0.1,0,0.3,0,0.4,0c0,0,0,0,0,0c12.3,0.3,24.3,2.1,35.8,5.2c0.5,0.1,1,0.3,1.5,0.4c0.2,0.1,0.3,0.1,0.5,0.2c0,0,0,0,0,0
			c0.2,0,0.3,0.1,0.5,0.2c0.9,0.3,1.8,0.6,2.7,0.9c0.2,0.1,0.3,0.1,0.5,0.2c0,0,0,0,0,0c0.2,0.1,0.3,0.1,0.5,0.2
			c0.9,0.3,1.8,0.6,2.7,0.9c0.2,0.1,0.3,0.1,0.5,0.2c0,0,0,0,0,0c0.2,0.1,0.3,0.1,0.5,0.2c8.4,3.1,16.8,7,25.3,11.7l0.1,0
			c10.6,6.3,20.8,14.2,30.4,23.4l0.1,0.1c9.2,9.6,17,19.8,23.3,30.4l0,0.1c4.3,7.7,8,15.4,10.9,23.1c0.1,0.2,0.1,0.4,0.2,0.5
			c0.1,0.3,0.2,0.5,0.3,0.8c0.3,0.8,0.6,1.6,0.9,2.3c0.1,0.2,0.1,0.4,0.2,0.5c0,0.1,0.1,0.2,0.1,0.3c0.1,0.2,0.1,0.3,0.2,0.5
			c0.3,0.8,0.5,1.6,0.8,2.4c0.1,0.2,0.1,0.4,0.2,0.6c0.1,0.3,0.2,0.6,0.3,0.8c0.4,1.1,0.7,2.3,1,3.4c3.5,12.8,5.3,26.2,5.3,39.8
			c0,13.8-1.8,27-5.3,39.4c-0.1,0.5-0.3,1.1-0.5,1.6c0,0.1,0,0.2-0.1,0.3v0c-0.3,1.2-0.7,2.3-1.1,3.5c0,0.1-0.1,0.2-0.1,0.3
			c-0.4,1.2-0.8,2.3-1.2,3.5c0,0.1-0.1,0.2-0.1,0.3c0,0,0,0,0,0c-3.1,8.7-7,17.4-12,26.3l0,0.1c-6.6,11-14.5,21.1-23.4,30
			c-8.6,8.6-18.6,16.3-30.5,23.4c-10.4,6.2-22.3,11.3-35.4,15c-1.3,0.4-2.6,0.7-3.9,1c-10.2,2.5-20.8,3.9-31.6,4.2c-0.1,0-0.3,0-0.4,0
			c0,0,0,0,0,0c-0.1,0-0.3,0-0.4,0c-0.2,0-0.5,0-0.7,0c0,0,0,0,0,0v4.1v1.3c0.2,0,0.5,0,0.7,0C203.7,350.2,203.8,350.2,203.9,350.2z
			 M202.9,331.2v7.6c0.2,0,0.4,0,0.7,0c0.1,0,0.3,0,0.4,0c0,0,0,0,0,0c0.1,0,0.3,0,0.4,0c11.6-0.3,22.6-1.9,33.7-5.1
			c12-3.2,23.6-8,34-14.4c10.8-6,20.4-13.6,28.8-22c8.8-8.8,16.4-18.4,22.4-28.8c4.9-8.3,8.9-16.8,11.9-25.7v0c0-0.1,0.1-0.2,0.1-0.3
			c0.4-1.2,0.8-2.3,1.1-3.5c0-0.1,0.1-0.2,0.1-0.3c0.4-1.2,0.7-2.3,1-3.5v0c0-0.1,0-0.2,0.1-0.3c0-0.2,0.1-0.3,0.1-0.5
			c3.6-12.4,5.2-24.8,5.2-38c0-13.2-1.6-25.6-5.2-38c-0.3-1.2-0.7-2.4-1-3.6c-0.1-0.3-0.2-0.5-0.2-0.8c-0.1-0.2-0.1-0.4-0.2-0.6
			c-0.2-0.8-0.5-1.6-0.8-2.4c-0.1-0.2-0.1-0.3-0.2-0.5c0-0.1-0.1-0.2-0.1-0.3c-0.1-0.2-0.1-0.4-0.2-0.6c-0.3-0.8-0.5-1.6-0.8-2.4
			c-0.1-0.3-0.2-0.5-0.3-0.8c-0.1-0.2-0.1-0.4-0.2-0.5c-2.8-7.5-6.3-14.8-10.4-21.5c-6-10.8-13.6-20.4-22.4-28.8
			c-8.4-8.8-18-16.4-28.8-22.4c-7.6-4.7-15.9-8.5-24.4-11.5c-0.2-0.1-0.3-0.1-0.5-0.2c0,0,0,0,0,0c-0.2-0.1-0.3-0.1-0.5-0.2
			c-0.9-0.3-1.8-0.6-2.7-0.9c-0.2-0.1-0.3-0.1-0.5-0.2c0,0,0,0,0,0c-0.2-0.1-0.3-0.1-0.5-0.2c-0.9-0.3-1.8-0.6-2.8-0.8
			c-0.2,0-0.3-0.1-0.5-0.1c0,0,0,0,0,0c-0.2,0-0.3-0.1-0.5-0.1c-0.3-0.1-0.7-0.2-1-0.3c-11.2-3.2-22.3-4.9-34.1-5.1c0,0,0,0,0,0
			c-0.1,0-0.3,0-0.4,0c-0.2,0-0.5,0-0.7,0v7.6c0,0,0,0,0,0c0.2,0,0.4,0,0.7,0c0.1,0,0.3,0,0.4,0c0,0,0,0,0,0
			c11.2,0.3,21.7,1.9,32.1,4.8c0.2,0.1,0.5,0.1,0.7,0.2c0.2,0,0.3,0.1,0.5,0.2c0,0,0,0,0,0c0.2,0,0.3,0.1,0.5,0.1
			c0.9,0.3,1.9,0.5,2.8,0.8c0.2,0.1,0.3,0.1,0.5,0.2c0,0,0,0,0,0c0.2,0.1,0.3,0.1,0.5,0.2c0.9,0.3,1.8,0.6,2.7,0.9
			c0.2,0.1,0.3,0.1,0.5,0.2c0,0,0,0,0,0c0.2,0.1,0.3,0.1,0.5,0.2c8.3,2.9,16,6.5,23,10.5c10.3,6.2,19.3,13.1,27.4,21.2
			c8.1,8.1,15,17,21.2,27.3c3.6,6.2,6.8,12.9,9.5,20.1c0.1,0.2,0.1,0.4,0.2,0.5c0.1,0.3,0.2,0.5,0.3,0.8c0.3,0.8,0.6,1.6,0.9,2.4
			c0.1,0.2,0.1,0.4,0.2,0.6c0,0.1,0.1,0.2,0.1,0.3c0.1,0.2,0.1,0.3,0.2,0.5c0.3,0.8,0.5,1.6,0.8,2.4c0.1,0.2,0.1,0.4,0.2,0.6
			c0.1,0.3,0.2,0.5,0.2,0.8c0.3,1.1,0.7,2.2,1,3.3c3.3,11.6,4.9,23.3,4.9,35.9c0,12.5-1.6,24.6-4.9,35.9c0,0.1,0,0.1,0,0.2
			c0,0.1-0.1,0.2-0.1,0.3v0c-0.3,1.2-0.7,2.3-1.1,3.5c0,0.1-0.1,0.2-0.1,0.3c-0.4,1.2-0.8,2.3-1.2,3.5c0,0.1-0.1,0.2-0.1,0.3v0
			c-2.9,8.3-6.5,16.3-10.9,24.2l-0.1,0.1c-6.8,10.9-13.8,19.9-21.2,27.3c-8.4,8.4-17.4,15.2-27.4,20.9c-9.5,5.5-20.3,10-32.2,13.4
			c-10.2,2.9-20.6,4.5-31.7,4.8c-0.1,0-0.3,0-0.4,0c0,0,0,0,0,0c-0.1,0-0.3,0-0.4,0C203.3,331.2,203.1,331.2,202.9,331.2
			C202.9,331.2,202.9,331.2,202.9,331.2z"/>
		<path class="ring_2 st0" d="M78.5,196.5l0,1l-2.9,0l0-1L78.5,196.5z M73.6,195l0,1l4.9,0l0-1L73.6,195z M76.1,193.5l0,1l2.5,0l0-1
			L76.1,193.5z M78.6,192.1l-6.7-0.2l-1.3,0l0,1l1.3,0l6.7,0.2L78.6,192.1z M78.7,190.6l-1,0l0,1l1,0L78.7,190.6z M78.8,189.1
			l-1.2-0.1l-0.1,1l1.2,0.1L78.8,189.1z M78.9,187.6l-3.1-0.2l-0.1,1l3.1,0.2L78.9,187.6z M79,186.1l-6.8-0.6l-0.7-0.1l-0.1,1l0.7,0.1
			l6.7,0.6L79,186.1z M79.1,184.7l-6.8-0.6l-2.4-0.2l-0.1,1l2.4,0.2l6.8,0.6L79.1,184.7z M79.3,183.2l-6.7-0.7l-2.7-0.3l-0.2,0l-0.1,1
			l0.2,0l2.7,0.3l6.7,0.7L79.3,183.2z M79.5,181.7l-6.8-0.8l-0.3,0l-0.1,1l0.3,0l6.8,0.8L79.5,181.7z M79.6,180.3l-5.4-0.7l-0.1,1
			l5.4,0.7L79.6,180.3z M79.8,178.8l-2.2-0.3l-0.1,1l2.2,0.3L79.8,178.8z M80.1,177.3l-6.7-1.1l-2.5-0.4l-0.2,1l2.5,0.4l6.7,1.1
			L80.1,177.3z M80.3,175.9l-6.7-1.2l-0.3-0.1l-0.2,1l0.3,0.1l6.7,1.2L80.3,175.9z M80.6,174.4l-5.4-1l-0.2,1l5.4,1L80.6,174.4z
			 M80.9,173l-4.5-0.9l-0.2,1l4.5,0.9L80.9,173z M81.2,171.5l-3.3-0.7l-0.2,1l3.3,0.7L81.2,171.5z M81.5,170.1l-6.7-1.5l-1.3-0.3
			l-0.2,1l1.4,0.3l6.7,1.5L81.5,170.1z M81.8,168.7l-6-1.4l-0.2,1l6,1.4L81.8,168.7z M82.2,167.2l-6.6-1.7l-1.5-0.4l-0.2,1l1.5,0.4
			l6.6,1.7L82.2,167.2z M82.6,165.8L76,164l-1.2-0.3l-0.3,1l1.2,0.3l6.6,1.7L82.6,165.8z M83,164.4l-4.3-1.2l-0.3,1l4.3,1.2L83,164.4z
			 M83.4,162.9l-2.2-0.6l-0.3,1l2.2,0.6L83.4,162.9z M79.6,161.3l3.9,1.2l0.3-1l-3.9-1.2L79.6,161.3z M84.3,160.1l-3.2-1l-0.3,0.9
			l3.2,1L84.3,160.1z M84.7,158.7l-2.7-0.9l-0.3,0.9l2.7,0.9L84.7,158.7z M85.2,157.3l-6.5-2.2l-1.5-0.5l-0.3,0.9l1.5,0.5l6.5,2.2
			L85.2,157.3z M76.8,153.8l2.1,0.8l6.5,2.3l0.3-0.9l-6.5-2.3l-2.1-0.8L76.8,153.8z M85.9,155.5l0.3-0.9l-2.1-0.8l-0.3,0.9L85.9,155.5
			z M86.8,153.2l-4-1.6l-0.4,0.9l4,1.6L86.8,153.2z M78.8,148.4l-0.4,0.9l2.1,0.9l6.4,2.6l0.4-0.9l-6.4-2.6L78.8,148.4z M87.5,151.3
			l0.4-0.9l-5.7-2.4l-0.4,0.9L87.5,151.3z M88.5,149.1l-6.4-2.8l-0.2-0.1l-0.4,0.9l0.2,0.1l6.4,2.8L88.5,149.1z M89.1,147.7l-1.1-0.5
			l-0.4,0.9l1.1,0.5L89.1,147.7z M80.9,143.4l2,0.9l6.4,2.9l0.4-0.9l-6.4-2.9l-2-0.9L80.9,143.4z M89.9,145.9l0.4-0.9l-3-1.4l-0.4,0.9
			L89.9,145.9z M91,143.7l-6.3-3.1l-1-0.5l-0.4,0.9l1,0.5l6.3,3.1L91,143.7z M83.5,138.3l-0.4,0.9l1.8,0.9l6.3,3.2l0.4-0.9l-6.3-3.2
			L83.5,138.3z M87,139.4l4.9,2.5l0.5-0.9l-4.9-2.5L87,139.4z M93.1,139.8l-2-1.1l-0.5,0.9l2,1.1L93.1,139.8z M87,135.9l6.3,3.5
			l0.5-0.9l-6.3-3.4l-1.1-0.6l-0.5,0.9L87,135.9z M86.1,133.6l1.7,1l6.2,3.5l0.5-0.9l-6.2-3.5l-1.7-1L86.1,133.6z M94.8,136.8l0.5-0.9
			l-4.8-2.9l-0.5,0.9L94.8,136.8z M88.4,130l-0.5,0.8l1.5,0.9l6.1,3.8l0.5-0.8l-6.2-3.8L88.4,130z M96.3,134.3l0.5-0.8l-4.6-2.9
			l-0.5,0.8L96.3,134.3z M97.1,133l0.5-0.8l-6-3.9l-0.5,0.8L97.1,133z M97.9,131.8l0.6-0.8l-3.7-2.5l-0.6,0.8L97.9,131.8z M91.8,124.6
			l-0.6,0.8l1.4,0.9l6.1,4.2l0.6-0.8l-6.1-4.2L91.8,124.6z M99.5,129.3l0.6-0.8l-5.9-4.1l-0.6,0.8L99.5,129.3z M94.5,122.6l-0.6,0.8
			l0.5,0.4l6,4.3l0.6-0.8l-6-4.4L94.5,122.6z M101.3,126.9l0.6-0.8l-4.4-3.3l-0.6,0.8L101.3,126.9z M95,120.3l1.2,0.9l6,4.5l0.6-0.8
			l-6-4.5l-1.2-0.9L95,120.3z M97.2,118.8l-0.6,0.8l0.5,0.4l5.9,4.6l0.6-0.8l-5.9-4.6L97.2,118.8z M104,123.4l0.6-0.8l-2.5-2l-0.6,0.8
			L104,123.4z M104.9,122.2l0.6-0.8l-2.3-1.9l-0.6,0.8L104.9,122.2z M106.5,120.3l-3.8-3.1l-0.6,0.8l3.8,3.1L106.5,120.3z
			 M107.4,119.2l-1.9-1.6l-0.6,0.8l1.9,1.6L107.4,119.2z M102.3,112.8l-0.7,0.7l0.4,0.3l5.7,5l0.7-0.7l-5.7-5L102.3,112.8z M108,117.1
			l0.7,0.7l0.7-0.7l-0.7-0.7L108,117.1z M110.4,115.9l-0.9-0.8l-0.7,0.7l0.9,0.8L110.4,115.9z M111.4,114.8l-2.3-2.2l-0.7,0.7l2.3,2.2
			L111.4,114.8z M112.4,113.8l-5.4-5.2l-0.7,0.7l5.4,5.2L112.4,113.8z M106.2,107l1.1,1.1l5.4,5.4l0.7-0.7l-5.4-5.4l-1.1-1.1
			L106.2,107z M107.7,104.8l-0.7,0.7l1.5,1.5l5.4,5.4l0.7-0.7l-5.4-5.4L107.7,104.8z M110,106.3l4.9,5.1l0.7-0.7l-4.9-5.1L110,106.3z
			 M112.2,106.3l3.8,4l0.7-0.7l-3.8-4L112.2,106.3z M117.8,108.7l-1.5-1.7l-0.7,0.7l1.5,1.7L117.8,108.7z M112.7,100.7l-0.7,0.7
			l1.1,1.3l5,5.7l0.7-0.7l-5-5.7L112.7,100.7z M114.6,101.9l4.7,5.4l0.8-0.6l-4.7-5.4L114.6,101.9z M116.9,102.2l3.5,4.2l0.8-0.6
			l-3.5-4.2L116.9,102.2z M121.5,105.5l0.8-0.6l-2.9-3.6l-0.8,0.6L121.5,105.5z M122.7,104.5l0.8-0.6l-2.1-2.6l-0.8,0.6L122.7,104.5z
			 M119.6,96.5l-0.8,0.6l0.4,0.5l4.7,6l0.8-0.6l-4.7-6L119.6,96.5z M125,102.7l0.8-0.6l-3.7-4.9l-0.8,0.6L125,102.7z M122,94.5
			l-0.8,0.6l0.4,0.6l4.5,6.1l0.8-0.6l-4.5-6.1L122,94.5z M123.5,93.8l-0.8,0.6l0.2,0.3l4.5,6.2l0.8-0.6l-4.5-6.2L123.5,93.8z
			 M126,96.5l2.5,3.6l0.8-0.6l-2.5-3.6L126,96.5z M129.8,99.2l0.8-0.6l-1.3-1.9l-0.8,0.6L129.8,99.2z M128.7,95l2.3,3.4l0.8-0.6
			l-2.3-3.4L128.7,95z M130.4,94.8l1.8,2.8l0.8-0.5l-1.8-2.8L130.4,94.8z M134.3,96.2l-1.5-2.4l-0.8,0.5l1.5,2.4L134.3,96.2z
			 M130.3,88.8l0.4,0.6l4.1,6.6l0.8-0.5l-4.1-6.6l-0.3-0.6L130.3,88.8z M132.1,86.9l-0.9,0.5l0.7,1.2l4,6.7l0.9-0.5l-4-6.7L132.1,86.9
			z M137.3,94.5l0.9-0.5l-1.1-2l-0.9,0.5L137.3,94.5z M139.4,93.3l-2.1-3.8l-0.9,0.5l2.1,3.8L139.4,93.3z M136.3,84.5l-0.9,0.5
			l0.7,1.2l3.8,6.9l0.9-0.5l-3.8-6.8L136.3,84.5z M138.2,86.9l2.9,5.5l0.9-0.5l-2.9-5.5L138.2,86.9z M139.1,85.3l3.3,6.4l0.9-0.5
			l-3.3-6.4L139.1,85.3z M143.8,91l0.9-0.4l-0.5-1.1l-0.9,0.4L143.8,91z M141.9,81.6L141,82l0.6,1.3l3.4,7l0.9-0.4l-3.4-7L141.9,81.6z
			 M146.4,89.7l0.9-0.4l-1.4-3l-0.9,0.4L146.4,89.7z M144.4,81.6l0.2,0.4l3.2,7l0.9-0.4l-3.2-7l-0.2-0.4L144.4,81.6z M146.3,79.7
			l-0.9,0.4l0.6,1.3l3.1,7.1L150,88l-3.1-7.1L146.3,79.7z M148.4,82.8l2.1,5.1l0.9-0.4l-2.1-5.1L148.4,82.8z M151.8,87.3l0.9-0.4
			l-0.8-2.1l-0.9,0.4L151.8,87.3z M151.1,78.6l-0.9,0.4l0.2,0.6l2.8,7.2l0.9-0.4l-2.8-7.2L151.1,78.6z M152.3,77.3l-0.9,0.3l0.5,1.3
			l2.7,7.3l0.9-0.3l-2.7-7.3L152.3,77.3z M156,85.7l0.9-0.3l-1.9-5.3l-0.9,0.3L156,85.7z M155.4,76.4l-0.9,0.3l0.4,1.1l2.5,7.3
			l0.9-0.3l-2.5-7.4L155.4,76.4z M157,79.5l1.7,5.2l0.9-0.3l-1.7-5.2L157,79.5z M158,77.4l2.2,6.8l0.9-0.3l-2.2-6.8L158,77.4z
			 M161.6,83.8l1-0.3l-1.3-4.2l-1,0.3L161.6,83.8z M161.4,74.4l-1,0.3l0.3,1.2l2.2,7.5l1-0.3l-2.2-7.5L161.4,74.4z M162.5,76l1.9,6.9
			l1-0.3l-1.9-6.9L162.5,76z M164.7,74.5l-1,0.3l0,0.2l2,7.6l1-0.3l-2-7.6L164.7,74.5z M167.3,82.2l1-0.2l-1.3-5.3l-1,0.2L167.3,82.2z
			 M167.6,72.8l-1,0.2l0.3,1.1l1.8,7.7l1-0.2l-1.8-7.7L167.6,72.8z M169.1,72.4l-1,0.2l0.2,1.1l1.7,7.7l1-0.2l-1.7-7.7L169.1,72.4z
			 M170.3,75l1.3,6.1l1-0.2l-1.3-6.1L170.3,75z M174,80.7l-1.5-7.8l-0.2-1.1l-1,0.2l0.2,1.1l1.5,7.8L174,80.7z M174.5,80.6l1-0.2
			l-0.4-2.2l-1,0.2L174.5,80.6z M174.9,74l1.1,6.3l1-0.2l-1.1-6.3L174.9,74z M178.4,79.9l-0.8-4.8l-1,0.2l0.8,4.8L178.4,79.9z
			 M178.4,76.9l0.4,2.9l1-0.1l-0.4-2.9L178.4,76.9z M181.3,79.5l-0.6-4.9l-1,0.1l0.6,4.9L181.3,79.5z M181.8,79.4l1-0.1l-0.3-2.4
			l-1,0.1L181.8,79.4z M184.2,79.1l-0.9-7.9l0-0.1l-1,0.1l0,0.1l0.9,7.9L184.2,79.1z M185.6,78l-1,0.1l0.1,1l1-0.1L185.6,78z
			 M187.1,77.7l-1,0.1l0.1,1.2l1-0.1L187.1,77.7z M188.4,75.6l-1,0.1l0.2,3.1l1-0.1L188.4,75.6z M189.7,71.2l-1,0.1l0.4,7.4l1-0.1
			L189.7,71.2z M191.6,78.6l-0.4-8l-0.1-1.2l-1,0l0.1,1.2l0.4,8L191.6,78.6z M192.6,78.5l0.4,0l0,0l0.1,0l-0.1-2.9l0-0.3l-0.2-4.8
			l-0.1-1.7l-0.2,0l-0.8,0l0.1,1.7l0.3,8L192.6,78.5z M194.1,78.5L194.1,78.5L194.1,78.5L194.1,78.5L194.1,78.5l0.5,0l-0.1-7.1l-0.3,0
			l0,0l0,0l0,0l0,0l0,0l-0.7,0l0.1,7.1L194.1,78.5L194.1,78.5z M196,73l-1,0l0,5.5l1,0L196,73z M196.8,78.5L196.8,78.5L196.8,78.5
			L196.8,78.5L196.8,78.5L196.8,78.5L196.8,78.5l0.7,0l0-2.3l-0.7,0l0,0l0,0l0,0l0,0l0,0l0,0l0,0l-0.3,0l0,2.3L196.8,78.5L196.8,78.5z
			 M199.2,69.2l-1,0l0,1.4l-0.2,8l1,0l0.2-8L199.2,69.2z M199.6,75.9l0,0.2l0,0.3l0,0.2l-0.1,1.9l0.1,0l0,0l0,0l0,0l0,0l0,0l0.7,0
			l0.2,0l0.1-4.4l0-0.3l0.1-2.6l-0.1,0l0,0l-0.4,0l-0.5,0l-0.1,4.1l0,0.2L199.6,75.9z M201.1,73.1l-0.2,5.5l1,0l0.2-5.5L201.1,73.1z
			 M202.7,74l-0.2,4.6l1,0l0.2-4.6L202.7,74z M204.1,75.4l-0.2,3.3l1,0.1l0.2-3.3L204.1,75.4z M206,70.8l-0.6,8l1,0.1l0.6-8l0-0.2
			l-1-0.1L206,70.8z M206.9,78.9l1,0.1l0.5-6.2l-1-0.1L206.9,78.9z M209.1,71.1l-0.8,8l1,0.1l0.8-8l0-0.3l-1-0.1L209.1,71.1z
			 M210.7,71.2l-0.9,8l1,0.1l0.9-8l0,0L210.7,71.2L210.7,71.2z M211.3,79.4l1,0.1l0.5-4.4l-1-0.1L211.3,79.4z M214,77.4l-1-0.1
			l-0.3,2.2l1,0.1L214,77.4z M214.2,79.8l1,0.1l0.6-4.1l-1-0.1L214.2,79.8z M215.7,80l1,0.2l0.5-3.3l-1-0.2L215.7,80z M217.1,80.2
			l1,0.2l0.5-2.8l-1-0.2L217.1,80.2z M220.1,72.6l-1.5,7.9l1,0.2l1.5-7.9l0.1-0.4l-1-0.2L220.1,72.6z M221.6,72.9l-1.6,7.9l1,0.2
			l1.6-7.8l0.2-1.1l-1-0.2L221.6,72.9z M221.5,81.1l1,0.2l0.5-2.2l-1-0.2L221.5,81.1z M222.9,81.4l1,0.2l0.9-4.2l-1-0.2L222.9,81.4z
			 M226.2,74l-1.8,7.8l1,0.2l1.8-7.8l0.3-1.2l-1-0.2L226.2,74z M225.8,82.1l1,0.2l1.5-6l-1-0.2L225.8,82.1z M227.2,82.5l1,0.3l1.8-6.9
			l-1-0.3L227.2,82.5z M229.2,83l0.5,0.1l0.3-1.1l-0.4-0.1l-0.5-0.1l0,0l-0.1,0l-0.3,1.1l0,0l0,0L229.2,83z M232.3,75.7l-2.2,7.6
			l1,0.3l2.2-7.6l0.4-1.3l-1-0.3L232.3,75.7z M232.4,84L232.4,84l1.1-3.2l0,0l0,0l-0.5-0.1l-0.4-0.1l-1,3.2l0.4,0.1L232.4,84L232.4,84
			z M235.3,76.6l-2.4,7.5l0.9,0.3l2.4-7.5l0.1-0.3l-0.9-0.3L235.3,76.6z M236.8,77.1l-2.5,7.5l0.9,0.3l2.5-7.5l0.4-1.2l-0.9-0.3
			L236.8,77.1z M237.7,79.9L237.7,79.9l-0.1,0l-1.9,5.2l0.2,0.1l0,0l0.4,0.2l0.2,0.1l1.9-5.2l-0.4-0.1L237.7,79.9z M237.1,85.6
			l0.9,0.3l0.8-2.1l-0.9-0.3L237.1,85.6z M241.4,78.7l-2.9,7.4l0.9,0.4l2.9-7.4l0.2-0.4l-0.9-0.4L241.4,78.7z M242.8,79.3l-2.9,7.3
			l0.9,0.4l2.9-7.3l0.5-1.1l-0.9-0.4L242.8,79.3z M241.3,87.2l0.9,0.4l2.2-5.2l-0.9-0.4L241.3,87.2z M245.8,80.4l-3.1,7.3l0.9,0.4
			l3.1-7.3l0.4-0.9l-0.9-0.4L245.8,80.4z M244,88.3l0.9,0.4l2.2-5l-0.9-0.4L244,88.3z M245.3,88.9l0.9,0.4l3-6.5l-0.9-0.4L245.3,88.9z
			 M246.7,89.5l0.9,0.4l1.9-4l-0.9-0.4L246.7,89.5z M251.5,83l-3.5,7.2l0.9,0.4l3.5-7.2l0.5-0.9l-0.9-0.4L251.5,83z M249.3,90.8
			l0.9,0.4l3.2-6.4l-0.9-0.4L249.3,90.8z M254.3,84.4l-3.7,7.1l0.9,0.5l3.7-7.1l0,0L254.3,84.4L254.3,84.4z M252,92.2l0.9,0.5l2.6-4.8
			l-0.9-0.5L252,92.2z M257.1,85.8l-3.9,7l0.9,0.5l3.9-7l0.5-0.9l-0.9-0.5L257.1,85.8z M255.5,94.1l0.9,0.5l1.6-2.7l-0.9-0.5
			L255.5,94.1z M256.7,94.8l0.9,0.5l1.5-2.5l-0.9-0.5L256.7,94.8z M258,95.6l0.8,0.5l2.6-4.2l-0.8-0.5L258,95.6z M259.3,96.4l0.8,0.5
			l1.3-2.1l-0.8-0.5L259.3,96.4z M264.9,90.5l-4.3,6.7l0.8,0.5l4.3-6.7l0-0.1L264.9,90.5L264.9,90.5z M261.7,98l0.8,0.6l0.5-0.8
			l-0.8-0.6L261.7,98z M264.5,98.4l-0.8-0.6l-0.7,1l0.8,0.6L264.5,98.4z M264.2,99.6l0.8,0.6l1.8-2.6l-0.8-0.6L264.2,99.6z
			 M265.4,100.5l0.8,0.6l4.4-6.1l-0.8-0.6L265.4,100.5z M271.3,95l-4.7,6.4l0.8,0.6l4.7-6.4l0.8-1.1l-0.8-0.6L271.3,95z M272.6,95.9
			l-4.8,6.3l0.8,0.6l4.8-6.3l1.1-1.4l-0.8-0.6L272.6,95.9z M269,103.2l0.8,0.6l4.3-5.6l-0.8-0.6L269,103.2z M273.5,99.8l-3.4,4.3
			l0.8,0.6l3.4-4.3L273.5,99.8z M272.1,105.6l1.4-1.8l-0.8-0.6l-1.4,1.8L272.1,105.6z M277.5,99.9l-5.1,6.1l0.8,0.6l5-6l0.9-1.1
			l-0.8-0.6L277.5,99.9z M273.6,106.9l0.8,0.6l4.7-5.4l-0.8-0.6L273.6,106.9z M275.4,108.5l3.6-4.1l-0.7-0.7l-3.6,4.1L275.4,108.5z
			 M275.8,108.8l0.7,0.7l3.1-3.4l-0.7-0.7L275.8,108.8z M276.9,109.8l0.7,0.7l2.3-2.5l-0.7-0.7L276.9,109.8z M283.3,105.1l-5.4,5.7
			l0.7,0.7l5.4-5.7l0.3-0.3l-0.7-0.7L283.3,105.1z M284,108.1l-0.7-0.7l-4.3,4.5l0.7,0.7L284,108.1z M285.7,107.4l-5.6,5.5l0.7,0.7
			l5.6-5.5l0.4-0.4L286,107L285.7,107.4z M286.8,108.5l-5.6,5.4l0.7,0.7l5.6-5.4l0.1-0.1l-0.7-0.7L286.8,108.5z M285.4,112l-3.2,3
			l0.7,0.7l3.2-3L285.4,112z M283.8,116.8l1.7-1.5l-0.7-0.7l-1.7,1.5L283.8,116.8z M284.1,117.2l0.7,0.7l3.1-2.8l-0.7-0.7L284.1,117.2
			z M285.1,118.3l0.7,0.7l2.5-2.2l-0.7-0.7L285.1,118.3z M286.1,119.4l0.6,0.8l2.2-1.9l-0.6-0.8L286.1,119.4z M293.1,115.5l-6,5
			l0.6,0.8l6-5l0.5-0.4l-0.6-0.8L293.1,115.5z M294.1,116.7l-6.1,4.9l0.6,0.8l6-4.9l1-0.8l-0.6-0.8L294.1,116.7z M289,122.8l0.6,0.8
			l1.8-1.4l-0.6-0.8L289,122.8z M293.9,122.1l-0.6-0.8l-3.4,2.6l0.6,0.8L293.9,122.1z M297,120.4l-6.2,4.7l0.6,0.8l6.2-4.7l1.1-0.9
			l-0.6-0.8L297,120.4z M296.6,122.6l-5,3.7l0.6,0.8l5-3.7L296.6,122.6z M292.5,127.5l0.6,0.8l5.8-4.2l-0.6-0.8L292.5,127.5z
			 M294.9,128.8l-0.6-0.8l-1,0.7l0.6,0.8L294.9,128.8z M300.7,125.5l-6.4,4.4l0.6,0.8l6.4-4.4l1.2-0.8l-0.6-0.8L300.7,125.5z
			 M297.8,129.3l-2.8,1.9l0.6,0.8l2.8-1.9L297.8,129.3z M302.4,128.1l-6.5,4.2l0.5,0.8l6.5-4.2l0.3-0.2l-0.5-0.8L302.4,128.1z
			 M303.3,129.5l-6.6,4.2l0.5,0.8l6.6-4.2l1.1-0.7l-0.5-0.8L303.3,129.5z M302.1,132l-4.7,2.9l0.5,0.8l4.7-2.9L302.1,132z M298.7,137
			l1.9-1.2l-0.5-0.9l-1.9,1.2L298.7,137z M305.7,133.5l-6.7,3.9l0.5,0.9l6.7-3.9l0.5-0.3l-0.5-0.9L305.7,133.5z M306.5,134.9l-6.8,3.8
			l0.5,0.9l6.8-3.8l1.2-0.7l-0.5-0.9L306.5,134.9z M305.8,138.2l-0.5-0.9l-4.9,2.7l0.5,0.9L305.8,138.2z M308,137.6l-6.8,3.7l0.5,0.9
			l6.8-3.6l1.1-0.6l-0.5-0.9L308,137.6z M301.8,142.6l0.4,0.9l4.9-2.5l-0.4-0.9L301.8,142.6z M308.9,140.8l-6.4,3.2l0.4,0.9l6.4-3.2
			L308.9,140.8z M307.1,143.4l-4,1.9l0.4,0.9l4-1.9L307.1,143.4z M310.8,143.4l-7,3.2l0.4,0.9l7-3.2l1.2-0.6l-0.4-0.9L310.8,143.4z
			 M310.9,145l-6.6,2.9l0.4,0.9l6.6-2.9L310.9,145z M312,146.3l-7,3l0.4,0.9l7-3l0.4-0.2l-0.4-0.9L312,146.3z M310.6,148.5l-5.1,2.1
			l0.4,0.9l5.1-2.1L310.6,148.5z M313.2,149.2l-7.1,2.8l0.4,0.9l7.1-2.8l1.3-0.5l-0.4-0.9L313.2,149.2z M315.1,150.1l-1.3,0.5
			l-7.1,2.7l0,0l0.2,0.5l0.2,0.4l7.1-2.7l0.3-0.1l1.1-0.4l-0.2-0.5L315.1,150.1z M313.5,153.5l-0.3-0.8l-0.1-0.1l-3,1.1l-2.9,1.1
			l0.3,0.9L313.5,153.5z M314.8,153.6l-7.1,2.6l0.3,0.8l0,0.1l3.9-1.4l3.2-1.1l1.4-0.5l-0.3-0.9L314.8,153.6z M310.5,157l-0.1-0.2
			l-2.1,0.7l0.1,0.2l0.2,0.5l0.1,0.3l2.1-0.7l-0.1-0.2L310.5,157z M314.8,156.9l-6.1,2l0.3,0.9l6.1-2L314.8,156.9z M309.5,161.3
			l4.7-1.5l-0.1-0.2l-0.2-0.5l-0.1-0.2l-4.7,1.5l0.1,0.2l0.2,0.5L309.5,161.3z M309.9,162.7l2.8-0.9l-0.3-0.9l0-0.1l-2.8,0.9l0,0.1
			L309.9,162.7z M314.8,161.8l-4.7,1.4l0.3,1l4.7-1.4L314.8,161.8z M312.8,163.9l-2.4,0.7l0.3,1l2.4-0.7L312.8,163.9z M318.2,164.1
			l-7.3,1.9l0.3,1l7.3-1.9l0.5-0.1l-0.3-1L318.2,164.1z M311.2,167.5l0.2,1l1-0.2l-0.2-1L311.2,167.5z M311.6,168.9l0.2,1l1.1-0.3
			l-0.2-1L311.6,168.9z M315,169.6l-3.1,0.7l0.2,1l3.1-0.7L315,169.6z M312.2,171.8l0.2,1l7.3-1.5l-0.2-1L312.2,171.8z M320,171.7
			l-7.4,1.5l0.2,1l7.4-1.5l1.6-0.3l-0.2-1L320,171.7z M320.3,173.3l-7.4,1.4l0.2,1l7.4-1.4l2.1-0.4l-0.2-1L320.3,173.3z M320,174.9
			l-7,1.2l0.2,1l7-1.2L320,174.9z M318.8,176.7l-5.4,0.9l0.2,1l5.4-0.9L318.8,176.7z M313.7,180l2.2-0.3l-0.1-1l-2.2,0.3L313.7,180z
			 M321.2,179.5l-7.5,1l0.1,1l7.5-1l1.8-0.2l-0.1-1L321.2,179.5z M314,182l0.1,1l7.1-0.9l-0.1-1L314,182z M319.7,183.8l-0.1-1
			l-5.5,0.6l0.1,1L319.7,183.8z M319,185.5l-0.1-1l-4.6,0.4l0.1,1L319,185.5z M317.8,187.1l-0.1-1l-3.3,0.3l0.1,1L317.8,187.1z
			 M322,187.3l-7.5,0.5l0.1,1l7.5-0.5l0.8-0.1l-0.1-1L322,187.3z M314.6,189.3l0.1,1l6.2-0.4l-0.1-1L314.6,189.3z M323.1,190.4l-0.9,0
			l-7.4,0.3l0,1l7.4-0.3l0.9,0L323.1,190.4z M322.9,193l0-1l-0.6,0l-7.4,0.2l0,1l7.4-0.2L322.9,193z M319.3,193.7l-4.4,0.1l0,1
			l4.4-0.1L319.3,193.7z M317.1,195.2l-2.3,0l0,1l2.3,0L317.1,195.2z M319,196.7l-4.1,0l0,1l4.1,0L319,196.7z M318.2,198.3l-3.3-0.1
			l0,1l3.3,0.1L318.2,198.3z M317.7,200.8l0-1l-2.9-0.1l0,1L317.7,200.8z M314.8,201.2l0,1l7.4,0.3l1.1,0l0-1l-1.1,0L314.8,201.2z
			 M323.8,203.2l-1.8-0.1l-7.3-0.4l-0.1,1l7.3,0.4l1.8,0.1L323.8,203.2z M314.6,205.1l2.3,0.2l0.1-1l-2.3-0.2L314.6,205.1z
			 M318.8,205.9l-4.3-0.4l-0.1,1l4.3,0.4L318.8,205.9z M323.6,207.9l-1.9-0.2l-7.3-0.7l-0.1,1l7.3,0.7l1.9,0.2L323.6,207.9z
			 M314.2,209.5l6.2,0.7l0.1-1l-6.2-0.7L314.2,209.5z M314,211l7.1,0.9l0.1-1l-7.1-0.9L314,211z M313.8,212.5l1.2,0.2l0.1-1l-1.2-0.2
			L313.8,212.5z M322.9,214.3L321,214l-7.2-1.1l-0.1,1l7.2,1.1l1.9,0.3L322.9,214.3z M313.4,215.4l3.3,0.5l0.2-1l-3.3-0.5L313.4,215.4
			z M313.2,216.8l7.2,1.2l0.9,0.1l0.2-1l-0.9-0.1l-7.2-1.2L313.2,216.8z M322.1,219l-1.8-0.3l-7.1-1.3l-0.2,1l7.1,1.3l1.8,0.3
			L322.1,219z M318.2,219.8l-5.4-1.1l-0.2,1l5.4,1.1L318.2,219.8z M312.3,221.2l2.2,0.5l0.2-1l-2.2-0.5L312.3,221.2z M312,222.6l7,1.6
			l1.1,0.3l0.2-1l-1.1-0.2l-7-1.6L312,222.6z M320.8,225.2l-1.9-0.4l-7-1.7l-0.2,1l7,1.7l1.9,0.4L320.8,225.2z M316.8,226.9l0.2-1
			l-5.4-1.4l-0.2,1L316.8,226.9z M319.8,228.3l-1.7-0.5l-6.9-1.8l-0.3,1l6.9,1.8l1.7,0.5L319.8,228.3z M315,228.6l-4.2-1.2l-0.3,1
			l5.3,1.5l0.3-0.9v0l0,0L315,228.6L315,228.6z M317,231.8l0.3-1l-0.1,0l-6.8-2l-0.3,1L317,231.8L317,231.8z M314,232.3l0.1-0.3
			l0.1-0.5l-4.2-1.3l-0.1,0.4l-0.1,0.3l-0.1,0.3l4.2,1.3L314,232.3z M318.2,234.4l-1.9-0.6l-6.7-2.1l-0.3,0.9l6.7,2.1l1.9,0.6
			L318.2,234.4z M308.8,234l6.7,2.2l0.1,0l0.3-0.9l-0.1,0l-6.7-2.2L308.8,234z M315.3,236.8l-3.8-1.3l0,0l-2.8-1l0,0.1v0l-0.3,0.9
			l6.7,2.3l1,0.3l0.3-0.9L315.3,236.8z M307.8,236.8l5.2,1.9l0.3-0.9l-5.2-1.9L307.8,236.8z M316.1,240.4l-1.9-0.7l-6.6-2.5l-0.3,0.9
			l6.6,2.5l1.9,0.7L316.1,240.4z M314.4,242.5l0.4-0.9l-1.1-0.4l-6.5-2.5l-0.4,0.9l6.5,2.5L314.4,242.5z M309.5,241.2l-2.9-1.2
			l-0.4,0.9l2.9,1.2L309.5,241.2z M305.7,242.3l2.7,1.1l0.4-0.9l-2.7-1.1L305.7,242.3z M305.1,243.7l4.5,1.9l0.4-0.9l-4.5-1.9
			L305.1,243.7z M304.5,245.1l2.2,1l0.4-0.9l-2.2-1L304.5,245.1z M311.2,249.8l0.4-0.9l-1-0.4l-6.4-2.9l-0.4,0.9l6.4,2.9L311.2,249.8z
			 M303.3,247.7l0.9,0.4l0.4-0.9l-0.9-0.4L303.3,247.7z M303.1,248.2l-0.4,0.9l1.1,0.5l0.4-0.9L303.1,248.2z M302,250.4l2.8,1.4
			l0.4-0.9l-2.8-1.4L302,250.4z M301.3,251.7l6.2,3.2l0.4,0.2l0.5-0.9l-0.4-0.2l-6.2-3.2L301.3,251.7z M307.2,255.4l-6.2-3.3l-0.5,0.9
			l6.2,3.3l1.9,1l0.5-0.9L307.2,255.4z M308.4,259l0.5-0.9l-2.4-1.3l-6.2-3.4l-0.5,0.9l6.2,3.4L308.4,259z M305.8,258.2l-6.1-3.5
			l-0.5,0.9l6.1,3.5l0,0L305.8,258.2L305.8,258.2z M303.6,258.8l-4.7-2.8l-0.5,0.9l4.7,2.8L303.6,258.8z M297.6,258.1l1.9,1.2l0.5-0.9
			l-1.9-1.2L297.6,258.1z M304.8,264.3l0.5-0.8l-2-1.3l-5.9-3.6l-0.5,0.8l5.9,3.6L304.8,264.3z M302.1,264.5l0.5-0.8l-0.2-0.1
			l-5.8-3.7l-0.5,0.8l5.8,3.7L302.1,264.5z M295.8,261l-0.5,0.8l4.6,3l0.5-0.8L295.8,261z M298.3,265.7l0.6-0.8l-3.8-2.6l-0.6,0.8
			L298.3,265.7z M293.6,264.3l2.8,1.9l0.6-0.8l-2.8-1.9L293.6,264.3z M299.5,270.3l0.6-0.8l-1.2-0.8l-5.6-3.9l-0.6,0.8l5.6,3.9
			L299.5,270.3z M296.9,270.3l0.6-0.8l-5-3.6l-0.6,0.8L296.9,270.3z M298.3,272.1l-1.2-0.9l-5.5-4l-0.6,0.8l5.5,4l1.2,0.9L298.3,272.1
			z M296.4,274l0.6-0.8l-1-0.8l-5.4-4.2l-0.6,0.8l5.4,4.2L296.4,274z M293.2,272.2l-3.5-2.8l-0.6,0.8l3.5,2.8L293.2,272.2z M290,272.8
			l0.6-0.8l-1.8-1.4l-0.6,0.8L290,272.8z M287.3,272.5l3.2,2.6l0.6-0.8l-3.2-2.6L287.3,272.5z M286.3,273.6l2.5,2.2l0.6-0.8l-2.5-2.2
			L286.3,273.6z M287.5,276.7l0.7-0.7L286,274l-0.7,0.7L287.5,276.7z M290.1,279.7l-5.1-4.6l-0.7,0.7l5.1,4.6l1.2,1.1l0.7-0.7
			L290.1,279.7z M290.1,283.2l0.7-0.7l-1.7-1.6l-5-4.6l-0.7,0.7l5,4.6L290.1,283.2z M284,279.6l0.7-0.7l-1.6-1.6l-0.7,0.7L284,279.6z
			 M281.3,279.1l3.1,3l0.7-0.7l-3.1-3L281.3,279.1z M286.9,286.6l0.7-0.7l-1.7-1.7l-4.8-4.8l-0.7,0.7l4.8,4.8L286.9,286.6z M280,280.5
			l-0.7,0.7l4.4,4.4l0.7-0.7L280,280.5z M283.9,286.7l-0.3-0.3l-4.7-4.9l-0.7,0.7l4.7,4.9l0.3,0.3L283.9,286.7z M278.6,283.4l-0.8-0.9
			l-0.7,0.7l0.8,0.9L278.6,283.4z M282.3,291l0.7-0.7l-1.7-1.8l-4.6-5l-0.7,0.7l4.6,5L282.3,291z M277.1,287.7l0.7-0.7l-2.2-2.5
			l-0.7,0.7L277.1,287.7z M279,290.6l-4.4-5.1l-0.7,0.7l4.4,5.1l0.9,1.1l0.7-0.7L279,290.6z M278.6,294.1l0.8-0.6l-1.6-1.8l-4.4-5.1
			l-0.8,0.6l4.4,5.1L278.6,294.1z M272.3,287.5l-0.8,0.6l3.5,4.2l0.8-0.6L272.3,287.5z M271.8,290.8l0.8-0.6l-1.4-1.8l-0.8,0.6
			L271.8,290.8z M274.2,294.6l-4.2-5.2l-0.8,0.6l4.2,5.2l1,1.3l0.8-0.6L274.2,294.6z M273.7,298.1l0.8-0.6l-1.5-1.9l-4.1-5.3l-0.8,0.6
			l4.1,5.3L273.7,298.1z M270.3,296.2l0.8-0.6l-3.4-4.5l-0.8,0.6L270.3,296.2z M271,299.8l0.8-0.6l-1.4-1.8l-3.9-5.3l-0.8,0.6l3.9,5.3
			L271,299.8z M265.3,292.9l-0.8,0.6l3.2,4.5l0.8-0.6L265.3,292.9z M267.3,300.2l0.8-0.6l-0.3-0.5l-3.7-5.4l-0.8,0.6l3.7,5.4
			L267.3,300.2z M265.3,298.3l-2.5-3.7l-0.8,0.6l2.5,3.7L265.3,298.3z M265.7,303.5l0.8-0.5l-1.4-2.1l-3.6-5.5l-0.8,0.5l3.6,5.5
			L265.7,303.5z M264.2,302.3l-0.4-0.6l-3.5-5.5l-0.8,0.5l3.5,5.5l0.4,0.6L264.2,302.3z M262.5,304.4l0.8-0.5l-0.8-1.3l-3.4-5.5
			l-0.8,0.5l3.4,5.5L262.5,304.4z M259.8,303l0.9-0.5l-2.8-4.7l-0.9,0.5L259.8,303z M261.2,306.3l-1.3-2.3l-3.2-5.5l-0.9,0.5l3.2,5.5
			l1.3,2.3L261.2,306.3z M254.4,299.8l-0.9,0.5l3,5.5l0.9-0.5L254.4,299.8z M256.5,308.9l0.9-0.5l-1.3-2.4l-3-5.6l-0.9,0.5l3,5.6
			L256.5,308.9z M252,303.7l0.9-0.5l-1-2l-0.9,0.5L252,303.7z M252.5,308l0.9-0.4l0-0.1l-2.8-5.6l-0.9,0.4L252.5,308L252.5,308z
			 M251.4,306.9l-2.2-4.4l-0.9,0.4l2.2,4.4L251.4,306.9z M250.2,308.2l-2.4-5l-0.9,0.4l2.4,5L250.2,308.2z M248.5,308l-1.9-4.2
			l-0.9,0.4l1.9,4.2L248.5,308z M246.5,307.5l-1.4-3l-0.9,0.4l1.4,3L246.5,307.5z M246.2,313l0.9-0.4l-0.8-1.9l-2.5-5.7l-0.9,0.4
			l2.5,5.7L246.2,313z M244.9,311.3l-2.4-5.7l-0.9,0.4l2.4,5.7l0,0L244.9,311.3L244.9,311.3z M244.2,313.9l-0.8-2l-2.3-5.7l-0.9,0.4
			l2.3,5.7l0.8,2L244.2,313.9z M241.7,314.6l0.9-0.4l-0.7-1.8l-2.2-5.7l-0.9,0.4l2.2,5.7L241.7,314.6z M239.9,311.4l-1.5-4.1l-0.9,0.3
			l1.5,4.1L239.9,311.4z M237,307.8l-0.9,0.3l0.8,2.1l0.9-0.3L237,307.8z M236.9,312.2l-1.3-3.9l-0.9,0.3l1.3,3.9L236.9,312.2z
			 M235.2,311.9l-1.1-3.2l-0.9,0.3l1.1,3.2L235.2,311.9z M232.7,312.2l0.9-0.3l-0.9-2.7l-0.9,0.3L232.7,312.2z M233.8,317.7l-0.7-2.2
			l-1.8-5.8l-1,0.3l1.8,5.8l0.7,2.2L233.8,317.7z M231.5,318.8l0.1,0.3l1-0.3l-0.1-0.3l-0.8-2.6l-1.7-5.9l-1,0.3l1.7,5.9L231.5,318.8z
			 M228.5,310.5l-1,0.3l0.6,2.2l1-0.3L228.5,310.5z M227.1,310.9l-1,0.3l1.1,4.2l1-0.3L227.1,310.9z M226.9,320.1l0.1,0.3l1-0.2
			l-0.1-0.3l-0.7-2.6l-1.5-6l-1,0.2l1.5,6L226.9,320.1z M224.7,317.9l1-0.2l0,0l-1.4-6l-1,0.2L224.7,317.9L224.7,317.9z M223.4,319.2
			l1-0.2l-0.2-1l-1.3-6l-1,0.2l1.3,6L223.4,319.2z M221.6,313.4l-0.2-1.2l-1,0.2l0.2,1.2L221.6,313.4z M220.6,321.5l0.1,0.3l1-0.2
			l-0.1-0.3l-0.5-2.7l-1.2-6l-1,0.2l1.2,6.1L220.6,321.5z M218.4,312.8l-1,0.2l0.6,3.3l1-0.2L218.4,312.8z M217.4,321.3l1-0.2l-0.3-2
			l-1-6.1l-1,0.2l1,6.1L217.4,321.3z M215.7,320.5l1-0.2l-0.1-0.9l-1-6.1l-1,0.2l1,6.1L215.7,320.5z M213.4,315.6l1-0.1l-0.3-1.9
			l-1,0.1L213.4,315.6z M212.6,313.7l-1,0.1l0.2,1.2l1-0.1L212.6,313.7z M211.2,322.9l0.1,0.5l1-0.1l-0.1-0.5l-0.3-2.7l-0.7-6.1
			l-1,0.1l0.7,6.1L211.2,322.9z M209.5,321.4l1-0.1l-0.1-1.1l-0.7-6.1l-1,0.1l0.7,6.1L209.5,321.4z M208,323.2l1-0.1l-0.3-2.7
			l-0.6-6.1l-1,0.1l0.6,6.1L208,323.2z M206.3,321.6l1-0.1l-0.1-1l-0.5-6.1l-1,0.1l0.5,6.1L206.3,321.6z M204.3,314.6l0.4,6.1l0,0.1
			l1-0.1l0-0.1l-0.4-6.1L204.3,314.6z M203.2,322.7l1-0.1l-0.1-1.9l-0.4-6.1l-1,0.1l0.4,6.1L203.2,322.7z M202.3,314.7l-1,0l0.3,6.1
			l0.1,2.7l0,0.4l1,0l0-0.4l-0.1-2.7L202.3,314.7z M199.8,314.8l0,1.2l0.4,0l0.3,0l0.1,0l0.2,0l0-1.2l-0.2,0l-0.1,0l-0.3,0
			L199.8,314.8z M198.3,314.8l0.1,3.7l1,0l-0.1-3.7L198.3,314.8z M196.9,323.7l0,0.3l0.2,0l0.7,0l0-0.3l0-2.7l0-6.1l-0.7,0l-0.3,0
			l0,6.1L196.9,323.7z M195.3,323.6L195.3,323.6l1,0v0l0-2.7l0-6.1l-1,0l0,6.1L195.3,323.6z M194.1,321.2L194.1,321.2L194.1,321.2
			L194.1,321.2L194.1,321.2l0.7,0l0-0.3l0.1-6.1l-0.8,0l0,0l0,0l0,0l0,0l0,0l-0.2,0l-0.1,6.1l0,0.3L194.1,321.2L194.1,321.2z"/>
		<path class="ring_1 st0" d="M197.2,307.6c0,0,0.1,0,0.1,0c0,0,0,0,0,0c0,0,0,0,0,0c0,0,0,0,0,0c0,0,0,0,0,0c0,0,0,0,0,0c0,0,0,0,0,0
			c0.1,0,0.2,0,0.3,0c0.9,0,1.9,0,2.8-0.1c0,0,0,0,0,0c0,0,0,0,0,0c0,0,0,0,0,0c0,0,0,0,0,0c0,0,0,0,0,0c0.2,0,0.5,0,0.7,0
			c0.1,0,0.2,0,0.3,0c0,0,0.1,0,0.1,0c0.1,0,0.2,0,0.3,0c8.2-0.4,16.3-1.6,24.1-3.9c9.5-2.5,18.5-6.5,26.8-11.1
			c8-4.9,15.7-10.8,22.5-17.5s12.6-14.2,17.5-22.5c3.8-6.6,7-13.8,9.5-21.5v0c0-0.1,0.1-0.2,0.1-0.3c0.4-1.3,0.8-2.5,1.2-3.8
			c0-0.1,0.1-0.2,0.1-0.3c0.1-0.2,0.1-0.4,0.2-0.5c0.3-1.1,0.6-2.2,0.9-3.3l0,0c0-0.1,0.1-0.2,0.1-0.3c2.1-8.4,3-17,3-25.9
			c0-10.2-1.2-20-4-29.5c-0.4-1.4-0.8-2.7-1.2-4c-0.1-0.3-0.2-0.5-0.3-0.8c-0.1-0.2-0.1-0.4-0.2-0.6c-0.3-0.9-0.6-1.8-0.9-2.7
			c-0.1-0.2-0.1-0.4-0.2-0.5c0-0.1-0.1-0.1-0.1-0.2c-0.1-0.2-0.1-0.4-0.2-0.6c-0.3-0.9-0.7-1.8-1-2.7c-0.1-0.3-0.2-0.5-0.3-0.8
			c-0.1-0.2-0.2-0.4-0.2-0.6c-1.9-4.6-4-9-6.4-13.3c-4.9-8-10.8-15.7-17.5-22.5c-6.8-6.8-14.5-12.6-22.5-17.5
			c-5.7-3.2-11.8-5.9-18.1-8.2c-0.1-0.1-0.3-0.1-0.4-0.2c0,0-0.1,0-0.1,0c-0.2-0.1-0.3-0.1-0.5-0.2c-1-0.4-2.1-0.7-3.1-1.1
			c-0.1,0-0.3-0.1-0.4-0.1c0,0-0.1,0-0.1,0c-0.2,0-0.3-0.1-0.5-0.2c-1-0.3-2.1-0.6-3.1-1c-0.1,0-0.3-0.1-0.4-0.1c0,0,0,0,0,0
			c0,0-0.1,0-0.1,0c-0.2,0-0.3-0.1-0.5-0.1c-7.7-2.2-15.7-3.4-23.9-3.7c0,0,0,0,0,0c-0.1,0-0.3,0-0.4,0c-0.2,0-0.5,0-0.7,0
			c0,0,0,0,0,0c0,0,0,0,0,0c0,0,0,0,0,0c0,0,0,0,0,0c0,0,0,0,0,0c-1,0-2,0-3-0.1c0,0,0,0,0,0c0,0,0,0,0,0c0,0,0,0,0,0c0,0,0,0,0,0
			c0,0,0,0,0,0c0,0,0,0,0,0c0,0,0,0,0,0c-0.1,0-0.3,0-0.4,0c0,0,0,0,0,0c-0.1,0-0.3,0-0.4,0c-0.7,0-1.5,0-2.2,0c0,0,0,0,0,0
			c0,0,0,0,0,0c0,0,0,0,0,0c0,0,0,0,0,0c0,0,0,0,0,0c-0.4,0-0.8,0-1.2,0c0,0,0,0,0,0c-0.1,0-0.3,0-0.4,0c-8.8,0.3-17.3,1.5-25.6,3.9
			c-9.5,2.8-18.5,6.5-26.5,11.1c-8.3,4.9-15.7,10.8-22.5,17.5c-6.8,6.8-12.6,14.5-17.5,22.5c-4.6,8.3-8.6,17.2-11.1,26.8
			c-2.8,9.5-4,19.4-4,29.5c0,9.1,1,18,3.2,26.7l0,0c0.2,1,0.5,1.9,0.8,2.8c0.1,0.3,0.1,0.5,0.2,0.8c0,0.2,0.1,0.4,0.1,0.6
			c0.4,1.4,0.8,2.8,1.2,4.1l0,0c2.4,7.5,5.8,14.6,9.5,21c4.9,8.3,10.8,15.7,17.5,22.5c2.7,2.7,5.5,5.3,8.4,7.7l0,0
			c0.9,0.8,1.9,1.5,2.9,2.3c0.2,0.1,0.3,0.3,0.5,0.4c1.1,0.9,2.3,1.7,3.5,2.5l0,0c2.3,1.6,4.7,3.2,7.2,4.6c5.2,3,10.8,5.7,16.7,8
			c0.2,0.1,0.4,0.1,0.5,0.2c1.2,0.4,2.3,0.8,3.5,1.2c0.2,0.1,0.4,0.1,0.5,0.2c1.2,0.4,2.4,0.7,3.6,1.1c0.2,0.1,0.4,0.1,0.5,0.1l0,0
			c0.4,0.1,0.7,0.2,1.1,0.3c8.3,2.4,16.8,3.7,25.6,3.9c0.1,0,0.2,0,0.3,0c0,0,0.1,0,0.1,0c0.1,0,0.2,0,0.3,0c0.3,0,0.6,0,0.9,0
			c0,0,0,0,0,0c0,0,0,0,0,0c0,0,0,0,0,0c0,0,0,0,0,0c0,0,0,0,0,0c0.7,0,1.5,0,2.2,0c0.1,0,0.3,0,0.4,0
			C197,307.6,197.1,307.6,197.2,307.6z M196.5,306.1c-0.7,0-1.5,0-2.2,0c0,0,0,0,0,0c0,0,0,0,0,0c0,0,0,0,0,0c0,0,0,0,0,0c0,0,0,0,0,0
			c-0.3,0-0.6,0-0.9,0c-0.1,0-0.2,0-0.3,0c0,0-0.1,0-0.1,0c-0.1,0-0.2,0-0.3,0c-8.7-0.3-17-1.5-25.3-3.9c-0.3-0.1-0.6-0.2-0.9-0.3h0
			c-0.2-0.1-0.4-0.1-0.5-0.2c-1.2-0.3-2.4-0.7-3.6-1.1c-0.2-0.1-0.4-0.1-0.5-0.2c-1.2-0.4-2.4-0.8-3.5-1.2l0,0
			c-0.2-0.1-0.4-0.1-0.5-0.2c-5.7-2.2-11.2-4.8-16.5-8c-2.3-1.4-4.6-2.8-6.9-4.4l0,0c-1.2-0.8-2.3-1.7-3.5-2.5
			c-0.2-0.1-0.3-0.2-0.5-0.4c-1-0.7-1.9-1.5-2.9-2.3l0,0c-2.9-2.3-5.7-4.8-8.4-7.4c-6.5-6.8-12.3-14.2-16.9-22.2
			c-4-6.7-7.1-13.6-9.5-20.9c0,0,0,0,0,0c-0.4-1.4-0.9-2.7-1.2-4.1c-0.1-0.2-0.1-0.4-0.2-0.6c-0.1-0.2-0.1-0.4-0.2-0.6
			c-0.3-1-0.6-2-0.8-3v0c-2.2-8.5-3.2-17.1-3.2-26.2c0-10.2,1.2-19.7,4-29.2c2.5-9.2,6.2-18.2,11.1-26.2c4.6-8.3,10.5-15.7,16.9-22.2
			c6.8-6.8,14.2-12.6,22.2-17.2c8.3-4.9,16.9-8.6,26.2-11.1c8.3-2.4,16.6-3.7,25.3-3.9c0.1,0,0.3,0,0.4,0c0,0,0,0,0,0
			c0.4,0,0.8,0,1.2,0c0,0,0,0,0,0c0,0,0,0,0,0c0,0,0,0,0,0c0,0,0,0,0,0c0,0,0,0,0,0c0.7,0,1.5,0,2.2,0c0.1,0,0.3,0,0.4,0c0,0,0,0,0,0
			c0.1,0,0.3,0,0.4,0c0,0,0,0,0,0c0,0,0,0,0,0c0,0,0,0,0,0c0,0,0,0,0,0c0,0,0,0,0,0c0,0,0,0,0,0c0,0,0,0,0,0c1,0,2,0,3,0.1
			c0,0,0,0,0,0c0,0,0,0,0,0c0,0,0,0,0,0c0,0,0,0,0,0c0,0,0,0,0,0c0.2,0,0.5,0,0.7,0c0.1,0,0.3,0,0.4,0c0,0,0,0,0,0
			c8,0.3,15.7,1.5,23.4,3.7c0.2,0,0.3,0.1,0.5,0.1c0,0,0.1,0,0.1,0c0.1,0,0.1,0,0.2,0c0.1,0,0.2,0.1,0.3,0.1c1.1,0.3,2.1,0.6,3.1,0.9
			c0.2,0,0.3,0.1,0.5,0.1c0,0,0.1,0,0.1,0c0.1,0,0.3,0.1,0.4,0.1c1,0.3,2.1,0.7,3.1,1c0.2,0.1,0.3,0.1,0.5,0.2c0,0,0.1,0,0.1,0
			c0.1,0.1,0.3,0.1,0.4,0.2c6.2,2.2,12.1,5,17.7,8.4c8.3,4.6,15.7,10.5,22.2,17.2c6.8,6.5,12.6,13.8,17.2,22.2
			c2.5,4.1,4.7,8.3,6.5,12.8c0.1,0.2,0.2,0.4,0.2,0.6c0.1,0.2,0.2,0.5,0.3,0.7c0.4,0.9,0.7,1.8,1,2.7c0.1,0.2,0.1,0.4,0.2,0.6
			c0,0.1,0.1,0.1,0.1,0.2c0.1,0.2,0.1,0.4,0.2,0.5c0.3,0.9,0.6,1.8,0.9,2.7c0.1,0.2,0.1,0.4,0.2,0.6c0.1,0.3,0.2,0.5,0.2,0.8
			c0.4,1.3,0.8,2.6,1.1,3.9c2.8,9.5,4,19.1,4,29.2c0,8.8-0.9,17.1-3,25.4c0,0.1,0,0.2-0.1,0.3v0c-0.3,1.2-0.6,2.3-0.9,3.5
			c0,0.1-0.1,0.2-0.1,0.4c0,0.1-0.1,0.2-0.1,0.3c-0.4,1.3-0.7,2.6-1.1,3.8c0,0.1-0.1,0.2-0.1,0.3v0c-2.4,7.4-5.6,14.5-9.7,21.4
			c-4.6,8-10.5,15.4-17.2,22.2c-6.5,6.5-13.8,12.3-22.2,16.9c-8,4.9-16.9,8.6-26.2,11.1c-7.8,2.3-15.6,3.5-23.8,3.9
			c-0.1,0-0.2,0-0.3,0c0,0-0.1,0-0.1,0c-0.1,0-0.2,0-0.3,0c-0.2,0-0.5,0-0.7,0c0,0,0,0,0,0c0,0,0,0,0,0c0,0,0,0,0,0c0,0,0,0,0,0
			c0,0,0,0,0,0c-0.9,0-1.8,0-2.8,0.1c-0.1,0-0.2,0-0.3,0c0,0,0,0,0,0c0,0,0,0,0,0c0,0,0,0,0,0c0,0,0,0,0,0c0,0,0,0,0,0c0,0,0,0,0,0
			c0,0-0.1,0-0.1,0c-0.1,0-0.2,0-0.3,0C196.8,306.1,196.6,306.1,196.5,306.1z"/>
		<path class="ring_1 st0" d="M260.8,115.1l-3.3,3.9c-3.6-2.9-7.4-5.4-11.2-7.6l-0.1-0.1c-4.8-2.9-10.1-5.5-15.8-7.5l-0.9-0.3
			c-0.9-0.3-1.8-0.6-2.8-0.9l-0.9-0.3l0,0l0,0c-0.9-0.3-1.8-0.5-2.8-0.8l-0.3-0.1l-0.1,0l-0.5-0.1c-6.7-1.9-13.5-3-20.9-3.3l-1.7-0.1
			c0,0-0.1,0-0.1,0v-5.1c0.2,0,0.4,0,0.6,0l1.2,0c7.8,0.3,15.3,1.5,22.3,3.5l0.5,0.1l0.4,0.1c1.1,0.3,2.1,0.6,2.9,0.9l0.9,0.3
			c1.1,0.3,2,0.7,2.9,1l0.9,0.3c5.9,2.1,11.6,4.7,16.8,7.6l0.1,0.1C253.2,109.4,257.2,112.2,260.8,115.1z M126.9,266.2L126.9,266.2
			L126.9,266.2c-6.3-6.6-11.4-13.3-15.3-20c-3.6-6.1-6.4-12.2-8.5-18.7c-0.4-1.2-0.8-2.5-1.1-3.7l-0.3-1.1c-0.2-0.8-0.5-1.7-0.7-2.7
			c-1.7-6.7-2.6-13.5-2.8-20.9h-5.1c0.2,7.8,1.2,15.3,3,22.2c0.2,1,0.5,1.8,0.7,2.6l0,0l0,0l0.3,1.2c0.4,1.3,0.7,2.6,1.2,3.8
			c2.1,6.5,5.1,13.1,8.9,19.6c4.5,7.5,9.8,14.4,16.3,20.9c1.4,1.4,2.8,2.8,4.3,4.1l3.2-3.8C129.6,268.7,128.3,267.4,126.9,266.2z
			 M296.5,169c-0.3-1.2-0.7-2.4-1.2-3.8L295,164c-0.3-0.8-0.6-1.7-0.9-2.5l-0.5-1.3c-0.3-0.8-0.6-1.7-1-2.5l-0.5-1.3
			c-1.7-4.2-3.7-8.4-5.9-12.3l-0.1-0.1c-4.9-7.9-10.3-14.9-16.3-20.9c-1.5-1.5-3.1-3-4.8-4.5l-3.3,4c1.5,1.4,2.9,2.8,4.3,4.2l0.1,0.1
			c6.2,5.9,11.4,12.6,15.4,19.8l0.1,0.1c2.2,3.5,4.1,7.4,5.8,11.4l0,0l0,0l0.5,1.2c0.3,0.9,0.7,1.6,0.9,2.4l0.4,1.2
			c0.3,0.8,0.6,1.6,0.8,2.5l0.4,1.2c0.4,1.3,0.7,2.5,1,3.5l0,0.1c2.4,8.2,3.6,16.8,3.6,26.1l0,0.1c0,8.1-0.9,15.6-2.7,22.8l-0.1,0.3
			c-0.3,1.1-0.6,2.1-0.9,3.2l-0.2,0.6c-0.3,1.1-0.6,2.2-1,3.4l-0.1,0.3c-2.1,6.7-5,13-8.7,19.2c-4,6.9-9.2,13.6-15.5,19.9
			c-6.2,6.2-12.8,11.3-19.8,15.2l-0.1,0.1c-7,4.3-14.9,7.6-23.4,9.9l-0.1,0c-6.8,2-13.8,3.1-21.3,3.5l0,0l0,0l-1.7,0l-0.1,0l-0.6,0
			c-0.5,0-1,0-1.5,0l-0.8,0l-0.1,0c0,0,0,0,0,0c-0.4,0-0.8,0-1.2,0l-0.8,0c-0.2,0-0.5,0-0.8,0l-0.1,0l-0.6,0c-8-0.3-15.4-1.4-22.7-3.5
			l-1.3-0.4c-1.1-0.3-2.1-0.6-3.3-1l-0.4-0.1c-1.1-0.4-2.1-0.7-3.2-1.1l-0.4-0.2c-5.1-1.9-10-4.3-14.9-7.2c-2-1.1-4-2.4-6.1-3.9
			c-1.1-0.7-2.1-1.5-3.1-2.3l-0.4-0.3c-0.6-0.5-1.2-0.9-1.8-1.4l-3.3,3.9c0.6,0.5,1.3,1,2,1.6l0.4,0.3c1.1,0.8,2.2,1.6,3.2,2.4
			c2.3,1.6,4.5,3,6.7,4.4c5.1,2.9,10.3,5.4,15.5,7.4l0.5,0.2c1.1,0.4,2.2,0.8,3.3,1.2l0.5,0.2c1.1,0.4,2.2,0.7,3.3,1l0.8,0.2
			c0.2,0.1,0.5,0.1,0.7,0.2l0,0l0,0c7.4,2.2,15.5,3.4,23.8,3.7l1.6,0c0.7,0,1.3,0,2,0l0.1,0l0.5,0l0,0l0,0l0,0l0.2,0l0.2,0
			c0.8,0,1.6,0,2.4,0l1.5-0.1c7.8-0.4,15.4-1.6,22.4-3.6l0,0l0,0c8-2.1,16.1-5.4,24.8-10.3l0.1-0.1c7.9-4.9,14.9-10.3,20.9-16.3
			c6.5-6.5,11.9-13.4,16.4-21c3.5-6,6.4-12.7,8.9-20l0.1-0.3c0.4-1.2,0.8-2.4,1.1-3.6l0.2-0.7c0.3-1,0.6-2,0.8-3.1l0.1-0.3
			c1.9-7.5,2.8-15.7,2.8-24.1l0-0.1C300.3,186.6,299,177.6,296.5,169z"/>
		<path class="ring_2 st0" d="M200.6,110.2c-0.2,0-0.4,0-0.7,0v-1.5c0.2,0,0.4,0,0.7,0c0.2,0,0.3,0,0.5,0c0,0,0,0,0,0
			c5.2,0.2,10.3,0.9,15.3,2c0.1,0,0.3,0.1,0.4,0.1c0.1,0,0.1,0,0.2,0c0.1,0,0.3,0.1,0.4,0.1c0.2,0,0.3,0.1,0.5,0.1
			c1,0.2,1.9,0.5,2.9,0.8c0.1,0,0.3,0.1,0.4,0.1c0.1,0,0.1,0,0.2,0.1c0.1,0,0.3,0.1,0.4,0.1c1.1,0.3,2.2,0.7,3.3,1.1
			c0.1,0,0.3,0.1,0.4,0.1c0.1,0,0.1,0,0.2,0.1c0.1,0,0.3,0.1,0.4,0.1c3.8,1.4,7.5,3,11,4.9c6.2,3.2,11.8,6.9,17,11.3
			c4.3,3.9,8.2,8,11.8,12.5l-1.3,0.9c-2.1-2.7-4.4-5.2-6.8-7.7c-5.4-5.2-11.1-9.8-17.5-13.5c-4.7-2.7-9.6-5-14.7-6.8
			c-0.1,0-0.2-0.1-0.4-0.1c-0.1,0-0.1,0-0.2-0.1c-0.1,0-0.3-0.1-0.4-0.1c-1.1-0.4-2.2-0.7-3.4-1c-0.1,0-0.3-0.1-0.4-0.1
			c-0.1,0-0.1,0-0.2-0.1c-0.1,0-0.3-0.1-0.4-0.1c-0.2-0.1-0.4-0.1-0.7-0.2c-0.9-0.3-1.8-0.5-2.7-0.8c-0.1,0-0.3-0.1-0.4-0.1
			c-0.1,0-0.1,0-0.2,0c-0.1,0-0.3-0.1-0.4-0.1c-4.8-1.2-9.8-1.8-14.8-2.1c0,0,0,0,0,0C200.9,110.2,200.7,110.2,200.6,110.2z
			 M277.9,162.9c-0.1-0.2-0.2-0.4-0.2-0.6c0-0.1,0-0.1-0.1-0.2c-0.1-0.2-0.2-0.4-0.3-0.6c-0.4-1-0.8-1.9-1.3-2.8
			c-0.1-0.2-0.2-0.5-0.3-0.7c-0.1-0.2-0.2-0.4-0.3-0.6c-0.1-0.2-0.2-0.4-0.3-0.6c-1.3-2.5-2.7-4.9-4.2-7.2c-0.5-0.7-0.9-1.4-1.4-2.1
			c-0.6-0.9-1.2-1.8-1.8-2.7l0,0l-1.3,0.9l0,0c0.6,0.9,1.3,1.7,1.9,2.6c0.4,0.7,0.9,1.3,1.3,2c0.5,0.8,1.1,1.7,1.6,2.6
			c1,1.7,1.9,3.4,2.7,5.1c0.1,0.2,0.2,0.4,0.3,0.6c0.1,0.2,0.2,0.5,0.3,0.7c0.4,0.9,0.9,1.9,1.3,2.8c0.1,0.2,0.2,0.4,0.3,0.6
			c0,0.1,0,0.1,0.1,0.2c0.1,0.2,0.1,0.4,0.2,0.6c0.4,1,0.8,1.9,1.1,2.9c0.1,0.2,0.1,0.3,0.2,0.5l1.5-0.5c-0.1-0.2-0.1-0.3-0.2-0.5
			C278.7,164.8,278.3,163.9,277.9,162.9z M281.6,212.1L281.6,212.1c-0.3,1.4-0.6,2.8-0.9,4.1c0,0.1,0,0.2-0.1,0.3
			c-0.2,0.9-0.5,1.9-0.8,2.8c-0.1,0.4-0.2,0.8-0.4,1.2c0,0.1-0.1,0.2-0.1,0.3c0,0,0,0,0,0c-1.7,5.9-4,11.6-6.9,16.9
			c-0.4,0.8-0.8,1.5-1.3,2.3c-0.9,1.6-1.9,3.1-2.9,4.5l1.2,0.9c1.5-2.3,2.9-4.6,4.1-7c1.4-2.6,2.7-5.3,3.9-8c1.3-3,2.4-6,3.3-9.1v0
			c0-0.1,0.1-0.2,0.1-0.3c0.4-1.3,0.8-2.7,1.1-4.1c0-0.1,0.1-0.2,0.1-0.3c0.3-1.4,0.6-2.8,0.8-4.1l0,0c0-0.1,0-0.2,0.1-0.3
			c0.1-0.4,0.1-0.8,0.2-1.2c1.2-6.9,1.5-13.8,1-20.7c-0.4-6.1-1.4-12-3-17.8c-0.3-1-0.6-2.1-0.9-3.1l-1.6,0.5c0.3,1,0.6,2.1,0.9,3.1
			c0.1,0.2,0.1,0.4,0.2,0.6c2.2,7.4,3.2,15,3.2,22.9c0,5.2-0.4,10.3-1.4,15.3C281.6,211.9,281.6,212,281.6,212.1z M264.5,249.7
			c-2.1,2.6-4.4,5.1-6.8,7.5c-5.4,5.4-11.1,9.8-17.5,13.5c-6.4,3.7-13.3,6.6-20.7,8.6c-5.9,1.8-12,2.8-18.3,3.1c-0.1,0-0.2,0-0.3,0
			c-0.1,0-0.1,0-0.2,0c-0.1,0-0.2,0-0.3,0c-0.3,0-0.5,0-0.8,0c0,0,0,0,0,0c0,0,0,0,0,0c0,0,0,0,0,0c0,0,0,0,0,0c0,0,0,0,0,0
			c-1,0-2,0.1-3,0.1c0,0-0.1,0-0.1,0c0,0-0.1,0-0.1,0c0,0,0,0,0,0c0,0,0,0,0,0c0,0,0,0,0,0c0,0,0,0,0,0c0,0,0,0,0,0c0,0,0,0,0,0
			c-0.1,0-0.1,0-0.2,0c-0.1,0-0.2,0-0.3,0c-0.1,0-0.3,0-0.4,0c-0.8,0-1.5,0-2.3,0c0,0,0,0,0,0c0,0,0,0,0,0c0,0,0,0,0,0c0,0,0,0,0,0
			c0,0,0,0,0,0c-0.4,0-0.7,0-1.1-0.1c-0.1,0-0.2,0-0.3,0c-0.1,0-0.1,0-0.2,0c-0.1,0-0.2,0-0.3,0c-6.1-0.3-12-1.3-17.7-3
			c-0.2-0.1-0.4-0.1-0.6-0.2l-0.6,1.7c4.9,1.3,9.8,2.2,14.9,2.9c1.3,0.1,2.6,0.2,4,0.3c0.1,0,0.2,0,0.3,0c0.1,0,0.1,0,0.2,0
			c0.1,0,0.2,0,0.3,0c0.3,0,0.7,0,1,0c0,0,0,0,0,0c0,0,0,0,0,0c0,0,0,0,0,0c0,0,0,0,0,0c0,0,0,0,0,0c0.8,0,1.5,0,2.3,0
			c0.1,0,0.3,0,0.4,0c0.1,0,0.2,0,0.3,0c0.1,0,0.1,0,0.2,0c0,0,0,0,0,0c0,0,0,0,0,0c0,0,0,0,0,0c0,0,0,0,0,0c0,0,0,0,0,0c0,0,0,0,0,0
			c0.1,0,0.1,0,0.2,0c1,0,2,0,3,0c0,0,0,0,0,0c0,0,0,0,0,0c0,0,0,0,0,0c0,0,0,0,0,0c0,0,0,0,0,0c0.3,0,0.5,0,0.8,0c0.1,0,0.2,0,0.3,0
			c0.1,0,0.1,0,0.2,0c0.1,0,0.2,0,0.3,0c1.4-0.1,2.8-0.1,4.2-0.3c6.2-0.7,12.1-1.7,17.7-3.7c5.9-1.7,11.3-4.2,16.7-7.1
			c5.2-3,10.3-6.6,15-10.8c3.9-3.5,7.4-7.3,10.8-11.5c0.7-0.8,1.3-1.7,2-2.5l-1.3-0.9C265.8,248,265.2,248.9,264.5,249.7z
			 M167.3,277.3c-0.1,0-0.1,0-0.2-0.1c-1.2-0.4-2.3-0.9-3.5-1.3l0,0c-0.2-0.1-0.4-0.1-0.5-0.2c-3.4-1.4-6.8-3.1-10-5
			c-1.5-0.9-3-1.8-4.4-2.8l-1,1.4c2.9,1.9,5.9,3.6,8.9,5.3c2,0.9,4,1.8,6,2.6c0.2,0.1,0.4,0.1,0.5,0.2c1.1,0.5,2.3,0.9,3.5,1.3
			c0.1,0,0.1,0,0.2,0.1c0.2,0.1,0.4,0.1,0.6,0.2c0.7,0.3,1.5,0.5,2.2,0.7l0.5-1.6c-0.8-0.2-1.5-0.5-2.2-0.7
			C167.7,277.5,167.5,277.4,167.3,277.3z M125.3,247.6c3.6,5.3,7.9,10.1,12.8,14.4c0,0,0,0,0,0c1,0.9,1.9,1.7,3,2.5
			c0.2,0.1,0.3,0.3,0.5,0.4c0.3,0.2,0.6,0.5,0.9,0.7c0.8,0.7,1.7,1.3,2.6,1.9l1-1.4c-0.9-0.6-1.7-1.3-2.6-2c-0.3-0.2-0.6-0.5-0.9-0.7
			c-0.2-0.1-0.3-0.3-0.5-0.4c-1-0.8-1.9-1.7-2.9-2.6l0,0c-1.1-1-2.2-2.1-3.3-3.2c-5.4-5.2-9.8-10.8-13.5-17.2c-0.6-1-1.1-2-1.7-3.1
			c-1.8-3.5-3.4-7.1-4.8-10.9l-1.6,0.5c1.4,3.9,3,7.6,4.9,11.2C121,241.2,123,244.5,125.3,247.6z M113.3,223.5l1.6-0.5
			c-0.2-0.7-0.5-1.5-0.7-2.2l0,0c-0.1-0.3-0.2-0.6-0.2-0.9c-0.1-0.2-0.1-0.4-0.2-0.6c-0.3-1-0.6-1.9-0.8-2.9c0-0.2-0.1-0.4-0.1-0.6
			c-0.3-1.3-0.6-2.6-0.8-3.8v0c-0.8-4.1-1.2-8.3-1.4-12.5h-1.7c0.1,3.5,0.4,7.1,0.9,10.6c0.1,0.9,0.3,1.7,0.5,2.5l0,0
			c0.3,1.3,0.5,2.6,0.9,3.8c0,0.2,0.1,0.4,0.1,0.6c0.3,1.2,0.6,2.3,1,3.5c0.1,0.3,0.2,0.6,0.3,0.8v0C112.8,222,113,222.8,113.3,223.5z
			 M126.1,144c-1.6,2.1-3.1,4.3-4.5,6.6c0,0,0,0,0,0c-1.8,2.9-3.4,5.9-4.8,9.1c-2.5,5.4-4.4,11.3-5.9,17.5c-1,5.2-1.7,10.6-1.9,16
			c0,1-0.1,2-0.1,3h1.7c0-1,0-2,0.1-3c0.2-6.7,1.2-13.3,3.1-19.7c2-7.4,4.9-14.3,8.6-20.7c0.3-0.4,0.5-0.9,0.8-1.3c0,0,0,0,0,0
			c3.5-5.9,7.7-11.1,12.7-16.1c5.2-5.2,10.8-9.8,17.2-13.5c4.4-2.5,9.1-4.7,13.9-6.5l-0.6-1.8c-4.8,1.8-9.3,3.9-13.8,6.6
			c-5.2,3-10.1,6.6-14.5,10.6C133.7,134.9,129.5,139.4,126.1,144z M173.1,113.5c0.2-0.1,0.5-0.1,0.7-0.2c5.8-1.7,11.7-2.7,17.7-3
			c0.2,0,0.3,0,0.5,0c0,0,0,0,0,0c0.4,0,0.9,0,1.3-0.1c0,0,0,0,0,0c0,0,0,0,0,0c0,0,0,0,0,0c0,0,0,0,0,0c0,0,0,0,0,0c0,0,0.1,0,0.1,0
			c0.7,0,1.5,0,2.2,0h0c0.1,0,0.3,0,0.4,0c0,0,0,0,0,0c0.2,0,0.3,0,0.5,0c0,0,0,0,0,0c0,0,0,0,0,0c0,0,0,0,0,0c0,0,0,0,0,0
			c0,0,0,0,0,0c0,0,0,0,0,0c0,0,0,0,0,0c0,0,0.1,0,0.1,0v-1.5c0,0-0.1,0-0.1,0c0,0,0,0,0,0c0,0,0,0,0,0c0,0,0,0,0,0c0,0,0,0,0,0
			c0,0,0,0,0,0c0,0,0,0,0,0c0,0,0,0,0,0c-0.2,0-0.3,0-0.5,0c0,0,0,0,0,0c-0.1,0-0.3,0-0.4,0h0c-0.7,0-1.5,0-2.2,0c0,0-0.1,0-0.1,0
			c0,0,0,0,0,0c0,0,0,0,0,0c0,0,0,0,0,0c0,0,0,0,0,0c0,0,0,0,0,0c-0.4,0-0.9,0-1.3,0.1c0,0,0,0,0,0c-0.2,0-0.3,0-0.5,0
			c-2.8,0.1-5.6,0.4-8.4,0.9c-3.6,0.6-7.1,1.3-10.6,2.3c-1,0.3-2,0.6-2.9,0.9l0.5,1.6C171.1,114,172.1,113.8,173.1,113.5z"/>
		<path class="ring_1 st0" d="M239,249.5l-1.1-1.5c1.9-1.5,3.8-3.1,5.5-4.9c1-1,2-2.1,3-3.2c0.5-0.5,0.9-1.1,1.3-1.6l0,0c1-1.3,2.1-2.6,3-4
			c1-1.4,1.9-2.7,2.8-4.2l0,0c0.1-0.1,0.2-0.3,0.3-0.4c0.8-1.4,1.5-2.8,2.2-4.2c0,0,0,0,0,0c1.8-3.7,3.2-7.5,4.4-11.5
			c0.2-0.6,0.3-1.2,0.5-1.9v0c0-0.2,0.1-0.3,0.1-0.5c0.5-2.1,0.9-4.3,1.2-6.5c0-0.2,0-0.3,0.1-0.5c0.3-2.2,0.4-4.4,0.5-6.7v0
			c0-0.2,0-0.3,0-0.5c0-0.4,0-0.7,0-1.1c0-5.9-0.7-11.5-2.2-16.9v0c-0.1-0.2-0.1-0.5-0.2-0.7c-0.4-1.4-0.8-2.7-1.3-4.1
			c-0.4-1.1-0.8-2.3-1.3-3.4c-0.1-0.3-0.2-0.6-0.4-0.9c0-0.1-0.1-0.2-0.2-0.3c0,0,0,0,0,0c-0.1-0.2-0.2-0.4-0.3-0.6
			c-0.7-1.5-1.4-3-2.2-4.5c-0.1-0.3-0.3-0.6-0.4-0.8c0,0,0,0,0-0.1c-0.2-0.3-0.3-0.6-0.5-0.9c0,0,0-0.1-0.1-0.1
			c-0.5-0.8-1-1.6-1.5-2.4l0,0c-0.4-0.6-0.8-1.2-1.2-1.8c-0.1-0.2-0.2-0.3-0.3-0.4c-0.1-0.1-0.2-0.3-0.3-0.4c0,0,0-0.1-0.1-0.1
			c-0.2-0.3-0.4-0.5-0.6-0.8c-0.1-0.2-0.3-0.4-0.4-0.5c0,0,0,0,0,0c-0.3-0.4-0.6-0.7-0.8-1.1c-0.8-0.9-1.5-1.9-2.3-2.8c0,0,0,0,0,0
			c-0.9-1-1.9-2.1-2.9-3.1c-1.8-1.8-3.6-3.4-5.5-4.9c-0.8-0.6-1.6-1.2-2.4-1.8l0.2-0.3l2.9-4c0.8,0.6,1.6,1.3,2.3,1.9
			c3.5,2.8,6.6,5.9,9.5,9.1c0,0,0,0,0,0c0.6,0.7,1.3,1.4,1.9,2.2c0.4,0.5,0.9,1.1,1.3,1.7c0,0,0,0,0,0c0.4,0.6,0.9,1.2,1.3,1.8
			c0,0,0.1,0.1,0.1,0.1c0.1,0.1,0.2,0.2,0.3,0.4c0.1,0.2,0.2,0.4,0.4,0.5c0.2,0.3,0.4,0.6,0.6,0.9c0.1,0.1,0.2,0.3,0.3,0.4
			c0,0,0,0,0,0c0.8,1.3,1.6,2.6,2.3,3.9c0.2,0.3,0.3,0.6,0.5,0.9c0,0,0,0.1,0,0.1c0.1,0.3,0.3,0.6,0.4,0.8c0.8,1.5,1.5,3,2.1,4.5
			c0,0,0,0,0,0c0.1,0.2,0.2,0.4,0.3,0.6l0,0c0,0.1,0.1,0.2,0.1,0.3c0.1,0.3,0.3,0.6,0.4,0.9c0.5,1.1,0.9,2.3,1.3,3.4
			c0.3,0.9,0.6,1.9,0.9,2.8c0.2,0.7,0.4,1.3,0.6,2l0,0c0.7,2.4,1.2,4.8,1.6,7.3c0.6,4.7,0.9,9.4,0.7,14c0,0.2,0,0.3,0,0.5v0
			c-0.1,1.2-0.1,2.5-0.3,3.7c-0.1,0.7-0.1,1.4-0.2,2.1c0,0.3-0.1,0.6-0.1,0.9c0,0.2,0,0.3-0.1,0.5c-0.3,2.2-0.7,4.3-1.2,6.4
			c0,0.2-0.1,0.3-0.1,0.5v0c-0.7,2.6-1.5,5.3-2.4,7.9c-0.8,2.2-1.8,4.4-2.9,6.5c0,0,0,0,0,0c-0.9,1.7-1.8,3.4-2.8,5.1v0
			c-0.8,1.4-1.7,2.8-2.7,4.2c-0.2,0.3-0.4,0.6-0.6,0.9c-0.8,1-1.6,2-2.4,3v0c-1.6,2-3.2,3.9-5,5.6c-1.9,1.9-3.9,3.7-6,5.4l-1.8-2.4
			L239,249.5z M141.1,151.9c-1.3,1.7-2.6,3.3-3.7,5.1c0,0,0,0,0,0c-2.3,3.4-4.3,7-5.9,10.7c-2.6,5.6-4.2,11.4-5.2,17.6
			c-0.2,1.4-0.4,2.8-0.6,4.2c0,0.1,0,0.3,0,0.4c-0.2,1.5-0.2,3.1-0.3,4.6c0,0.1,0,0.3,0,0.4c0,1.5,0,3,0,4.6v0c0,0,0,0,0,0
			c0,0.1,0,0.3,0,0.4c0.1,1.2,0.1,2.4,0.3,3.6c0.1,0.7,0.2,1.4,0.3,2.2c0,0.3,0.1,0.6,0.1,0.9c0.1,0.9,0.3,1.8,0.4,2.7
			c0.2,1,0.4,1.9,0.6,2.9c0.1,0.4,0.2,0.9,0.3,1.3v0c0.3,1.2,0.6,2.3,1,3.5c0.4,1.5,0.9,3,1.5,4.5c0,0.1,0.1,0.2,0.1,0.3l0,0
			c0.6,1.7,1.4,3.4,2.1,5c0,0,0,0,0,0c1.7,3.5,3.6,6.9,5.9,10.3c0.3,0.4,0.6,0.8,0.9,1.3c1.6,2.1,3.2,4,4.9,5.9l0,0
			c1.4,1.5,2.8,3,4.2,4.3c0.2,0.2,0.5,0.5,0.8,0.7c0.4,0.4,0.9,0.8,1.3,1.2l0,0c0.7,0.6,1.3,1.1,2,1.7c0.6,0.5,1.3,1,1.9,1.5
			c0,0,0,0,0.1,0.1c0,0,0.1,0.1,0.1,0.1l0,0c1.3,0.9,2.6,1.8,3.9,2.7c1.8,1.1,3.6,2.2,5.4,3.1c0.3,0.1,0.5,0.3,0.8,0.4c0,0,0,0,0,0
			c1.2,0.6,2.5,1.2,3.8,1.8c0.5,0.2,0.9,0.4,1.4,0.6c0,0,0,0,0.1,0c0.1,0,0.2,0.1,0.3,0.1c0.3,0.1,0.6,0.2,0.9,0.3
			c1.1,0.4,2.3,0.9,3.5,1.3c0,0,0,0,0.1,0c0.7,0.2,1.5,0.5,2.2,0.7c0.3,0.1,0.6,0.2,0.9,0.2l0,0c0.5,0.2,1.1,0.3,1.6,0.4
			c0,0,0,0,0.1,0c2.1,0.5,4.3,1,6.4,1.2c1.1,0.2,2.1,0.3,3.2,0.4c0.1,0,0.2,0,0.2,0c0.2,0,0.3,0,0.5,0.1c0.1,0,0.2,0,0.2,0
			c0.6,0.1,1.2,0.1,1.8,0.2c0,0,0,0,0,0c0,0,0,0,0,0c0,0,0,0,0,0c0,0,0,0,0,0c0,0,0,0,0,0c1.2,0.1,2.4,0.2,3.6,0.2c0.2,0,0.4,0,0.6,0
			c0.1,0,0.2,0,0.2,0c0.2,0,0.3,0,0.5,0c0,0,0,0,0,0c0,0,0,0,0,0c0,0,0,0,0,0c0,0,0,0,0,0c0,0,0,0,0,0c0,0,0,0,0,0c0,0,0.1,0,0.1,0
			c1.6,0,3.2,0,4.8-0.1c0,0,0,0,0,0c0,0,0,0,0,0c0,0,0,0,0,0c0,0,0,0,0,0c0,0,0,0,0,0c0.4,0,0.8-0.1,1.2-0.1c0.1,0,0.2,0,0.2,0
			c0.2,0,0.3,0,0.5,0c0.1,0,0.2,0,0.2,0c0.1,0,0.2,0,0.3,0c6-0.6,12-2,18-4.2c4.9-1.9,9.7-4.3,14.3-7.3c0.8-0.5,1.7-1.1,2.5-1.7
			l-2.1-2.9l-1-1.4c-0.8,0.6-1.6,1.2-2.5,1.7l0,0c-1,0.6-2,1.2-3,1.8c-4.8,2.8-10.2,5-15.8,6.6c-3.5,1-7,1.7-10.7,2.1
			c-0.1,0-0.1,0-0.2,0c-0.2,0-0.3,0-0.5,0c-0.1,0-0.1,0-0.2,0c-0.4,0-0.8,0.1-1.2,0.1c0,0,0,0,0,0c0,0,0,0,0,0c0,0,0,0,0,0
			c0,0,0,0,0,0c0,0,0,0,0,0c-1.6,0.1-3.1,0.2-4.7,0.2c0,0-0.1,0-0.1,0c0,0-0.1,0-0.1,0c0,0,0,0,0,0c0,0,0,0,0,0c0,0,0,0,0,0
			c0,0,0,0,0,0c0,0,0,0,0,0c0,0,0,0,0,0c-0.2,0-0.3,0-0.5,0c-0.1,0-0.1,0-0.2,0c-0.2,0-0.4,0-0.6,0c-1.2,0-2.4-0.1-3.6-0.2
			c0,0,0,0,0,0c0,0,0,0,0,0c0,0,0,0,0,0c0,0,0,0,0,0c0,0,0,0,0,0c-0.6,0-1.2-0.1-1.8-0.2c-0.1,0-0.1,0-0.2,0c-0.2,0-0.3,0-0.5-0.1
			c-0.1,0-0.1,0-0.2,0c-2.7-0.3-5.4-0.8-7.9-1.5c0,0,0,0-0.1,0c-0.5-0.1-1.1-0.3-1.6-0.4c0,0,0,0,0,0v0c-0.3-0.1-0.6-0.2-0.9-0.3
			c-0.8-0.2-1.5-0.5-2.2-0.7c0,0,0,0-0.1,0c-0.4-0.1-0.8-0.3-1.2-0.4c-0.7-0.3-1.5-0.6-2.2-0.8c-0.3-0.1-0.6-0.2-0.9-0.3
			c-0.1,0-0.2-0.1-0.3-0.1c0,0,0,0-0.1,0c-1.8-0.7-3.5-1.5-5.2-2.4l0,0c-0.3-0.1-0.5-0.3-0.8-0.4c-0.6-0.3-1.3-0.6-1.9-1
			c-0.7-0.4-1.3-0.8-2-1.3v0c-1.3-0.8-2.6-1.7-3.9-2.6c0,0,0,0,0,0c-0.1-0.1-0.1-0.1-0.2-0.2c0,0-0.1,0-0.1-0.1c-1.3-1-2.6-2-3.8-3
			l0,0c-0.4-0.4-0.9-0.8-1.3-1.2c-0.3-0.2-0.5-0.5-0.8-0.7c-0.4-0.4-0.9-0.8-1.3-1.2c-1-1-2-2.1-2.9-3.2l0,0
			c-2.7-3.2-5.2-6.6-7.3-10.2c-1-1.9-2-3.7-2.8-5.7c0,0,0,0,0,0c-0.6-1.3-1.1-2.6-1.7-4c0,0,0,0,0,0c-0.6-1.5-1.1-3.1-1.6-4.7
			c-0.1-0.5-0.3-1-0.5-1.4c-0.2-0.7-0.4-1.4-0.5-2v0c-0.1-0.4-0.2-0.9-0.3-1.3v0c-0.4-1.8-0.7-3.7-1-5.6c0-0.3-0.1-0.6-0.1-0.9
			c-0.2-1.4-0.3-2.7-0.3-4.1c0-0.1,0-0.3,0-0.4c0-0.6,0-1.2-0.1-1.8v0c0-0.5,0-1,0-1.4c0-0.5,0-1,0-1.4c0-0.1,0-0.3,0-0.4
			c0-1.6,0.1-3.1,0.3-4.6c0-0.1,0-0.3,0-0.4c0.4-3.7,1.1-7.3,2.1-10.8c1.6-5.6,3.8-11,6.6-15.8c0.6-1.2,1.3-2.3,2.1-3.4c0,0,0,0,0,0
			c2.4-3.6,5.1-6.9,8.1-10c4-4,8.6-7.4,13.4-10.4c2.8-1.6,5.7-2.9,8.7-4.1c0,0,0,0,0.1,0c1.5-0.6,3.1-1.2,4.7-1.7c0,0,0,0,0.1,0
			c0.8-0.3,1.6-0.5,2.4-0.8c0.8-0.2,1.6-0.4,2.4-0.6c0,0,0,0,0.1,0c2.3-0.6,4.7-1,7.2-1.3c0.2,0,0.5-0.1,0.7-0.1c0,0,0,0,0,0
			c0.7-0.1,1.3-0.1,2-0.2c0,0,0,0,0,0c0,0,0,0,0,0c0,0,0,0,0,0c0,0,0,0,0,0c0,0,0,0,0,0c0.1,0,0.1,0,0.2,0c0,0,0,0,0,0
			c0.7-0.1,1.4-0.1,2-0.1c0,0,0,0,0,0c0.5,0,0.9,0,1.4,0h0c0.2,0,0.4,0,0.6,0c0,0,0,0,0,0c0.2,0,0.5,0,0.7,0c0,0,0,0,0,0c0,0,0,0,0,0
			c0,0,0,0,0,0c0,0,0,0,0,0c0,0,0,0,0,0c0,0,0,0,0,0c0,0,0,0,0,0c0.1,0,0.1,0,0.2,0c0,0,0,0,0,0c0,0,0,0,0,0h0v-5h0c0,0,0,0,0,0
			c0,0,0,0,0,0c-0.1,0-0.1,0-0.2,0c0,0,0,0,0,0c0,0,0,0,0,0c0,0,0,0,0,0c0,0,0,0,0,0c0,0,0,0,0,0c0,0,0,0,0,0c0,0,0,0,0,0
			c-0.2,0-0.5,0-0.7,0c0,0,0,0,0,0c-0.2,0-0.4,0-0.6,0l0,0c-0.5,0-0.9,0-1.4,0c-0.7,0-1.4,0.1-2,0.1c0,0,0,0,0,0c-0.1,0-0.1,0-0.2,0
			c0,0,0,0,0,0c0,0,0,0,0,0c0,0,0,0,0,0c0,0,0,0,0,0c0,0,0,0,0,0c-0.7,0-1.3,0.1-2,0.2c0,0,0,0,0,0c-0.2,0-0.5,0-0.7,0.1
			c-2.9,0.3-5.8,0.8-8.7,1.5c0,0,0,0-0.1,0c-1.6,0.4-3.2,0.8-4.8,1.3c0,0,0,0,0,0c0,0,0,0,0,0c-1.5,0.5-3.1,1.1-4.6,1.8c0,0,0,0-0.1,0
			c-5.3,2.2-10.5,5-15.5,8.6C149.5,142.5,144.9,146.9,141.1,151.9z"/>
		<path class="ring_2 st0" d="M174.6,158.5l1.8-1l0.5,0.9l1.4,2.3l1.2,2l-1.8,1l-1.2-2l-1.4-2.3L174.6,158.5z M180,156.6l-0.4-0.8l0,0
			l-1.7-3.6l-1.9,0.9l2.1,4.4l1.2,2.5l1,2.2l1.2-0.5l0,0l0.7-0.3l-1.1-2.4L180,156.6z M184.1,157.7l-0.8-2.2l-1.9,0.7l0.8,2.2l1,2.5
			l1.9-0.7L184.1,157.7z M186.5,154.3l-3.2-10.7l-2,0.6l2.4,8.2l0,0.1l0.7,2.4l0.7,2.5l0.8,2.7l0.2-0.1l0,0l1.8-0.5l-0.8-2.8
			L186.5,154.3z M189.9,159.1l0.7-0.2l0,0l0.4-0.1l-0.2-1l0-0.1l-0.1-0.6l0-0.1l0-0.2l-0.1,0l0,0l-0.6,0.1l-1.3,0.3l0.4,2L189.9,159.1
			z M192.7,158.6L192.7,158.6L192.7,158.6L192.7,158.6L192.7,158.6L192.7,158.6l0.2,0l0,0l1.2-0.1l-0.3-2.4l-0.9,0.1l0,0l-0.2,0l0,0
			l0,0l0,0l0,0l0,0l-0.9,0.1l0.3,2.4L192.7,158.6z M194.9,155.5L194.9,155.5l0.1,2.9l1.2,0l0,0l0.6,0l0,0l0.2,0l-0.1-2.8l-0.1-1.6
			l0-0.5l0-0.5l0-1.1l-0.6,0l0,0l-1.4,0.1l0,0l-0.1,0l0,1.1L194.9,155.5L194.9,155.5z M200.1,158.4l0.1-1.6l0-1.1l0.1-2.5l0-0.3
			l0.1-3.5l0.1-2.6l0.1-3.7l-2.1-0.1l-0.4,10.1l-0.1,2.5l0,1l-0.1,1.8l0.5,0L200.1,158.4z M204.6,139.8L204.6,139.8L204.6,139.8
			l-0.6-0.1l-0.2,0l-0.3,0l-0.3,0l-0.2,1.7l-0.2,1.9l0,0l-0.2,1.4l0,0.1l0,0.1l0,0.1l0,0.2l0,0.1l-0.1,0.8l-0.1,0.8l-0.7,6.5l-0.3,2.5
			l-0.1,1l-0.2,1.7l1.5,0.2l0,0l0,0l0,0l0,0l0,0l0.2,0l0,0l0.3,0l0.2-1.8l0.1-0.8l0.3-2.5l0.8-6.8l0.1-0.9l0.7-6.2l-0.3,0L204.6,139.8
			z M207.9,139.2l-1.5,7.9l-1.3,6.9l-0.5,2.5l0,0l-0.1,0.6l-0.3,1.8l0.5,0.1l0.1,0l0.4,0.1l0.5,0.1l0.4,0.1l0.2,0l0.2-1.3l0.1-0.6
			l0.1-0.3l0.4-2l0.1-0.6l0.7-3.6l0.6-3.3l0-0.1l1.5-7.8l0-0.1L207.9,139.2L207.9,139.2z M210.3,147.8l-1.9,7.1l-0.7,2.5l-0.1,0.2
			l-0.5,1.9l2,0.5l0.5-1.9l0,0l0.7-2.6l2-7.3l0.6-2.3l-2-0.5L210.3,147.8z M214.9,150.2l-1.1-0.4l-2.2,6.3l-0.8,2.4l-0.1,0.2l-0.6,1.8
			l1.4,0.5l0.4,0.1l0.2,0.1l0.5-1.5l0.1-0.4l0.8-2.2l2.3-6.6l-0.4-0.1L214.9,150.2z M214.7,157.7l-1,2l-0.2,0.4l-0.6,1.3l1.9,0.9
			l0.5-1.1l0.3-0.6l0.8-1.8l0.3-0.6l-1.9-0.9L214.7,157.7z M225,146.3l-3.2,5.8l-4.2,7.5l-0.9,1.6l-0.4,0.7l-0.6,1l1.8,1l0.5-0.9
			l0.5-0.8l0.8-1.4l4.3-7.8l3.2-5.6l0.2-0.3l-1.8-1L225,146.3z M226.9,152.4l-0.5-0.3l-1.3,1.9l-5,7.6l-0.8,1.2l-0.2,0.3l0,0l-0.3,0.5
			l-0.5,0.8l1.7,1.1l0.4-0.7l0.6-0.9l0.7-1l5.1-7.8l1.3-2L226.9,152.4L226.9,152.4z M222.7,163.9l-0.6,0.8l-0.7,0.9l-0.5,0.6l1.6,1.3
			l0,0l0,0l0.3-0.4l1-1.2l0.5-0.6l5.4-6.7l-1.6-1.3L222.7,163.9z M224.9,166.2l-0.4,0.4l-0.2,0.2l-1,1.1l-0.2,0.2l0.2,0.1l0.8,0.7
			l0.3,0.3l0.3,0.3l1-1l0.5-0.5l0.2-0.2l0.6-0.7l1.5-1.6l2.8-3l-1.5-1.4L224.9,166.2z M230.7,166L230.7,166L230.7,166l-0.4-0.4
			l-0.6,0.6l-1.6,1.5l-0.8,0.8l0,0l-0.2,0.2l-0.1,0.1l-1.6,1.5l1.4,1.5l1.6-1.5l0,0l3.5-3.2l-0.4-0.4L230.7,166z M241,162.5l-0.5-0.6
			l-1.5,1.2l-2.1,1.7l-0.2,0.2l-7.7,6.2l-0.1,0.1l-1.6,1.3l0.2,0.3l0.2,0.2l0.2,0.2l0.5,0.6l0,0l0.1,0.1l0,0l0.2,0.2l0.6-0.4l0,0
			l0.9-0.7l0.2-0.2l1.2-1l2.8-2.2l0.7-0.6l0,0l2.1-1.7l0.9-0.7l3.9-3.2l-0.2-0.2L241,162.5z M231.5,175.9l0.5-0.3l5.4-3.5l2.9-1.9l0,0
			l0.1-0.1l0.5-0.4l-0.5-0.7l-0.6-1l-0.7,0.4l-2.9,1.9l-3.3,2.2l0,0l-2.1,1.4l-0.3,0.2l-0.5,0.3l-0.9,0.6l1.1,1.7L231.5,175.9z
			 M245.8,169.2l-0.5,0.3l0,0l-4,2.2l-6.5,3.6l0,0l-2.2,1.2l-0.7,0.4l-1.2,0.7l0.3,0.5l0,0l0.6,1.1l0.1,0.2l0.9-0.5l0.1-0.1l0.8-0.5
			l8.7-4.8l3.8-2.1l0.7-0.4l-0.9-1.7L245.8,169.2z M247.6,174l-0.3-0.7l-0.4,0.2l-3.6,1.7l-1.9,0.9l-4.5,2.1l0,0l-2.6,1.2l-0.6,0.3
			l-0.5,0.3l-0.8,0.4l0.3,0.7l0.5,1.2l0.5-0.3l1.4-0.6l7.5-3.5l1.6-0.7l3.4-1.6l0.6-0.3L248,175l-0.2-0.4v0L247.6,174z M242,180.1
			l-6.7,2.4l-1.5,0.5l-0.4,0.1l0.4,1.3l0.2,0.7l0.1,0l1.7-0.6l6.8-2.4l-0.2-0.4L242,180.1z M236.7,187.5l2.8-0.8l-0.5-2l-2.7,0.7
			l-1.8,0.5l0,0l0,0l0.5,1.9L236.7,187.5z M243.5,187.4l-6.4,1.2l0,0l-0.2,0l-1.7,0.3l0,0.2l0,0v0l0.1,0.5v0l0.2,1.2l1.6-0.3l0.7-0.1
			l0,0l1-0.2l5.1-1L243.5,187.4z M242.6,192.1L242.6,192.1l-0.1-0.5l0-0.4l-0.8,0.1l-1.2,0.1l0,0l-3.3,0.4l-1.6,0.2l0.2,2l1.4-0.2
			l5.4-0.6L242.6,192.1z M235.9,195l0.1,1.8l0,0.2l0.7,0l0.6,0l4.6-0.2l-0.1-2.1l-4.5,0.2L235.9,195z M249.3,198.6l-2.1-0.1l-6.9-0.3
			l-1.8-0.1l-1.3-0.1l-1.3,0l-0.1,2.1l1.2,0l8.7,0.3l1.3,0l0.5,0l1.5,0.1l2.5,0.1l1.7,0.1l0.1-2.1l-1.5-0.1L249.3,198.6z M254.4,203.3
			L254.4,203.3l-0.3-0.1l-3-0.3l-2.4-0.3l-1.9-0.2l-9.9-1.1l-1.2-0.1l-0.2,2l1.1,0.1l9.9,1.1l1.8,0.2l2.4,0.3l3.6,0.4L254.4,203.3z
			 M236.3,204.4l-1-0.2l-0.1,0.3v0l-0.4,1.7l0.9,0.2l3.6,0.8l0.3-1.2v0l0.1-0.5l0.1-0.3l-2.9-0.6L236.3,204.4z M234.7,209.3l7.8,2.3
			l0.6-2l-7.7-2.3l-0.9-0.3l-0.6,2L234.7,209.3z M250.7,218.7l0.7-1.9l-4.6-1.7l-2-0.7l-1.2-0.5l-9.4-3.6l-0.7-0.3l-0.7,1.9l0.4,0.2
			l9.4,3.6l1.2,0.5l2,0.8L250.7,218.7z M243,217.7l-1.2-0.5l-4.5-2.1l-0.2-0.1l-4.4-2l-0.3-0.2l-0.8,1.6l0,0l-0.1,0.3l0.1,0.1l1.2,0.5
			l0,0l7.8,3.7l1.2,0.5l1.3,0.6l0.6-1.3l0,0l0.3-0.6L243,217.7z M239.7,222.7l2.1,1.1l1.3,0.7l0.8-1.4l0,0l0.2-0.4l-1.1-0.6l-2-1.1
			l-0.4-0.2l0,0l-0.6-0.4l-8.6-4.8l-0.1,0l-0.5,1l-0.5,0.8l8.5,4.8L239.7,222.7z M228.4,219.8l2,1.4l0.7-1.1l0.4-0.6l-2-1.4l-0.4,0.6
			L228.4,219.8z M235.6,229.6l0.8,0.7l4.8,3.9l0.2-0.3l0,0l1.1-1.3l-4.7-3.8l-1.9-1.5l-0.9-0.7l-7.4-5.9l-1.3,1.6l7.2,5.8l0.8,0.7
			L235.6,229.6L235.6,229.6z M224.4,224.4l5,4.7l1.4-1.5l-5-4.7L224.4,224.4z M234.8,237.7l-2.9-3.2l-1.6-1.8l-0.5-0.6l-6.1-6.9
			l-1.1,1l0,0l-0.4,0.4l3.6,4.1l0,0l2.5,2.8l0.5,0.6l1.6,1.8l2.9,3.3L234.8,237.7z M225.6,236.1l1.5,1.9l4,5.3l0.1-0.1l1.6-1.2l-4-5.2
			l-1.5-1.9l-0.5-0.6l-5.6-7.2l-1.2,0.9l-0.5,0.4l5.5,7.2L225.6,236.1z M222.4,238.1l0.9,1.4l1-0.6l0,0l0.7-0.5l-0.9-1.3l-0.4-0.7
			l-4.9-7.5l-1.2,0.8l0,0l-0.5,0.3l4.9,7.4L222.4,238.1z M216.6,235.6l1.8-1l-2.2-4.1l-1.8,1L216.6,235.6z M220.4,247.7l-2.1-4.7
			l-1.1-2.5l-0.3-0.6l-3.5-8l-1.9,0.8l3.4,7.8l0.3,0.8l1.1,2.4l2.1,4.8L220.4,247.7z M211.9,242.6l0.9,2.4l2.3,6.5l1.9-0.7l-2.3-6.5
			l-0.9-2.5l-0.3-0.9l-2.8-7.9l-1.9,0.7l2.7,7.8L211.9,242.6z M210.8,245.2l-0.6-2.1l-0.3-1.2l-2.1-7.9l-2,0.5l2.1,7.8l0.3,1.3
			l0.6,2.1L210.8,245.2z M204.1,241.6l0.2,1.3l0.3,1.5l0,0.2l0.2,0.9l0.3,1.4l1.2,6.4l2-0.4l-1.2-6.3l-0.5-2.5l-0.3-1.4l-1.5-7.9
			l-0.1,0l-0.1,0l-0.6,0.1l-0.1,0l-1.1,0.2l1.1,5.7L204.1,241.6z M200.6,244.8l0.2,1.8l1.9-0.2l0,0l0,0l0,0l0,0l0,0l0.1,0l-0.1-1
			l0-0.1l0-0.2l0-0.2l0-0.2l0-0.1l0-0.1l-0.1-1.5l-0.7-7.9l-2,0.2l0.7,7.8L200.6,244.8z M198.8,235.4l-1,0l0,0l0,0l0,0l0,0l0,0l0,0
			l0,0l-0.6,0l-0.1,0l-0.2,0l0.1,9.5l0,2.5l0,2.7l0,0l0.2,0l0.5,0l0,0l0,0l0,0l0,0l0,0l0,0l0.1,0l1.1,0l0-2.8l0-2.5L198.8,235.4z
			 M195.1,244.5l0.6-9.1l-2-0.1l-0.6,9.1L195.1,244.5z M190.1,253.6L190.1,253.6l0.5-3.8l0.2-1.3l0.2-1.3l0.3-2.5l1.3-9.5l0-0.1l0-0.1
			l0,0l0,0l-1.9-0.3l-0.1,0l0,0.1l-0.6,4.1l-0.2,1.1l-0.6,4.4l-0.3,2.5l-0.9,6.3l1.8,0.3L190.1,253.6z M186,249l0.5,0.1l0.5-2.4
			l0.5-2.4l0.1-0.4l0.1-0.4l1.9-8.8l-0.8-0.2l0,0l-0.9-0.2l-0.4-0.1l-0.8,3.5l-1.3,6.2l-0.5,2.4l-0.1,0.4l0,0l-0.4,2L186,249L186,249z
			 M180.6,249.4l1.4,0.4l1.2-3.9l0.7-2.4l2.9-9.6l-1-0.3l0,0l-1-0.3l-2.9,9.6l-0.7,2.4l-1.2,3.9L180.6,249.4L180.6,249.4z
			 M178.7,243.1l1,0.4l0.4-1.1l3.6-9.5l-1.6-0.6l-0.4-0.1l-3.6,9.5l-0.2,0.6l-0.2,0.4l0,0L178.7,243.1z M175.3,243.2l1.1-2.2l4.6-9.2
			l-1.8-0.9l-4.6,9.3l-1.1,2.2l-2.6,5.1l1.8,0.9L175.3,243.2z M170.7,245.4L170.7,245.4l0.2,0.1l1.9-3.4l1.2-2.1l5.1-9.1l-0.2-0.1
			l-1.6-0.9l-3.8,6.8l0,0l-1.4,2.5l-0.9,1.6l-0.3,0.5l-1,1.9l0,0l-0.8,1.5l0.8,0.4L170.7,245.4z M173.4,233.8l1.9-2.9l0,0l1.1-1.7
			l-0.5-0.3l0,0l-0.8-0.5l-0.3-0.2l0,0l-0.1-0.1l-1.5,2.3l0,0l-2.1,3.2l1.7,1.1L173.4,233.8z M166,228.5l0.7,0.7l3.7-3.8l0,0l0.5-0.6
			l-0.1-0.1l0,0l-1.2-1.2l-0.1-0.1l-4,4.1l-0.2,0.2l0,0L166,228.5z M168.8,222.6l-1.4-1.5l-7.6,6.7l1.4,1.5L168.8,222.6z M163.2,220.4
			l-1.7,1.2l0.4,0.5l0,0l0.8,1.1l4.1-3l-1.2-1.7L163.2,220.4L163.2,220.4z M152.3,225.8l2.2-1.3l10.7-6.6l-1.1-1.7l-10.9,6.8l-2.1,1.3
			l-1.1,0.7l1.1,1.7L152.3,225.8z M163.5,215.2l-1-1.8l-1.8,0.9l1,1.8L163.5,215.2z M159.6,212.7l0.3,0.7l2.2-1l-0.4-1l0,0l-0.4-0.9
			l-2.2,1L159.6,212.7L159.6,212.7z M160.4,207.7l-6.2,2l0.2,0.5l0.5,1.5l6.2-2l-0.5-1.5L160.4,207.7z M145.2,210.3l1.1-0.3l13.9-3.4
			l-0.5-2l-1.2,0.3l0,0l-12.9,3.2l-0.8,0.2l0.3,1v0L145.2,210.3z M142.4,206.5l2.5-0.4l11.4-1.9l0,0l3.2-0.5l-0.1-0.5l0,0l-0.3-1.5
			l-14.8,2.5l-2.5,0.4l-1.5,0.2l0.3,2L142.4,206.5z M138.9,200.4l0,0.2l0,0.4l0.1,1.5l2-0.2l0.3,0l2.5-0.2l1.4-0.1l10.2-0.9l3.6-0.3
			l0-0.1l-0.2-2l-4.9,0.4l-4.2,0.4l-6.4,0.6l-2.5,0.2L138.9,200.4z M158.9,196l0-0.4l0,0l-0.4,0l-2.4,0l-11.8,0.1l0,0.2l0,1.8
			l10.9-0.1l3.1,0l0.4,0l0.1,0l0-0.2l0-1L158.9,196z M159.1,192.5l-0.8,0l-5.6-0.4l0,0l-4.9-0.3l-0.1,2v0l0,0.1l10.8,0.7l0.5,0
			L159.1,192.5z M159.3,191l0.1-0.4l0.1-0.7l0,0l0.1-0.4l-1.2-0.2l-3.5-0.5l-0.2,1.8l0,0.3l0.7,0.1l0.6,0.1l0,0l2.4,0.3l0.9,0.1
			L159.3,191z M141.5,182l-0.5,2l2.2,0.5l15.2,3.7l1.3,0.3l0.5-2l-1.6-0.4l-15.1-3.7L141.5,182z M146.5,181l12.4,4l1.7,0.6l0.6-2
			l-1.9-0.6l-12.1-3.9L146.5,181z M151.1,178.4l8.4,3.4l2.1,0.8l0.6-1.5l0.2-0.4l-0.1,0l-2.2-0.9l-8.2-3.4L151.1,178.4z M163.2,177.8
			l-2-1l-6-3l-0.9,1.8l6.2,3.1l2.1,1.1l0.2,0.1l0.9-1.8L163.2,177.8z M165.3,175.5l-0.7-0.5l-2-1.2l-3.1-1.9l-1.1,1.7l3.3,2l1.9,1.2
			l0.6,0.4L165.3,175.5z M152.2,164.7l8.5,6.2l0.2,0.1l2.3,1.7l1.9,1.4l0.8,0.6l0.4-0.5l0,0l0.8-1.1l-0.9-0.7l-2-1.4l-10.9-7.9
			L152.2,164.7z M166.1,168.2l-6.8-5.7L158,164l6.9,5.8l1.9,1.6l0.9,0.8l1.3-1.6l-1.1-0.9L166.1,168.2z M157.8,157.7l9.2,9.4l1.8,1.8
			l1.1,1.1l1.5-1.4l-1.2-1.2l-1.7-1.8l-9.1-9.3L157.8,157.7z M170.8,166.5l1.2,1.4l1.6-1.3l-1.3-1.5l-1.6-1.9l-6.7-7.9l-1.6,1.3l6.8,8
			L170.8,166.5z"/>
		<path class="ring_1 st0" d="M199.2,194.2c0.2,0.2,0.3,0.4,0.4,0.6c0.1,0.2,0.2,0.3,0.2,0.5l-1,0.3l-0.4,0.1c0-0.1-0.1-0.2-0.2-0.3l0,0
			c0-0.1-0.1-0.1-0.1-0.2c0,0,0,0,0,0c-0.1-0.1-0.2-0.2-0.3-0.2c0,0,0,0,0,0c0,0,0,0,0,0c0,0-0.1-0.1-0.1-0.1c0,0,0,0,0,0
			c-0.2-0.1-0.4-0.2-0.6-0.3l0,0c0,0,0,0,0,0c0,0,0,0,0,0c-0.1,0-0.1,0-0.2-0.1c0,0,0,0,0,0c0,0,0,0,0,0c0,0,0,0,0,0c0,0,0,0,0,0
			c0,0,0,0,0,0c0,0,0,0,0,0c0,0,0,0,0,0c0,0,0,0,0,0c0,0-0.1,0-0.1,0c0,0,0,0,0,0v-0.1v-0.4V193c0.1,0,0.1,0,0.2,0c0,0,0,0,0,0
			c0,0,0,0,0,0c0,0,0,0,0,0c0,0,0,0,0,0c0,0,0,0,0,0c0,0,0,0,0,0c0,0,0,0,0,0c0.1,0,0.1,0,0.2,0c0,0,0,0,0,0c0,0,0,0,0,0h0
			c0.1,0,0.2,0.1,0.4,0.1c0.4,0.1,0.8,0.3,1.2,0.5c0,0,0.1,0.1,0.1,0.1C198.9,193.8,199,194,199.2,194.2
			C199.1,194.1,199.1,194.1,199.2,194.2C199.2,194.1,199.2,194.1,199.2,194.2C199.2,194.2,199.2,194.2,199.2,194.2z M196.7,189.1v0.6
			v0.2v0.1v0.4v0.1v0v0.1c0.1,0,0.1,0,0.2,0c0,0,0,0,0,0c0,0,0,0,0,0c0,0,0,0,0,0c0,0,0,0,0,0c0,0,0,0,0,0c0,0,0,0,0,0c0,0,0,0,0,0
			c0,0,0.1,0,0.1,0c0,0,0,0,0,0h0c0,0,0,0,0,0c0,0,0,0,0,0h0c0.2,0,0.4,0,0.7,0.1c0.1,0,0.1,0,0.2,0.1c0.3,0.1,0.6,0.2,0.9,0.3
			c0.1,0,0.2,0.1,0.2,0.1c0.4,0.2,0.7,0.4,1,0.6c0,0,0,0,0,0c0.2,0.1,0.3,0.2,0.5,0.4l0,0c0,0,0,0,0.1,0.1c0.1,0.1,0.2,0.3,0.4,0.4
			c0,0,0,0,0,0c0.1,0.1,0.2,0.2,0.3,0.4c0.1,0.1,0.2,0.3,0.2,0.4c0.1,0.1,0.1,0.2,0.2,0.3c0,0,0,0,0,0c0,0,0,0,0,0c0,0,0,0,0,0
			c0,0,0,0,0,0c0,0,0,0,0,0c0,0,0,0,0,0c0,0,0,0.1,0.1,0.1c0,0,0,0.1,0.1,0.1c0,0,0,0.1,0,0.1c0.1,0.3,0.2,0.5,0.2,0.8c0,0,0,0,0,0
			c0,0,0,0,0,0c0,0,0,0,0,0c0,0.1,0.1,0.3,0.1,0.4c0,0.3,0.1,0.6,0.1,1c0,0.1,0,0.2,0,0.3c0,0.2,0,0.5-0.1,0.7c0,0.2-0.1,0.4-0.1,0.6
			c0,0.1,0,0.1,0,0.2l0.8,0.3l0,0l0.3,0.1l0.1,0c0.1-0.2,0.2-0.5,0.2-0.7c0-0.1,0-0.1,0-0.2c0.1-0.4,0.1-0.8,0.2-1.1
			c0-0.1,0-0.2,0-0.3c0-0.1,0-0.3,0-0.4c0,0,0,0,0,0c0-0.4-0.1-0.8-0.2-1.1c0,0,0,0,0,0c0,0,0-0.1,0-0.1c0-0.2-0.1-0.3-0.1-0.5
			c0,0,0-0.1,0-0.1c-0.1-0.2-0.1-0.4-0.2-0.5c0,0,0,0,0,0c0,0,0,0,0,0c0,0,0,0,0,0c0,0,0,0,0,0c-0.1-0.2-0.2-0.4-0.3-0.5
			c-0.2-0.4-0.5-0.8-0.8-1.1c0,0,0,0,0,0c-0.1-0.1-0.2-0.2-0.3-0.3c0,0-0.1-0.1-0.1-0.1c0,0,0,0,0-0.1c0,0,0,0,0,0c0,0,0,0,0,0
			c0,0,0,0,0,0c0,0,0,0,0,0c0,0,0,0,0,0c0,0,0,0,0,0c-0.1-0.1-0.2-0.2-0.2-0.2l0,0c-0.1-0.1-0.3-0.3-0.5-0.4c0,0,0,0,0,0
			c-0.1-0.1-0.2-0.2-0.4-0.3c-0.2-0.1-0.3-0.2-0.5-0.3c0,0,0,0-0.1,0c-0.2-0.1-0.4-0.2-0.6-0.3c0,0,0,0-0.1,0c0,0,0,0,0,0
			c-0.2-0.1-0.3-0.1-0.5-0.2c-0.1,0-0.2-0.1-0.3-0.1c0,0,0,0-0.1,0c-0.2-0.1-0.4-0.1-0.6-0.1c-0.1,0-0.3,0-0.4-0.1c-0.1,0-0.3,0-0.4,0
			h0c0,0,0,0,0,0c0,0,0,0,0,0c-0.1,0-0.1,0-0.2,0c0,0,0,0,0,0c0,0,0,0,0,0c0,0,0,0,0,0c0,0,0,0,0,0c0,0,0,0,0,0c0,0,0,0,0,0
			c0,0,0,0,0,0C196.8,189,196.7,189,196.7,189.1L196.7,189.1z M207.9,194.9c0-0.3-0.1-0.6-0.2-0.9c-0.1-0.6-0.3-1.2-0.5-1.7
			c0-0.1-0.1-0.2-0.1-0.3c-0.2-0.3-0.3-0.7-0.5-1c-0.2-0.4-0.4-0.7-0.6-1c0,0,0,0,0,0c-0.1-0.2-0.3-0.4-0.4-0.6c0,0,0,0,0,0
			c-0.3-0.4-0.5-0.7-0.8-1c0,0,0,0,0,0c-0.1-0.1-0.3-0.2-0.4-0.4c0,0,0,0,0,0c-0.1-0.1-0.2-0.2-0.4-0.3l0,0c0,0,0,0-0.1-0.1
			c0,0,0,0,0,0c-0.1-0.1-0.3-0.2-0.4-0.3c0,0-0.1-0.1-0.1-0.1c-0.1,0-0.1-0.1-0.2-0.1c-0.1-0.1-0.2-0.2-0.4-0.2
			c-0.1-0.1-0.3-0.2-0.4-0.3c-0.1,0-0.1-0.1-0.2-0.1c0,0-0.1,0-0.1-0.1c0,0,0,0,0,0c0,0,0,0,0,0c0,0,0,0,0,0c0,0,0,0,0,0c0,0,0,0,0,0
			c0,0,0,0,0,0c-0.1-0.1-0.2-0.1-0.3-0.2c-0.1,0-0.1-0.1-0.2-0.1l0,0c-0.1-0.1-0.2-0.1-0.3-0.2c-0.3-0.1-0.6-0.2-0.9-0.3c0,0,0,0,0,0
			c-0.3-0.1-0.7-0.2-1-0.3c-0.1,0-0.1,0-0.2,0c-0.4-0.1-0.8-0.2-1.2-0.2c-0.2,0-0.4,0-0.6,0l0,0c0,0,0,0,0,0c0,0,0,0,0,0
			c-0.1,0-0.1,0-0.2,0c0,0,0,0,0,0c0,0,0,0,0,0c0,0,0,0,0,0c0,0,0,0,0,0c0,0,0,0,0,0c0,0,0,0,0,0l0,0c-0.1,0-0.1,0-0.2,0v0.5v1
			c0.1,0,0.1,0,0.2,0c0,0,0,0,0,0c0,0,0,0,0,0c0,0,0,0,0,0c0,0,0,0,0,0c0,0,0,0,0,0c0,0,0,0,0,0c0,0,0,0,0,0c0.1,0,0.1,0,0.2,0
			c0,0,0,0,0,0c0,0,0,0,0,0l0,0c0.9,0.1,1.7,0.2,2.6,0.5c0.1,0,0.2,0.1,0.3,0.1c0,0,0.1,0,0.1,0c0,0,0,0,0,0c0.1,0,0.2,0.1,0.3,0.1
			c0,0,0,0,0,0c0,0,0,0,0,0c0.1,0,0.2,0.1,0.3,0.1c0.2,0.1,0.3,0.2,0.5,0.2c0.2,0.1,0.4,0.2,0.6,0.4c0,0,0,0,0,0c0,0,0,0,0,0
			c0,0,0,0,0,0c0,0,0,0,0,0c0,0,0,0,0,0c0,0,0,0,0,0c0,0,0.1,0,0.1,0.1c0.1,0.1,0.3,0.2,0.4,0.3c0,0,0,0,0,0s0,0,0,0
			c0.1,0.1,0.2,0.1,0.3,0.2c0.1,0.1,0.1,0.1,0.2,0.2l0,0c0,0,0,0,0,0c0,0,0.1,0.1,0.1,0.1c0.2,0.1,0.3,0.3,0.5,0.4
			c0,0,0.1,0.1,0.1,0.2c0,0,0.1,0.1,0.1,0.1c0.2,0.2,0.3,0.4,0.5,0.6c0,0,0,0,0,0c0.2,0.3,0.5,0.6,0.7,1c0,0,0,0,0,0
			c0.2,0.4,0.4,0.7,0.6,1.1c0,0.1,0.1,0.2,0.1,0.2c0,0,0,0.1,0,0.1c0.2,0.5,0.4,1.1,0.5,1.6c0,0.2,0.1,0.4,0.1,0.5l0,0
			c0,0,0,0.1,0,0.1c0.1,0.4,0.1,0.8,0.1,1.2c0,0.1,0,0.1,0,0.2c0,0.3,0,0.6-0.1,0.9c0,0,0,0,0,0c0,0.2,0,0.3-0.1,0.5
			c-0.2,1.1-0.5,2.2-1,3.2c-0.1,0.1-0.2,0.3-0.3,0.4c-0.2,0.3-0.3,0.5-0.5,0.8l0,0c-0.2,0.3-0.5,0.6-0.7,0.8c0,0,0,0-0.1,0.1
			c-0.2,0.2-0.4,0.4-0.7,0.6c0,0,0,0-0.1,0c-0.2,0.2-0.4,0.4-0.7,0.6c0,0,0,0,0,0l0.7,1.1l0.1,0.1l0.1,0.1c0,0,0.1,0,0.1-0.1
			c0.2-0.1,0.3-0.3,0.5-0.4c0,0,0,0,0.1,0c0.6-0.5,1.1-1.1,1.6-1.7c0,0,0,0,0,0c0.3-0.4,0.6-0.8,0.8-1.2c0.1-0.2,0.3-0.4,0.4-0.6
			c0.6-1.1,1-2.3,1.2-3.5c0,0,0,0,0,0c0-0.3,0.1-0.6,0.1-0.8c0,0,0,0,0,0c0-0.3,0.1-0.6,0.1-0.9c0-0.3,0-0.6-0.1-0.9v0
			C207.9,195.3,207.9,195.1,207.9,194.9z M196.7,211v0.8c0.1,0,0.1,0,0.2,0c0,0,0,0,0,0c0,0,0,0,0,0c0,0,0,0,0,0c0,0,0,0,0,0
			c0,0,0,0,0,0c0,0,0,0,0,0c0,0,0,0,0,0c0.1,0,0.1,0,0.2,0c0,0,0,0,0,0c1.7,0,3.2-0.4,4.8-0.9c0,0,0,0,0,0c0,0,0,0,0,0c0,0,0,0,0,0
			c0,0,0,0,0,0c0,0,0,0,0,0c0.2-0.1,0.5-0.2,0.7-0.2c0.2-0.1,0.3-0.2,0.5-0.2c0,0,0,0,0,0l0,0c0,0,0,0,0.1,0c0.2-0.1,0.4-0.2,0.6-0.3
			c0,0,0,0,0.1,0c0.6-0.3,1.2-0.7,1.8-1.2c0.2-0.1,0.4-0.3,0.5-0.4l0,0c0.3-0.2,0.5-0.5,0.8-0.7c0.1-0.1,0.1-0.1,0.2-0.2
			c0.1-0.1,0.1-0.1,0.2-0.2c0.2-0.2,0.3-0.3,0.5-0.5c0,0,0,0,0,0c0.6-0.6,1.2-1.3,1.7-2.1c0.4-0.7,0.8-1.4,1.2-2.2
			c0.3-0.7,0.6-1.4,0.8-2.2c0,0,0,0,0,0c0-0.1,0.1-0.2,0.1-0.3c0.1-0.5,0.2-1,0.3-1.6c0.1-0.5,0.1-1.1,0.1-1.6v0c0-0.1,0-0.2,0-0.3
			c0-0.1,0-0.1,0-0.2c0-0.1,0-0.1,0-0.2v0c0-1.2-0.1-2.5-0.5-3.7c-0.1-0.3-0.2-0.5-0.2-0.8c-0.1-0.2-0.1-0.3-0.2-0.5
			c-0.3-0.8-0.7-1.6-1.1-2.4c0,0,0,0,0,0c-0.1-0.2-0.3-0.4-0.4-0.6c-0.1-0.2-0.2-0.4-0.4-0.5c-0.1-0.2-0.2-0.3-0.3-0.5c0,0,0,0,0,0
			c0,0,0,0,0,0c-0.1-0.1-0.2-0.3-0.3-0.4c0,0,0,0,0,0c0,0,0,0,0,0c0,0,0,0,0,0c-0.1-0.1-0.2-0.3-0.3-0.4c-0.2-0.2-0.4-0.4-0.6-0.6
			c-0.3-0.3-0.6-0.6-0.9-0.9c-0.1-0.1-0.2-0.2-0.3-0.2l0,0c0,0-0.1-0.1-0.1-0.1c-0.1-0.1-0.2-0.2-0.4-0.3c-0.2-0.2-0.5-0.3-0.7-0.5
			c0,0,0,0,0,0c-0.2-0.1-0.3-0.2-0.5-0.3c-0.1,0-0.1-0.1-0.2-0.1c-0.2-0.1-0.4-0.2-0.5-0.3c0,0,0,0-0.1,0c0,0,0,0-0.1,0c0,0,0,0,0,0
			c-0.2-0.1-0.5-0.2-0.7-0.3c-0.3-0.1-0.6-0.3-0.9-0.4c0,0,0,0,0,0c-0.1,0-0.1,0-0.2-0.1c0,0,0,0,0,0c0,0,0,0,0,0c0,0,0,0,0,0
			c0,0,0,0,0,0c0,0,0,0,0,0c0,0,0,0,0,0c0,0-0.1,0-0.1,0c-0.3-0.1-0.6-0.2-1-0.3c-0.2-0.1-0.4-0.1-0.6-0.2c0,0,0,0,0,0
			c0,0-0.1,0-0.1,0c-0.7-0.2-1.4-0.3-2.1-0.3c0,0,0,0,0,0c-0.1,0-0.1,0-0.2,0c0,0-0.1,0-0.1,0c-0.2,0-0.3,0-0.5,0h0c0,0,0,0,0,0
			c0,0,0,0,0,0c0,0-0.1,0-0.1,0c0,0,0,0-0.1,0c0,0,0,0,0,0c0,0,0,0,0,0c0,0,0,0,0,0c0,0,0,0,0,0c0,0,0,0,0,0c0,0,0,0,0,0c0,0,0,0,0,0
			c-0.1,0-0.1,0-0.2,0v1v0.5v0.1c0.1,0,0.1,0,0.2,0c0,0,0,0,0,0c0,0,0,0,0,0c0,0,0,0,0,0c0,0,0,0,0,0c0,0,0,0,0,0c0,0,0,0,0,0
			c0,0,0,0,0,0c0.1,0,0.1,0,0.2,0c0,0,0,0,0,0c0,0,0,0,0,0h0l0,0c0.1,0,0.2,0,0.3,0c0.3,0,0.6,0,0.8,0.1c0.2,0,0.4,0.1,0.6,0.1
			c0.1,0,0.1,0,0.2,0c0.3,0.1,0.7,0.1,1,0.2c0,0,0,0,0,0c0.2,0.1,0.4,0.1,0.6,0.1c0.2,0.1,0.3,0.1,0.5,0.2c0.2,0.1,0.5,0.2,0.7,0.3
			c0,0,0,0,0,0c0,0,0,0,0,0c0,0,0,0,0,0c0,0,0,0,0,0c0,0,0,0,0,0c0,0,0,0,0,0c0,0,0.1,0,0.1,0.1c0,0,0,0,0,0c0.2,0.1,0.5,0.2,0.7,0.3
			l0,0c0.1,0.1,0.2,0.1,0.3,0.1c0.1,0,0.1,0.1,0.2,0.1c0,0,0.1,0,0.1,0c0.1,0.1,0.2,0.1,0.3,0.2l0,0c0,0,0.1,0.1,0.1,0.1
			c0.1,0.1,0.2,0.1,0.3,0.2c0.2,0.1,0.4,0.3,0.6,0.4c0.1,0,0.1,0.1,0.2,0.1c0.1,0.1,0.2,0.1,0.2,0.2c0.1,0.1,0.2,0.1,0.3,0.2l0,0
			c0.4,0.3,0.7,0.6,1,1c0,0,0,0,0,0.1c0.1,0.1,0.3,0.3,0.4,0.4c0,0,0,0,0,0c0,0,0,0,0,0c0.1,0.1,0.2,0.3,0.4,0.4
			c0.1,0.1,0.2,0.2,0.2,0.3c0,0,0,0,0,0c0,0,0,0,0,0c0,0,0,0.1,0.1,0.1c0,0,0,0,0,0c0.2,0.3,0.4,0.6,0.6,0.9c0.4,0.7,0.8,1.4,1.2,2.1
			c0.1,0.2,0.1,0.4,0.2,0.6c0.1,0.3,0.2,0.6,0.3,1c0.2,0.5,0.3,1.1,0.4,1.7c0.1,0.5,0.1,1,0.2,1.6c0,0.2,0,0.3,0,0.5v0
			c0,0,0,0.1,0,0.1c0,0,0,0.1,0,0.1c0,0,0,0,0,0c0,0.8-0.1,1.6-0.3,2.4c0,0.2-0.1,0.4-0.1,0.5c0,0,0,0,0,0c-0.1,0.2-0.1,0.4-0.2,0.6
			c-0.3,1.1-0.7,2.1-1.3,3c-0.1,0.1-0.1,0.2-0.2,0.3c-0.1,0.1-0.1,0.2-0.2,0.3c-0.4,0.6-0.8,1.2-1.3,1.7c0,0,0,0,0,0
			c-0.2,0.2-0.4,0.5-0.6,0.7c0,0,0,0-0.1,0.1c-0.5,0.5-1,0.9-1.4,1.3v0c0,0-0.1,0.1-0.1,0.1c-0.3,0.2-0.6,0.4-0.8,0.6c0,0,0,0-0.1,0
			c-0.1,0.1-0.2,0.1-0.2,0.2c-0.1,0.1-0.3,0.1-0.4,0.2c0,0,0,0-0.1,0c-0.3,0.2-0.7,0.3-1,0.5l0,0c-0.1,0-0.1,0.1-0.2,0.1c0,0,0,0,0,0
			c0,0,0,0,0,0c0,0,0,0,0,0c0,0,0,0,0,0c0,0,0,0,0,0c-0.5,0.2-1,0.4-1.6,0.5c-0.9,0.2-1.8,0.4-2.6,0.5c0,0,0,0,0,0c-0.2,0-0.5,0-0.7,0
			c0,0,0,0,0,0c0,0,0,0,0,0c0,0,0,0,0,0c0,0,0,0,0,0c0,0,0,0,0,0c0,0,0,0,0,0c0,0,0,0,0,0c-0.1,0-0.1,0-0.2,0V211z M186.8,211.1
			c-0.1-0.1-0.3-0.2-0.4-0.3c0,0-0.1-0.1-0.2-0.1l-0.9,1.2c0,0,0.1,0.1,0.2,0.1c0.3,0.2,0.6,0.4,0.8,0.6c0.1,0.1,0.2,0.1,0.3,0.2
			c0.3,0.2,0.5,0.3,0.8,0.5c0.5,0.3,1.1,0.6,1.7,0.8c0.2,0.1,0.3,0.1,0.5,0.2c0.1,0,0.2,0.1,0.2,0.1c0.2,0.1,0.5,0.2,0.7,0.3
			c0.1,0,0.2,0,0.3,0.1c0,0,0,0,0,0c0.3,0.1,0.6,0.2,1,0.3c0,0,0,0,0,0c0,0,0,0,0,0c0,0,0,0,0,0c0,0,0,0,0,0c0,0,0,0,0,0
			c0.7,0.2,1.5,0.3,2.2,0.4c0.4,0,0.9,0.1,1.3,0.1c0.1,0,0.3,0,0.4,0c0,0,0,0,0,0c0.1,0,0.1,0,0.2,0c0,0,0.1,0,0.1,0
			c0.2,0,0.3,0,0.5,0c0.1,0,0.1,0,0.2,0c0,0,0,0,0,0c0,0,0,0,0,0c0,0,0,0,0,0c0,0,0,0,0,0c0,0,0,0,0,0c0,0,0,0,0,0c0,0,0,0,0,0
			c1.7,0,3.2-0.2,4.8-0.7c0,0,0.1,0,0.1,0c0,0,0,0,0,0c0,0,0,0,0,0c0,0,0,0,0,0c0,0,0,0,0,0c0,0,0,0,0,0c0.4-0.1,0.8-0.2,1.2-0.4
			c0,0,0.1,0,0.1,0c0.2-0.1,0.4-0.2,0.6-0.2c0,0,0.1,0,0.1,0c0.5-0.2,1-0.4,1.5-0.7c0,0,0,0,0,0c0.3-0.2,0.7-0.4,1-0.6
			c0.6-0.3,1.1-0.6,1.6-1c0.5-0.4,1-0.7,1.5-1.2v0c0,0,0.1-0.1,0.1-0.1c0.2-0.2,0.5-0.4,0.7-0.7l0,0c0,0,0,0,0,0c0.9-0.9,1.6-2,2.3-3
			c0.2-0.3,0.4-0.6,0.6-0.9c0.7-1.2,1.3-2.3,1.7-3.6v0c0,0,0-0.1,0-0.1c0,0,0,0,0,0c0.1-0.3,0.2-0.5,0.3-0.8c0.3-1.1,0.5-2.3,0.6-3.5
			v0c0-0.2,0-0.3,0-0.5c0-0.4,0-0.8,0-1.2c0-0.5,0-1-0.1-1.5l0,0c0-0.2,0-0.5-0.1-0.7c-0.1-1-0.3-2-0.5-2.9c-0.1-0.2-0.1-0.5-0.2-0.7
			c-0.1-0.2-0.1-0.4-0.2-0.6c0,0,0,0,0,0c-0.1-0.3-0.2-0.5-0.3-0.7c-0.4-0.9-0.8-1.8-1.3-2.6c-0.2-0.3-0.3-0.5-0.5-0.7
			c-0.1-0.1-0.2-0.3-0.3-0.4c0,0,0,0,0,0c-0.1-0.2-0.2-0.3-0.3-0.5c0-0.1-0.1-0.1-0.1-0.2c0,0,0,0,0,0c-0.4-0.5-0.8-1-1.2-1.5
			c0,0,0,0,0,0c-0.2-0.2-0.4-0.4-0.5-0.6c0,0,0,0-0.1-0.1c-0.1-0.1-0.2-0.2-0.4-0.3c-0.4-0.4-0.8-0.7-1.2-1.1l0,0c0,0-0.1-0.1-0.1-0.1
			c0,0,0,0,0,0c-0.1-0.1-0.2-0.2-0.3-0.3c0,0,0,0,0,0c0,0,0,0,0,0c-0.3-0.2-0.6-0.4-0.9-0.6c0,0,0,0-0.1,0c-0.2-0.1-0.3-0.2-0.5-0.3
			c-0.1-0.1-0.3-0.2-0.4-0.3c-0.1,0-0.1-0.1-0.2-0.1c0,0,0,0,0,0l0,0c-0.1,0-0.2-0.1-0.3-0.1c-0.3-0.1-0.5-0.3-0.8-0.4
			c-0.4-0.2-0.8-0.4-1.2-0.5c-0.6-0.2-1.1-0.4-1.7-0.6c0,0,0,0,0,0c-0.1,0-0.1,0-0.2,0c0,0,0,0,0,0c0,0,0,0,0,0c0,0,0,0,0,0
			c0,0,0,0,0,0c0,0,0,0,0,0c0,0-0.1,0-0.1,0c-0.5-0.1-1.1-0.3-1.6-0.4c0,0,0,0,0,0c-0.3-0.1-0.6-0.1-0.9-0.2c-0.1,0-0.2,0-0.3,0
			c-0.2,0-0.4-0.1-0.6-0.1c-0.1,0-0.2,0-0.3,0c0,0,0,0,0,0c0,0,0,0,0,0c-0.2,0-0.4,0-0.5,0c0,0,0,0,0,0c-0.1,0-0.2,0-0.3,0h0
			c0,0,0,0,0,0c0,0,0,0,0,0c-0.1,0-0.1,0-0.2,0c0,0,0,0,0,0c0,0,0,0,0,0c0,0,0,0,0,0c0,0,0,0,0,0c0,0,0,0,0,0c0,0,0,0,0,0c0,0,0,0,0,0
			c-0.1,0-0.1,0-0.2,0v0.2v0.1v0v0.6v0.8c0.1,0,0.1,0,0.2,0c0,0,0,0,0,0c0,0,0,0,0,0c0,0,0,0,0,0c0,0,0,0,0,0c0,0,0,0,0,0c0,0,0,0,0,0
			c0,0,0,0,0,0c0,0,0,0,0,0c0.1,0,0.1,0,0.2,0c0,0,0,0,0,0c0,0,0,0,0,0h0c0.1,0,0.2,0,0.3,0c0.1,0,0.2,0,0.3,0c0.1,0,0.1,0,0.2,0
			c0.1,0,0.3,0,0.4,0c0.1,0,0.2,0,0.3,0c0.5,0.1,0.9,0.1,1.4,0.2c0,0,0,0,0,0c0.4,0.1,0.8,0.2,1.2,0.3c0.2,0.1,0.4,0.1,0.6,0.2
			c0,0,0,0,0,0c0,0,0,0,0,0c0,0,0,0,0,0c0,0,0,0,0,0c0,0,0,0,0,0c0.1,0,0.1,0,0.2,0c0,0,0,0,0,0c0.6,0.2,1.2,0.4,1.7,0.6
			c0,0,0.1,0,0.1,0.1c0.2,0.1,0.4,0.2,0.6,0.3c0.2,0.1,0.4,0.2,0.6,0.3c0,0,0,0,0,0c0,0,0,0,0,0c0,0,0.1,0,0.1,0c0,0,0.1,0,0.1,0
			c0.1,0,0.1,0.1,0.2,0.1c0.2,0.1,0.5,0.3,0.7,0.4c0.3,0.2,0.6,0.4,0.9,0.6c0,0,0,0,0,0c0,0,0,0,0,0c0.2,0.1,0.3,0.2,0.5,0.4
			c0,0,0,0,0,0c0.2,0.2,0.5,0.4,0.7,0.6c0.1,0.1,0.3,0.2,0.4,0.3c0.1,0.1,0.3,0.2,0.4,0.3c0.2,0.3,0.5,0.5,0.7,0.8c0,0,0,0,0,0
			c0.2,0.3,0.5,0.6,0.7,0.9c0.1,0.1,0.1,0.2,0.2,0.2c0,0,0,0,0,0c0.1,0.1,0.1,0.1,0.2,0.2c0.1,0.1,0.2,0.3,0.3,0.4
			c0.3,0.4,0.5,0.7,0.7,1.1c0.3,0.6,0.6,1.2,0.9,1.8c0.1,0.2,0.2,0.4,0.2,0.6c0,0.1,0.1,0.2,0.1,0.3c0,0.1,0.1,0.2,0.1,0.3
			c0.1,0.2,0.1,0.4,0.2,0.6c0.1,0.2,0.2,0.5,0.2,0.7c0.3,1.1,0.5,2.4,0.6,3.6v0c0,0.3,0,0.7,0,1c0,0.2,0,0.5,0,0.7c0,0.2,0,0.3,0,0.5
			v0c-0.1,0.8-0.2,1.6-0.3,2.3c-0.1,0.4-0.2,0.8-0.3,1.2c0,0.1-0.1,0.3-0.1,0.4c0,0,0,0,0,0.1c0,0,0,0,0,0c-0.4,1.4-0.9,2.7-1.6,3.8
			c-0.1,0.3-0.3,0.5-0.5,0.7c-0.6,1-1.4,1.9-2.2,2.7l0,0c0,0-0.1,0.1-0.1,0.1c-0.2,0.2-0.4,0.4-0.6,0.5c-0.2,0.1-0.3,0.3-0.5,0.4v0
			c-0.4,0.3-0.7,0.6-1.1,0.8c-0.5,0.3-1,0.6-1.5,0.9c-0.4,0.2-0.7,0.4-1.1,0.6l0,0c-0.2,0.1-0.4,0.2-0.5,0.3c0,0-0.1,0-0.1,0
			c-0.2,0.1-0.4,0.2-0.6,0.3c0,0-0.1,0-0.1,0c-0.4,0.2-0.8,0.3-1.2,0.4c0,0,0,0,0,0c0,0,0,0,0,0c0,0,0,0,0,0c0,0,0,0,0,0c0,0,0,0,0,0
			c-0.2,0.1-0.4,0.1-0.6,0.2c-1.3,0.4-2.9,0.5-4.4,0.5c0,0,0,0,0,0c0,0,0,0,0,0c0,0,0,0,0,0c0,0,0,0,0,0c0,0,0,0,0,0c0,0,0,0,0,0
			c0,0,0,0,0,0c-0.1,0-0.1,0-0.2,0c-0.1,0-0.2,0-0.3,0c0,0,0,0,0,0c-0.1,0-0.1,0-0.2,0c0,0-0.1,0-0.1,0c-0.2,0-0.4,0-0.6,0
			c-0.3,0-0.6,0-0.8-0.1c-0.9-0.1-1.8-0.3-2.7-0.5c0,0,0,0,0,0c0,0,0,0,0,0c0,0,0,0,0,0c0,0,0,0,0,0c0,0,0,0,0,0
			c-0.2,0-0.3-0.1-0.5-0.1c0,0,0,0,0,0c-0.1,0-0.2-0.1-0.3-0.1c-0.1,0-0.3-0.1-0.4-0.1c-0.2-0.1-0.5-0.2-0.7-0.3
			c-0.2-0.1-0.5-0.2-0.7-0.3c-0.4-0.2-0.8-0.4-1.2-0.6c-0.3-0.1-0.5-0.3-0.8-0.5C187,211.3,186.9,211.2,186.8,211.1z M196.7,173.1v1.7
			c0.1,0,0.1,0,0.2,0c0,0,0,0,0,0c0,0,0,0,0,0c0,0,0,0,0,0c0,0,0,0,0,0c0,0,0,0,0,0c0,0,0,0,0,0c0,0,0,0,0,0c0.1,0,0.1,0,0.2,0
			c0,0,0,0,0,0c0,0,0,0,0,0l0,0c0.3,0,0.6,0,0.8,0c0.2,0,0.4,0,0.7,0.1c0.1,0,0.2,0,0.4,0c0.2,0,0.4,0,0.6,0.1c0.1,0,0.2,0,0.3,0.1
			c0.1,0,0.1,0,0.2,0c0,0,0,0,0,0c0.6,0.1,1.2,0.2,1.7,0.4c0,0,0,0,0,0c0,0,0,0,0,0c0,0,0,0,0,0c0,0,0,0,0,0c0,0,0,0,0,0c0,0,0,0,0,0
			c0,0,0,0,0,0c0.1,0,0.1,0,0.2,0c0,0,0,0,0,0c0.1,0,0.2,0,0.3,0.1c0.5,0.1,1,0.3,1.4,0.4c0.6,0.2,1.3,0.5,1.9,0.8
			c0.3,0.1,0.6,0.3,0.8,0.4c0.2,0.1,0.4,0.2,0.5,0.3c0.1,0.1,0.2,0.1,0.3,0.2l0,0c0,0,0.1,0,0.1,0.1c0.4,0.2,0.9,0.5,1.3,0.8
			c0.2,0.1,0.4,0.3,0.6,0.4c0.1,0.1,0.3,0.2,0.4,0.3c0,0,0,0,0,0c0,0,0,0,0,0c0,0,0,0,0,0c0.2,0.1,0.3,0.2,0.4,0.4c0,0,0,0,0,0
			c0.1,0.1,0.2,0.2,0.3,0.3c0.4,0.3,0.8,0.7,1.2,1.1c0,0,0,0,0.1,0c0.1,0.1,0.2,0.2,0.2,0.3l0,0c0,0,0,0,0,0c0.1,0.1,0.2,0.2,0.3,0.3
			c0.2,0.2,0.4,0.5,0.6,0.7c0.3,0.3,0.5,0.6,0.8,1c0,0,0,0,0,0c0.2,0.3,0.4,0.5,0.5,0.8c0.1,0.2,0.2,0.3,0.3,0.5
			c0.1,0.1,0.2,0.3,0.3,0.4c0.1,0.2,0.2,0.3,0.3,0.5c0,0,0,0.1,0.1,0.1c0.4,0.7,0.8,1.4,1.1,2.1c0.2,0.5,0.4,0.9,0.6,1.4
			c0.2,0.5,0.3,1,0.5,1.5c0,0,0,0,0,0c0.1,0.2,0.1,0.4,0.1,0.5c0.2,0.9,0.4,1.9,0.5,2.8v0c0.1,0.8,0.1,1.6,0.1,2.4
			c0,0.6,0,1.2-0.1,1.8c0,0.2,0,0.3,0,0.5c0,0,0,0,0,0c-0.1,1.2-0.3,2.3-0.7,3.5c-0.1,0.4-0.2,0.8-0.4,1.2c0,0,0,0,0,0
			c0,0.1-0.1,0.2-0.1,0.4h0c-0.4,1.2-1,2.4-1.7,3.6c-0.2,0.3-0.4,0.6-0.6,1c-0.2,0.4-0.5,0.7-0.7,1c-0.6,0.8-1.3,1.6-2,2.3
			c-0.1,0.1-0.2,0.2-0.3,0.3c0,0,0,0,0,0c-0.1,0.1-0.2,0.2-0.3,0.2v0c-0.6,0.6-1.3,1.2-2,1.7c-0.6,0.4-1.2,0.9-1.8,1.2
			c-0.2,0.1-0.5,0.3-0.7,0.4l0,0c-1,0.5-1.9,0.9-2.9,1.3c0,0-0.1,0-0.1,0c-0.2,0.1-0.4,0.1-0.6,0.2c0,0-0.1,0-0.1,0
			c-0.2,0.1-0.5,0.2-0.7,0.2c-0.2,0-0.3,0.1-0.5,0.1c0,0,0,0,0,0c0,0,0,0,0,0c0,0,0,0,0,0c0,0,0,0,0,0c0,0,0,0,0,0
			c-1.6,0.4-3.2,0.6-4.9,0.6c0,0,0,0,0,0c0,0,0,0,0,0c0,0,0,0,0,0c0,0,0,0,0,0c0,0,0,0,0,0c0,0,0,0,0,0c0,0,0,0,0,0
			c-0.1,0-0.1,0-0.2,0c-0.2,0-0.3,0-0.5,0c0,0-0.1,0-0.1,0c-0.2,0-0.4,0-0.6,0c-0.1,0-0.3,0-0.4,0c0,0,0,0,0,0c-0.6,0-1.1-0.1-1.7-0.2
			c-0.5-0.1-1-0.2-1.4-0.3c0,0,0,0,0,0c0,0,0,0,0,0c0,0,0,0,0,0c0,0,0,0,0,0c0,0,0,0,0,0c-0.6-0.1-1.2-0.3-1.7-0.5c0,0,0,0,0,0
			c-0.1,0-0.1,0-0.2-0.1c-0.1,0-0.1,0-0.2-0.1c-0.2-0.1-0.4-0.1-0.5-0.2c-0.3-0.1-0.7-0.3-1-0.4c-0.5-0.2-1-0.4-1.5-0.7
			c-0.3-0.1-0.5-0.3-0.8-0.5c-0.1-0.1-0.2-0.1-0.3-0.2c-0.5-0.3-1-0.7-1.5-1c-0.1-0.1-0.1-0.1-0.2-0.2c0,0,0,0,0,0
			c-1.1-0.8-2.1-1.7-3-2.6c-0.2-0.2-0.5-0.5-0.7-0.8c0,0,0,0,0,0c0,0,0,0,0,0c-0.4-0.4-0.7-0.9-1-1.3c0,0,0,0,0-0.1
			c-0.2-0.3-0.4-0.6-0.6-0.9c-0.2-0.3-0.4-0.7-0.6-1l0,0c-0.7-1.2-1.3-2.6-1.8-4l-1.5,0.4c0.5,1.5,1.1,2.8,1.8,4.1l0,0
			c0.4,0.6,0.8,1.3,1.2,1.9c0.1,0.2,0.2,0.4,0.4,0.5c0.1,0.1,0.2,0.2,0.3,0.3c0.4,0.5,0.7,0.9,1.1,1.4l0,0c0.1,0.1,0.3,0.3,0.4,0.4
			c0.2,0.3,0.5,0.5,0.7,0.8c0.8,0.8,1.6,1.5,2.6,2.2c0,0,0,0,0.1,0c0.1,0.1,0.2,0.1,0.2,0.2c0.6,0.5,1.3,0.9,1.9,1.3
			c0.1,0.1,0.2,0.1,0.3,0.2c0.3,0.2,0.5,0.3,0.8,0.4c0.3,0.2,0.7,0.3,1,0.5c0.7,0.3,1.3,0.6,2,0.8c0,0,0,0,0,0c0.1,0,0.3,0.1,0.4,0.1
			c0,0,0,0,0,0c0.1,0,0.2,0.1,0.3,0.1c0.6,0.2,1.3,0.3,1.9,0.5c0,0,0,0,0,0c0,0,0,0,0,0c0,0,0,0,0,0c0,0,0,0,0,0c0,0,0,0,0,0
			c0.3,0.1,0.6,0.1,0.9,0.2c0.6,0.1,1.1,0.2,1.7,0.2c0,0,0,0,0,0c0.3,0,0.6,0,0.9,0.1c0.2,0,0.4,0,0.6,0c0,0,0.1,0,0.1,0
			c0.2,0,0.3,0,0.5,0c0.1,0,0.1,0,0.2,0c0,0,0,0,0,0c0,0,0,0,0,0c0,0,0,0,0,0c0,0,0,0,0,0c0,0,0,0,0,0c0,0,0,0,0,0c0,0,0,0,0,0
			c1.7,0,3.3-0.3,4.9-0.6c0,0,0,0,0,0c0,0,0,0,0,0c0,0,0,0,0,0c0,0,0,0,0,0c0,0,0,0,0,0c0.3-0.1,0.6-0.1,0.9-0.2
			c0.1,0,0.2-0.1,0.3-0.1c0,0,0.1,0,0.1,0c0.2-0.1,0.4-0.1,0.6-0.2c0,0,0.1,0,0.1,0c1.4-0.4,2.7-1,3.9-1.7l0,0
			c0.2-0.1,0.3-0.2,0.5-0.3c0.7-0.4,1.4-0.8,2-1.3c0.8-0.6,1.6-1.2,2.3-1.9l0,0c0,0,0.1-0.1,0.1-0.1c0.1-0.1,0.2-0.2,0.3-0.3
			c1.1-1.1,2.1-2.3,2.9-3.6c0.2-0.4,0.5-0.8,0.7-1.1c0.7-1.1,1.2-2.2,1.6-3.3v0c0.1-0.2,0.1-0.3,0.2-0.5c0,0,0,0,0,0
			c0.2-0.6,0.4-1.2,0.6-1.8c0.3-1.1,0.5-2.2,0.6-3.3v0c0-0.2,0-0.3,0-0.5c0-0.1,0-0.2,0-0.3c0.1-0.7,0.1-1.4,0.1-2c0-1-0.1-2-0.2-2.9
			v0c-0.1-0.6-0.1-1.1-0.2-1.7c0-0.2-0.1-0.4-0.1-0.6c-0.1-0.3-0.1-0.7-0.2-1c-0.2-0.5-0.3-1.1-0.5-1.6c-0.2-0.7-0.5-1.3-0.8-1.9
			c-0.3-0.7-0.7-1.4-1.1-2.1c0,0,0-0.1-0.1-0.1c-0.1-0.1-0.2-0.3-0.3-0.4c-0.1-0.2-0.2-0.3-0.3-0.5c-0.1-0.1-0.1-0.2-0.2-0.3
			c-0.2-0.2-0.3-0.4-0.5-0.7c-0.1-0.1-0.1-0.2-0.2-0.2l0,0c-0.5-0.6-1-1.2-1.5-1.8c-0.1-0.1-0.2-0.2-0.3-0.4c-0.1-0.1-0.1-0.1-0.2-0.2
			l0,0c0,0-0.1-0.1-0.1-0.1c-0.2-0.2-0.3-0.3-0.5-0.5c-0.2-0.2-0.5-0.5-0.8-0.7c0,0,0,0,0,0c0,0,0,0,0,0c0,0,0,0,0,0
			c-0.2-0.1-0.3-0.3-0.5-0.4c-0.1-0.1-0.2-0.2-0.4-0.3c0,0,0,0,0,0c0,0-0.1,0-0.1-0.1c-0.1-0.1-0.3-0.2-0.4-0.3
			c-0.6-0.5-1.3-0.9-2-1.3c0,0,0,0,0,0c0,0-0.1-0.1-0.1-0.1c-0.4-0.2-0.8-0.5-1.2-0.7c-0.3-0.1-0.6-0.3-0.8-0.4
			c-0.5-0.2-1-0.4-1.5-0.6c0,0,0,0,0,0c-0.3-0.1-0.6-0.2-0.9-0.3c-0.3-0.1-0.7-0.2-1-0.3c-0.2-0.1-0.5-0.1-0.7-0.2c0,0,0,0,0,0
			c-0.1,0-0.1,0-0.2,0c0,0,0,0,0,0c0,0,0,0,0,0c0,0,0,0,0,0c0,0,0,0,0,0c0,0,0,0,0,0c-0.5-0.1-0.9-0.2-1.4-0.3c-0.1,0-0.2,0-0.3-0.1
			c0,0,0,0,0,0c0,0,0,0,0,0c-0.2,0-0.4-0.1-0.6-0.1c-0.1,0-0.2,0-0.4,0c-0.4,0-0.8-0.1-1.2-0.1c-0.3,0-0.6,0-0.8,0h0c0,0,0,0,0,0
			c0,0,0,0,0,0c-0.1,0-0.1,0-0.2,0c0,0,0,0,0,0c0,0,0,0,0,0c0,0,0,0,0,0c0,0,0,0,0,0c0,0,0,0,0,0c0,0,0,0,0,0c0,0,0,0,0,0
			C196.8,173.1,196.7,173.1,196.7,173.1L196.7,173.1z M223,189c-0.2-0.6-0.3-1.1-0.5-1.6c-0.3-0.8-0.6-1.5-0.9-2.3l0,0
			c-0.1-0.2-0.2-0.4-0.3-0.6c0-0.1-0.1-0.1-0.1-0.2c0-0.1-0.1-0.2-0.1-0.3c-0.1-0.3-0.3-0.5-0.4-0.8c-0.1-0.1-0.1-0.3-0.2-0.4
			c0-0.1-0.1-0.2-0.1-0.3c0-0.1-0.1-0.2-0.1-0.2c-0.5-0.8-1-1.5-1.6-2.3c0,0,0,0,0,0c-0.4-0.5-0.8-1-1.2-1.5c-0.1-0.1-0.2-0.3-0.3-0.4
			c0,0-0.1-0.1-0.1-0.1c-0.2-0.2-0.4-0.5-0.7-0.7c0,0,0,0,0,0c-0.1-0.1-0.1-0.2-0.2-0.2c-0.1-0.1-0.2-0.2-0.3-0.3c0,0,0,0,0,0
			c-0.1-0.1-0.2-0.2-0.3-0.2c-0.1-0.1-0.1-0.1-0.2-0.2c0,0,0,0,0,0c-0.6-0.5-1.2-1.1-1.8-1.5c0,0,0,0,0,0c-0.2-0.1-0.3-0.2-0.5-0.4
			c-0.6-0.5-1.3-0.9-2-1.4c0,0,0,0,0,0c-0.1-0.1-0.3-0.2-0.4-0.3c0,0,0,0,0,0c0,0,0,0,0,0c-0.4-0.2-0.7-0.4-1.1-0.6
			c-0.3-0.2-0.6-0.3-0.9-0.4c-0.1,0-0.2-0.1-0.3-0.1c0,0-0.1,0-0.1-0.1c-0.1-0.1-0.3-0.1-0.4-0.2c-0.1,0-0.2-0.1-0.3-0.2
			c-1.1-0.5-2.1-0.9-3.3-1.2c0,0-0.1,0-0.1,0c-0.6-0.2-1.2-0.3-1.7-0.4c0,0,0,0,0,0c-0.1,0-0.1,0-0.2,0c0,0,0,0,0,0c0,0,0,0,0,0
			c0,0,0,0,0,0c0,0,0,0,0,0c0,0,0,0,0,0c0,0-0.1,0-0.1,0c-0.1,0-0.2,0-0.3-0.1c-0.2,0-0.4-0.1-0.6-0.1c-0.1,0-0.2,0-0.4-0.1
			c-0.1,0-0.2,0-0.3,0c0,0,0,0,0,0c-1-0.1-2-0.2-3-0.2h0c0,0,0,0,0,0c0,0,0,0,0,0c-0.1,0-0.1,0-0.2,0c0,0,0,0,0,0c0,0,0,0,0,0
			c0,0,0,0,0,0c0,0,0,0,0,0c0,0,0,0,0,0c0,0,0,0,0,0c0,0,0,0,0,0c-0.1,0-0.1,0-0.2,0v1.6v0c0.1,0,0.1,0,0.2,0c0,0,0,0,0,0c0,0,0,0,0,0
			c0,0,0,0,0,0c0,0,0,0,0,0c0,0,0,0,0,0c0,0,0,0,0,0c0,0,0,0,0,0c0.1,0,0.1,0,0.2,0c0,0,0,0,0,0c0,0,0,0,0,0l0,0c0.3,0,0.6,0,0.9,0
			c0.7,0,1.3,0.1,1.9,0.2c0.1,0,0.1,0,0.2,0c0,0,0,0,0,0c0.1,0,0.1,0,0.2,0c0.2,0,0.4,0.1,0.6,0.1c0.1,0,0.2,0,0.3,0.1
			c0.2,0,0.4,0.1,0.6,0.1c0,0,0,0,0,0c0,0,0,0,0,0c0,0,0,0,0,0c0,0,0,0,0,0c0,0,0,0,0,0c0.1,0,0.1,0,0.2,0c0,0,0,0,0,0
			c0.4,0.1,0.9,0.2,1.3,0.3c0.2,0,0.3,0.1,0.5,0.1c1.1,0.3,2.2,0.7,3.2,1.1c0.3,0.1,0.6,0.2,0.8,0.4c0.1,0.1,0.2,0.1,0.3,0.2
			c0,0,0,0,0,0c0.5,0.2,0.9,0.5,1.3,0.7c0.1,0.1,0.2,0.1,0.3,0.2l0,0c0.7,0.4,1.3,0.9,2,1.3c0.2,0.1,0.3,0.2,0.5,0.4l0,0
			c0.4,0.3,0.8,0.6,1.2,1c0.1,0.1,0.1,0.1,0.2,0.2c0,0,0,0,0,0c0.2,0.2,0.4,0.4,0.6,0.6c0,0,0,0,0,0c0.1,0.1,0.1,0.1,0.2,0.2l0,0
			c0,0,0.1,0.1,0.1,0.1c0.1,0.1,0.3,0.3,0.4,0.4c0.1,0.1,0.2,0.3,0.4,0.4c0.1,0.1,0.2,0.3,0.3,0.4c0.5,0.5,0.9,1.1,1.3,1.7
			c0,0,0,0,0,0c0.4,0.6,0.8,1.2,1.2,1.8c0.1,0.2,0.2,0.3,0.3,0.5c0,0,0,0,0,0.1c0.1,0.1,0.1,0.2,0.2,0.3c0,0,0,0,0,0
			c0.1,0.2,0.2,0.4,0.3,0.6c0.2,0.3,0.3,0.6,0.5,1c0.4,0.8,0.8,1.7,1.1,2.6c0.2,0.5,0.4,1,0.5,1.6c0.2,0.9,0.4,1.7,0.5,2.6
			c0,0.2,0.1,0.4,0.1,0.5c0,0.1,0,0.1,0,0.2c0,0,0,0,0,0c0.2,1.2,0.2,2.3,0.2,3.5c0,1.1-0.1,2.1-0.2,3.2c0,0.2,0,0.3-0.1,0.5v0
			c-0.1,1.1-0.4,2.1-0.6,3.1c-0.2,0.8-0.5,1.6-0.8,2.3c0,0,0,0,0,0c-0.1,0.2-0.2,0.5-0.3,0.7v0c-0.4,1-1,2-1.5,3
			c-0.3,0.5-0.6,1-0.9,1.5c-0.9,1.4-1.9,2.6-3.1,3.7c0,0-0.1,0.1-0.1,0.1v0c-0.2,0.2-0.4,0.4-0.6,0.6l0,0c-0.7,0.7-1.5,1.3-2.3,1.9
			c-0.7,0.5-1.4,1-2.1,1.4c-0.1,0.1-0.3,0.1-0.4,0.2c0,0,0,0,0,0c-1.6,0.9-3.4,1.6-5.2,2.1c0,0-0.1,0-0.1,0c-0.2,0-0.3,0.1-0.5,0.1
			c-0.1,0-0.1,0-0.2,0c0,0-0.1,0-0.1,0c-0.4,0.1-0.8,0.2-1.2,0.3c0,0,0,0,0,0c0,0,0,0,0,0c0,0,0,0,0,0c0,0,0,0,0,0c0,0,0,0,0,0
			c-1.6,0.4-3.2,0.6-4.9,0.6l0,0c0,0,0,0,0,0c0,0,0,0,0,0c0,0,0,0,0,0c0,0,0,0,0,0c0,0,0,0,0,0c0,0,0,0,0,0c-0.1,0-0.1,0-0.2,0
			c-0.2,0-0.3,0-0.5,0c0,0-0.1,0-0.1,0c-0.2,0-0.4,0-0.6,0c-0.5,0-1.1-0.1-1.6-0.1c0,0,0,0,0,0c-0.6-0.1-1.1-0.1-1.7-0.3
			c-0.1,0-0.2,0-0.3,0c0,0,0,0,0,0c0,0,0,0,0,0c0,0,0,0,0,0c0,0,0,0,0,0c0,0,0,0,0,0c-0.7-0.1-1.3-0.3-1.9-0.5c0,0-0.1,0-0.1,0
			c-0.2-0.1-0.4-0.1-0.6-0.2c-0.1,0-0.2,0-0.2-0.1c0,0,0,0,0,0c-1.1-0.3-2.1-0.7-3.1-1.1c-0.1-0.1-0.2-0.1-0.4-0.2
			c-0.3-0.1-0.6-0.3-0.8-0.4c-0.1-0.1-0.2-0.1-0.4-0.2c-0.2-0.1-0.4-0.2-0.7-0.4c-0.7-0.4-1.3-0.8-1.9-1.3c-0.1-0.1-0.1-0.1-0.2-0.2
			c-0.7-0.5-1.4-1.1-2.1-1.7c-0.2-0.2-0.5-0.5-0.7-0.7c-0.1-0.1-0.2-0.2-0.2-0.2c-0.2-0.2-0.5-0.5-0.7-0.7l0,0
			c-0.4-0.4-0.8-0.9-1.2-1.3c-0.2-0.3-0.4-0.6-0.6-0.8c-0.5-0.7-1-1.4-1.5-2.2c-0.2-0.3-0.3-0.6-0.5-0.9l0,0c-0.5-0.9-0.9-1.7-1.3-2.7
			l0,0c-0.2-0.4-0.3-0.8-0.5-1.2c0,0,0,0,0,0c-0.1-0.2-0.2-0.5-0.3-0.8c-0.1-0.2-0.1-0.4-0.2-0.6c-0.2-1-0.4-1.9-0.6-2.9
			c0,0,0,0,0-0.1c0,0,0,0,0,0c-0.1-0.5-0.1-0.9-0.2-1.4c-0.1-0.8-0.1-1.6-0.1-2.4c0-0.2,0-0.5,0-0.7c0-0.1,0-0.3,0-0.4
			c0-0.8,0.1-1.6,0.2-2.4c0-0.2,0-0.4,0.1-0.6c0-0.2,0.1-0.3,0.1-0.5c0.1-0.4,0.1-0.8,0.2-1.2c0-0.1,0-0.3,0.1-0.4
			c0.1-0.6,0.3-1.2,0.5-1.8l-1.5-0.6c-0.3,0.8-0.5,1.6-0.6,2.4c0,0.1,0,0.3-0.1,0.4c-0.1,0.5-0.2,0.9-0.3,1.4c0,0.1,0,0.2,0,0.3
			c0,0.3-0.1,0.7-0.1,1c-0.1,0.6-0.1,1.2-0.1,1.9c0,0.1,0,0.3,0,0.4c0,0.2,0,0.5,0,0.7c0,1,0.1,2,0.2,3c0,0.3,0.1,0.6,0.1,0.9
			c0,0.1,0.1,0.3,0.1,0.4l0,0c0.2,1,0.4,2,0.6,2.9c0.1,0.2,0.1,0.4,0.2,0.6c0.1,0.4,0.2,0.7,0.3,1.1c0,0,0,0,0,0
			c0.2,0.7,0.5,1.3,0.7,1.9l0,0c0.2,0.6,0.5,1.1,0.8,1.6c0,0,0,0,0,0c0.2,0.4,0.4,0.9,0.7,1.3c0.5,0.9,1.1,1.9,1.8,2.8
			c0.2,0.3,0.4,0.6,0.7,0.8c0.4,0.5,0.8,0.9,1.2,1.3l0,0c0.2,0.2,0.4,0.4,0.6,0.6c0.3,0.3,0.6,0.5,0.8,0.8c0.2,0.2,0.5,0.4,0.7,0.7
			c0.5,0.4,1.1,0.9,1.6,1.3c0.1,0.1,0.1,0.1,0.2,0.2c0.7,0.5,1.3,0.9,2.1,1.3c0.3,0.2,0.7,0.4,1,0.5c0.1,0.1,0.2,0.1,0.4,0.2
			c0.2,0.1,0.5,0.2,0.7,0.3c0,0,0.1,0,0.1,0.1c1.1,0.5,2.3,0.9,3.4,1.3c0,0,0,0,0,0c0.3,0.1,0.5,0.2,0.8,0.2c0.1,0,0.1,0,0.2,0.1
			c0.2,0,0.4,0.1,0.5,0.1c0.6,0.1,1.1,0.3,1.7,0.4c0.1,0,0.1,0,0.2,0c0,0,0,0,0,0c0,0,0,0,0,0c0,0,0,0,0,0c0,0,0,0,0,0c0,0,0,0,0,0
			c0.5,0.1,0.9,0.2,1.4,0.2c0,0,0,0,0,0c0.7,0.1,1.4,0.1,2.1,0.2c0.2,0,0.4,0,0.6,0c0,0,0.1,0,0.1,0c0.1,0,0.3,0,0.4,0
			c0.1,0,0.1,0,0.2,0c0,0,0,0,0,0c0,0,0,0,0,0c0,0,0,0,0,0c0,0,0,0,0,0c0,0,0,0,0,0c0,0,0,0,0,0c0,0,0,0,0,0c1.6,0,3.3-0.2,4.9-0.5
			c0,0,0,0,0,0c0,0,0,0,0,0c0,0,0,0,0,0c0,0,0,0,0,0c0,0,0,0,0,0c0.4-0.1,0.8-0.2,1.2-0.3c0,0,0.1,0,0.1,0c0.2-0.1,0.4-0.1,0.6-0.1
			c0,0,0.1,0,0.1,0c0,0,0,0,0,0c2.2-0.6,4.2-1.5,6.2-2.6c0,0,0,0,0,0c0.1-0.1,0.2-0.1,0.3-0.2c0.8-0.4,1.5-0.9,2.2-1.4
			c0.8-0.6,1.6-1.2,2.3-1.9c0,0,0,0,0,0c0.3-0.3,0.6-0.6,0.9-0.9c0,0,0.1-0.1,0.1-0.1h0c1.2-1.2,2.2-2.5,3.2-3.9c0.3-0.5,0.7-1,1-1.5
			c0.5-1,1-1.9,1.4-2.9c0.1-0.3,0.3-0.6,0.4-0.9c0,0,0,0,0,0c0.4-0.9,0.7-1.8,1-2.8c0.3-1,0.5-2,0.7-3v0c0-0.2,0.1-0.3,0.1-0.5
			c0.2-1.2,0.3-2.5,0.3-3.7c0-1-0.1-2.1-0.2-3.1c0-0.2,0-0.4-0.1-0.5c0-0.1,0-0.3-0.1-0.4v0C223.5,191.2,223.2,190.1,223,189z
			 M201.9,227.2C201.9,227.2,201.9,227.2,201.9,227.2C201.9,227.2,201.9,227.2,201.9,227.2C201.9,227.2,201.9,227.2,201.9,227.2
			C201.9,227.2,201.9,227.2,201.9,227.2c0.5-0.1,0.8-0.1,1.2-0.2c0,0,0.1,0,0.1,0c0.2,0,0.4-0.1,0.6-0.1c0,0,0.1,0,0.1,0
			c0.3-0.1,0.6-0.1,1-0.2c2.6-0.7,5.2-1.8,7.5-3.1c0.1,0,0.1-0.1,0.2-0.1l0,0c0.9-0.5,1.7-1.1,2.5-1.7s1.6-1.2,2.3-1.9c0,0,0,0,0,0
			c0.5-0.4,0.9-0.8,1.4-1.3c0.2-0.2,0.4-0.4,0.6-0.6v0c0.5-0.6,1-1.1,1.5-1.7c0.6-0.7,1.1-1.4,1.6-2.1c0.4-0.6,0.8-1.2,1.1-1.8
			c0.5-0.8,0.9-1.7,1.3-2.6v0c0.2-0.4,0.4-0.9,0.6-1.3c0,0,0,0,0,0c0.5-1.2,0.9-2.4,1.3-3.6c0.2-1,0.4-2,0.6-3l0,0
			c0-0.2,0.1-0.3,0.1-0.5c0.2-1.6,0.4-3.2,0.4-4.9c0-0.6,0-1.2-0.1-1.9c0-0.2,0-0.4,0-0.5c-0.1-1-0.2-2-0.4-3v0
			c-0.2-1-0.4-1.9-0.6-2.9c-0.1-0.5-0.3-1-0.5-1.5l0,0c-0.1-0.2-0.1-0.3-0.2-0.5c0,0,0,0,0-0.1c-0.4-1.1-0.9-2.2-1.4-3.3
			c-0.1-0.3-0.3-0.6-0.4-0.8c0,0,0,0,0,0c-0.1-0.1-0.1-0.3-0.2-0.4c-0.1-0.2-0.2-0.3-0.3-0.5c-0.1-0.1-0.1-0.3-0.2-0.4
			c-0.6-1-1.2-2-1.9-2.9c0,0,0,0,0,0c-0.3-0.3-0.5-0.7-0.8-1c0-0.1-0.1-0.1-0.1-0.2c-0.1-0.1-0.2-0.3-0.3-0.4c0-0.1-0.1-0.1-0.1-0.2
			c0,0,0,0,0,0c-0.2-0.3-0.5-0.5-0.7-0.8c-0.2-0.3-0.5-0.6-0.7-0.8c-0.1-0.1-0.3-0.2-0.4-0.4c0,0,0,0,0,0c-0.2-0.1-0.3-0.3-0.5-0.4
			l0,0c-0.8-0.7-1.5-1.3-2.3-1.9l0,0c-0.2-0.1-0.3-0.2-0.5-0.4c0,0,0,0,0,0c0,0,0,0,0,0c-0.3-0.2-0.6-0.4-0.9-0.6
			c-0.3-0.2-0.7-0.5-1.1-0.7l0,0c0,0,0,0-0.1,0c-0.2-0.1-0.4-0.3-0.7-0.4c-0.9-0.5-1.8-1-2.8-1.4c-0.1,0-0.2-0.1-0.3-0.1
			c-0.2-0.1-0.3-0.2-0.5-0.2c-0.1,0-0.2-0.1-0.3-0.1c-1.1-0.5-2.3-0.9-3.5-1.2c-0.4-0.1-0.7-0.2-1.1-0.2c-0.3-0.1-0.6-0.1-0.9-0.2
			c-0.1,0-0.2,0-0.3-0.1c-0.2,0-0.3-0.1-0.5-0.1c0,0,0,0,0,0c0,0,0,0-0.1,0c0,0-0.1,0-0.1,0c0,0,0,0,0,0c0,0,0,0,0,0c0,0,0,0,0,0
			c0,0,0,0,0,0c0,0,0,0,0,0c-0.1,0-0.1,0-0.2,0c-0.5-0.1-1-0.2-1.5-0.2c0,0,0,0,0,0c-1-0.1-2-0.2-3-0.2h0c0,0,0,0,0,0c0,0,0,0,0,0
			c-0.1,0-0.1,0-0.2,0c0,0,0,0,0,0c0,0,0,0,0,0c0,0,0,0,0,0c0,0,0,0,0,0c0,0,0,0,0,0c0,0,0,0,0,0c0,0,0,0,0,0c-0.1,0-0.1,0-0.2,0v1.8
			c0.1,0,0.1,0,0.2,0c0,0,0,0,0,0c0,0,0,0,0,0c0,0,0,0,0,0c0,0,0,0,0,0c0,0,0,0,0,0c0,0,0,0,0,0c0,0,0,0,0,0c0.1,0,0.1,0,0.2,0
			c0,0,0,0,0,0c0,0,0,0,0,0l0,0c1,0,2,0.1,3,0.2c0,0,0,0,0,0c0.3,0,0.7,0.1,1,0.1c0.1,0,0.2,0,0.4,0.1c0.1,0,0.2,0,0.4,0.1
			c0,0,0,0,0,0c0,0,0,0,0,0c0,0,0,0,0,0c0,0,0,0,0,0c0,0,0,0,0,0c0,0,0.1,0,0.1,0c0,0,0,0,0,0c0,0,0,0,0,0c0.1,0,0.2,0,0.3,0.1
			c0.5,0.1,0.9,0.2,1.4,0.3c0.2,0.1,0.4,0.1,0.6,0.1c1.2,0.4,2.3,0.8,3.4,1.2c0.1,0,0.2,0.1,0.3,0.1c0.2,0.1,0.4,0.2,0.5,0.2
			c0.1,0,0.2,0.1,0.3,0.1c0.6,0.3,1.2,0.6,1.9,0.9c0.2,0.1,0.4,0.2,0.6,0.3c0.2,0.1,0.4,0.3,0.6,0.4c0,0,0,0,0,0l0,0
			c0.3,0.2,0.6,0.4,0.9,0.6c0,0,0,0,0,0c0.3,0.2,0.7,0.5,1,0.7c0.2,0.1,0.3,0.2,0.5,0.4c0,0,0,0,0,0c0.8,0.6,1.6,1.3,2.3,1.9
			c0,0,0,0,0,0c0,0,0,0,0.1,0.1l0,0c0.2,0.2,0.4,0.4,0.6,0.5c0.1,0.1,0.1,0.1,0.2,0.2c0.2,0.3,0.5,0.5,0.7,0.8c0,0,0,0,0,0
			c0.1,0.2,0.3,0.3,0.4,0.5c0.1,0.1,0.1,0.2,0.2,0.3c0,0,0.1,0.1,0.1,0.1c0.4,0.4,0.7,0.9,1,1.3c0,0,0,0,0,0c0.7,0.9,1.3,1.8,1.9,2.8
			c0,0,0,0,0,0.1c0.1,0.2,0.2,0.3,0.3,0.5c0.1,0.1,0.1,0.3,0.2,0.4c0.1,0.2,0.2,0.3,0.2,0.5c0.1,0.1,0.1,0.2,0.2,0.4
			c0.3,0.7,0.6,1.4,0.9,2.1c0.1,0.2,0.2,0.4,0.2,0.6l0,0c0.1,0.2,0.2,0.5,0.3,0.7c0.2,0.6,0.4,1.2,0.6,1.9c0.3,1,0.4,2,0.6,3l0,0
			c0.1,0.6,0.2,1.2,0.2,1.9c0,0.2,0,0.4,0.1,0.5c0.1,0.8,0.1,1.6,0.1,2.4c0,1.5-0.1,2.9-0.3,4.3c0,0.2-0.1,0.3-0.1,0.5v0
			c-0.2,1-0.4,2.1-0.6,3.1c-0.3,1.1-0.7,2.1-1.1,3.2c0,0,0,0,0,0c-0.2,0.4-0.3,0.8-0.5,1.1l0,0c-0.4,0.9-0.9,1.8-1.4,2.7
			c-0.3,0.6-0.7,1.1-1.1,1.7c-1,1.4-2,2.7-3.2,3.9h0c-0.1,0.1-0.2,0.3-0.4,0.4c-0.4,0.4-0.8,0.8-1.2,1.1l0,0c-0.8,0.7-1.5,1.3-2.3,1.9
			c-0.8,0.6-1.7,1.1-2.5,1.6l0,0c0,0,0,0,0,0c-2.2,1.3-4.5,2.3-7,3c-0.2,0.1-0.4,0.1-0.5,0.1c0,0-0.1,0-0.1,0
			c-0.2,0.1-0.4,0.1-0.6,0.2c0,0-0.1,0-0.1,0c-0.4,0.1-0.8,0.2-1.2,0.3c0,0,0,0,0,0c0,0,0,0,0,0c0,0,0,0,0,0c0,0,0,0,0,0c0,0,0,0,0,0
			c-1.6,0.3-3.3,0.5-4.9,0.5c0,0,0,0,0,0c0,0,0,0,0,0c0,0,0,0,0,0c0,0,0,0,0,0c0,0,0,0,0,0c0,0,0,0,0,0c0,0,0,0,0,0
			c-0.1,0-0.1,0-0.2,0c-0.1,0-0.3,0-0.4,0c0,0-0.1,0-0.1,0c-0.2,0-0.4,0-0.6,0c-1,0-1.9-0.1-2.9-0.2c0,0,0,0,0,0
			c-0.2,0-0.4-0.1-0.6-0.1c0,0,0,0,0,0c0,0,0,0,0,0c0,0,0,0,0,0c0,0,0,0,0,0c0,0,0,0,0,0c-0.3-0.1-0.6-0.1-1-0.2
			c-0.3-0.1-0.6-0.1-1-0.2c-0.2-0.1-0.5-0.1-0.7-0.2c-0.2,0-0.3-0.1-0.5-0.1c-0.4-0.1-0.7-0.2-1-0.3c0,0,0,0,0,0
			c-1.2-0.4-2.3-0.8-3.4-1.3c-0.3-0.1-0.5-0.2-0.8-0.4c0,0,0,0,0,0c-0.1-0.1-0.2-0.1-0.3-0.2c-0.5-0.2-0.9-0.5-1.4-0.8
			c-0.8-0.4-1.6-1-2.3-1.5c-0.1-0.1-0.1-0.1-0.2-0.2c-0.3-0.3-0.7-0.5-1-0.8c-0.3-0.2-0.5-0.4-0.8-0.6c-0.5-0.5-1.1-1-1.6-1.5
			c-0.1-0.1-0.2-0.2-0.4-0.4l0,0c-0.4-0.4-0.8-0.8-1.2-1.3c-0.2-0.3-0.5-0.5-0.7-0.8c-0.9-1.1-1.7-2.3-2.4-3.5c-0.4-0.6-0.7-1.2-1-1.8
			l0,0c0-0.1-0.1-0.1-0.1-0.2c0,0,0,0,0,0c-0.5-0.9-0.9-1.9-1.2-2.9c0,0,0,0,0,0c-0.2-0.5-0.3-1-0.5-1.6c-0.1-0.2-0.1-0.4-0.2-0.6
			c-0.3-1-0.5-1.9-0.7-2.9v0c-0.1-0.4-0.1-0.8-0.2-1.2c0-0.1,0-0.1,0-0.2c-0.1-1.2-0.2-2.4-0.2-3.6c0-0.3,0-0.5,0-0.8
			c0-0.1,0-0.3,0-0.4c0-0.4,0-0.7,0.1-1.1c0-0.3,0.1-0.7,0.1-1c0.1-0.8,0.2-1.7,0.4-2.5c0-0.1,0.1-0.3,0.1-0.4
			c0.1-0.3,0.1-0.6,0.2-0.8c0.3-1.1,0.6-2.1,1-3.2l0,0c0.4-1.2,0.9-2.3,1.4-3.3c0.9-1.7,1.9-3.2,3-4.6c0,0,0,0,0,0
			c0.3-0.4,0.6-0.7,0.9-1.1c1.5-1.8,3.2-3.3,5.1-4.6l-1-1.4c-2,1.4-3.7,3.1-5.4,5c-0.4,0.4-0.7,0.9-1,1.3c0,0,0,0,0,0
			c-1.1,1.5-2.1,3-2.9,4.6c-0.9,1.6-1.5,3.2-2.1,4.9c0,0,0,0,0,0c-0.2,0.7-0.4,1.4-0.6,2.1c-0.1,0.4-0.2,0.9-0.3,1.3
			c0,0.1-0.1,0.3-0.1,0.4c-0.2,1-0.3,2.1-0.4,3.1c0,0.3-0.1,0.7-0.1,1c0,0.2,0,0.4,0,0.5c0,0.1,0,0.3,0,0.4c0,0.3,0,0.5,0,0.8
			c0,1.3,0.1,2.6,0.2,3.8c0,0.1,0,0.2,0,0.3c0.1,0.5,0.1,0.9,0.2,1.4v0c0.2,1,0.4,1.9,0.6,2.9c0.1,0.2,0.1,0.5,0.2,0.7
			c0.2,0.6,0.4,1.3,0.6,1.9c0,0,0,0,0,0c0.3,0.9,0.7,1.9,1.2,2.8c0,0,0,0,0,0c0.1,0.3,0.3,0.6,0.4,0.9v0c0.2,0.4,0.4,0.8,0.7,1.3
			c0.9,1.4,1.8,2.8,2.9,4c0.2,0.3,0.4,0.5,0.7,0.8c0.4,0.4,0.8,0.8,1.2,1.3l0,0c0.1,0.1,0.1,0.1,0.2,0.2c0.7,0.8,1.5,1.4,2.2,2.1
			c0.3,0.2,0.5,0.4,0.8,0.6c0.2,0.1,0.4,0.3,0.6,0.4c0.1,0.1,0.1,0.1,0.2,0.2c0.8,0.6,1.6,1.1,2.5,1.7c0.5,0.3,1,0.6,1.6,0.8l0,0
			c0,0,0.1,0,0.1,0.1c0,0,0,0,0,0c0.1,0,0.1,0.1,0.2,0.1c0.1,0,0.1,0.1,0.2,0.1c0.3,0.1,0.6,0.3,0.8,0.4c1.1,0.5,2.3,0.9,3.4,1.3
			c0,0,0,0,0,0c0.4,0.1,0.7,0.2,1.1,0.3c0.3,0.1,0.6,0.2,0.9,0.2c0.2,0.1,0.5,0.1,0.7,0.2c0.1,0,0.3,0.1,0.4,0.1
			c0.5,0.1,1,0.2,1.5,0.2c0,0,0,0,0,0c0,0,0,0,0,0c0,0,0,0,0,0c0,0,0,0,0,0c0,0,0,0,0,0c0,0,0.1,0,0.1,0c0,0,0,0,0,0
			c1.1,0.2,2.2,0.2,3.4,0.3c0.2,0,0.4,0,0.6,0c0,0,0.1,0,0.1,0c0.1,0,0.3,0,0.4,0c0.1,0,0.1,0,0.2,0c0,0,0,0,0,0c0,0,0,0,0,0
			c0,0,0,0,0,0c0,0,0,0,0,0c0,0,0,0,0,0c0,0,0,0,0,0c0,0,0,0,0,0C198.6,227.6,200.3,227.5,201.9,227.2
			C201.9,227.2,201.9,227.2,201.9,227.2z"/>
		<g>
		</g>
		</svg>
